<svg id="Layer_1" data-name="Layer 1" xmlns="http://www.w3.org/2000/svg" xmlns:xlink="http://www.w3.org/1999/xlink" viewBox="0 0 881.59 500.32"><defs><style>.cls-1{fill:url(#linear-gradient);}.cls-2{fill:url(#linear-gradient-2);}.cls-3{fill:url(#linear-gradient-3);}.cls-4{fill:#fff;}</style><linearGradient id="linear-gradient" x1="330" y1="311.1" x2="780.48" y2="311.1" gradientUnits="userSpaceOnUse"><stop offset="0.01" stop-color="#fff"/><stop offset="1" stop-color="#f5f5f5"/></linearGradient><linearGradient id="linear-gradient-2" x1="330" y1="310.26" x2="780.48" y2="310.26" xlink:href="#linear-gradient"/><linearGradient id="linear-gradient-3" x1="330" y1="310.2" x2="780.48" y2="310.2" xlink:href="#linear-gradient"/></defs><title>JULO Logo</title><path class="cls-1" d="M435.71,322.44c-.1,26-14.36,46.63-46.24,46.51-31.47-.12-45.58-19.21-45.48-46.65l.31-82.1-14-.05L330,322.87c-.13,34.19,19.52,59,59.42,59.19,40.1.15,60.15-27.22,60.27-58.74l.31-82.72-14-.05Z"/><polygon class="cls-2" points="525.36 240.16 510.55 240.11 510 380.07 609.95 380.42 610 367.87 524.86 367.57 525.36 240.16"/><path class="cls-3" d="M707.24,236.9c-41.67-.16-73.21,31.14-73.36,73.24-.16,41.68,31.14,73.21,72.82,73.36,42.1.16,73.63-31.14,73.78-72.82C780.64,268.58,749.34,237.05,707.24,236.9Zm-.49,133.2c-33.93-.13-59-25.77-58.84-59.91.13-34.56,25.35-59.8,59.28-59.68,34.56.13,59.38,25.56,59.26,60.12C766.32,344.76,741.3,370.22,706.75,370.09Z"/><path class="cls-4" d="M174.37,315.7l-.33.11h.34S174.38,315.74,174.37,315.7Z"/><rect class="cls-4" x="99.75" y="108.23" width="4.55" height="4.56"/><rect class="cls-4" x="116.57" y="114.35" width="4.55" height="4.56"/><rect class="cls-4" x="134.06" y="120.86" width="4.56" height="4.56"/><rect class="cls-4" x="151.77" y="127.48" width="4.56" height="4.56"/><rect class="cls-4" x="169.32" y="134" width="4.57" height="4.56"/><rect class="cls-4" x="186.44" y="140.26" width="4.56" height="4.56"/><rect class="cls-4" x="202.87" y="146.13" width="4.56" height="4.56"/><rect class="cls-4" x="218.52" y="151.55" width="4.56" height="4.56"/><rect class="cls-4" x="233.26" y="156.46" width="4.56" height="4.56"/><rect class="cls-4" x="118.04" y="124.61" width="4.56" height="4.56"/><rect class="cls-4" x="132.99" y="129.65" width="4.56" height="4.56"/><rect class="cls-4" x="148.58" y="135.05" width="4.56" height="4.56"/><rect class="cls-4" x="164.43" y="140.6" width="4.56" height="4.56"/><rect class="cls-4" x="180.24" y="146.12" width="4.56" height="4.56"/><rect class="cls-4" x="195.75" y="151.46" width="4.56" height="4.56"/><rect class="cls-4" x="210.74" y="156.51" width="4.55" height="4.56"/><rect class="cls-4" x="225.09" y="161.19" width="4.56" height="4.56"/><rect class="cls-4" x="238.71" y="165.45" width="4.56" height="4.56"/><rect class="cls-4" x="134.51" y="139.94" width="4.56" height="4.56"/><rect class="cls-4" x="147.9" y="144.08" width="4.56" height="4.56"/><rect class="cls-4" x="161.87" y="148.54" width="4.56" height="4.56"/><rect class="cls-4" x="176.13" y="153.17" width="4.56" height="4.56"/><rect class="cls-4" x="190.39" y="157.81" width="4.56" height="4.56"/><rect class="cls-4" x="204.47" y="162.33" width="4.55" height="4.56"/><rect class="cls-4" x="218.14" y="166.62" width="4.55" height="4.56"/><rect class="cls-4" x="231.32" y="170.64" width="4.56" height="4.56"/><rect class="cls-4" x="243.88" y="174.29" width="4.56" height="4.56"/><rect class="cls-4" x="149.2" y="154.25" width="4.56" height="4.56"/><rect class="cls-4" x="161.28" y="157.63" width="4.56" height="4.56"/><rect class="cls-4" x="173.88" y="161.31" width="4.56" height="4.56"/><rect class="cls-4" x="186.76" y="165.15" width="4.56" height="4.56"/><rect class="cls-4" x="199.69" y="169.02" width="4.57" height="4.56"/><rect class="cls-4" x="212.49" y="172.81" width="4.55" height="4.56"/><rect class="cls-4" x="224.99" y="176.44" width="4.56" height="4.56"/><rect class="cls-4" x="237.1" y="179.83" width="4.56" height="4.56"/><rect class="cls-4" x="248.71" y="182.94" width="4.56" height="4.56"/><rect class="cls-4" x="162.16" y="167.57" width="4.55" height="4.56"/><rect class="cls-4" x="173.16" y="170.33" width="4.56" height="4.56"/><rect class="cls-4" x="184.61" y="173.35" width="4.56" height="4.56"/><rect class="cls-4" x="196.31" y="176.51" width="4.56" height="4.56"/><rect class="cls-4" x="208.08" y="179.71" width="4.56" height="4.56"/><rect class="cls-4" x="219.78" y="182.87" width="4.55" height="4.56"/><rect class="cls-4" x="231.24" y="185.9" width="4.56" height="4.56"/><rect class="cls-4" x="242.39" y="188.74" width="4.56" height="4.56"/><rect class="cls-4" x="253.13" y="191.36" width="4.56" height="4.56"/><rect class="cls-4" x="173.5" y="179.96" width="4.55" height="4.57"/><rect class="cls-4" x="183.6" y="182.2" width="4.55" height="4.56"/><rect class="cls-4" x="194.08" y="184.66" width="4.56" height="4.56"/><rect class="cls-4" x="204.78" y="187.25" width="4.56" height="4.57"/><rect class="cls-4" x="215.55" y="189.88" width="4.56" height="4.56"/><rect class="cls-4" x="226.28" y="192.49" width="4.56" height="4.56"/><rect class="cls-4" x="236.84" y="194.99" width="4.56" height="4.56"/><rect class="cls-4" x="247.14" y="197.35" width="4.56" height="4.56"/><rect class="cls-4" x="257.12" y="199.52" width="4.56" height="4.56"/><rect class="cls-4" x="183.31" y="191.48" width="4.56" height="4.56"/><rect class="cls-4" x="192.66" y="193.28" width="4.56" height="4.56"/><rect class="cls-4" x="202.32" y="195.27" width="4.56" height="4.56"/><rect class="cls-4" x="212.18" y="197.38" width="4.56" height="4.56"/><rect class="cls-4" x="222.11" y="199.52" width="4.57" height="4.56"/><rect class="cls-4" x="232.01" y="201.65" width="4.56" height="4.56"/><rect class="cls-4" x="241.78" y="203.7" width="4.56" height="4.56"/><rect class="cls-4" x="251.34" y="205.64" width="4.56" height="4.56"/><rect class="cls-4" x="260.65" y="207.42" width="4.56" height="4.56"/><rect class="cls-4" x="191.72" y="202.18" width="4.55" height="4.56"/><rect class="cls-4" x="200.44" y="203.63" width="4.56" height="4.56"/><rect class="cls-4" x="209.43" y="205.23" width="4.56" height="4.56"/><rect class="cls-4" x="218.58" y="206.93" width="4.56" height="4.56"/><rect class="cls-4" x="227.79" y="208.66" width="4.57" height="4.56"/><rect class="cls-4" x="236.98" y="210.38" width="4.56" height="4.56"/><rect class="cls-4" x="246.07" y="212.04" width="4.56" height="4.56"/><rect class="cls-4" x="255" y="213.61" width="4.56" height="4.56"/><rect class="cls-4" x="263.72" y="215.06" width="4.56" height="4.56"/><rect class="cls-4" x="198.85" y="212.15" width="4.55" height="4.55"/><rect class="cls-4" x="207.06" y="213.31" width="4.55" height="4.56"/><rect class="cls-4" x="215.48" y="214.58" width="4.56" height="4.55"/><rect class="cls-4" x="224.04" y="215.94" width="4.56" height="4.56"/><rect class="cls-4" x="232.64" y="217.32" width="4.56" height="4.56"/><rect class="cls-4" x="241.24" y="218.7" width="4.56" height="4.56"/><rect class="cls-4" x="249.75" y="220.02" width="4.55" height="4.56"/><rect class="cls-4" x="258.14" y="221.28" width="4.56" height="4.55"/><rect class="cls-4" x="266.35" y="222.44" width="4.56" height="4.56"/><rect class="cls-4" x="204.83" y="221.46" width="4.56" height="4.56"/><rect class="cls-4" x="212.62" y="222.37" width="4.56" height="4.56"/><rect class="cls-4" x="220.57" y="223.38" width="4.56" height="4.56"/><rect class="cls-4" x="228.62" y="224.44" width="4.56" height="4.56"/><rect class="cls-4" x="236.73" y="225.54" width="4.56" height="4.56"/><rect class="cls-4" x="244.82" y="226.63" width="4.55" height="4.55"/><rect class="cls-4" x="252.85" y="227.67" width="4.56" height="4.56"/><rect class="cls-4" x="260.77" y="228.67" width="4.56" height="4.56"/><rect class="cls-4" x="268.55" y="229.58" width="4.56" height="4.55"/><rect class="cls-4" x="209.78" y="230.17" width="4.55" height="4.56"/><rect class="cls-4" x="217.21" y="230.88" width="4.56" height="4.56"/><rect class="cls-4" x="224.78" y="231.67" width="4.56" height="4.56"/><rect class="cls-4" x="232.43" y="232.5" width="4.56" height="4.56"/><rect class="cls-4" x="240.11" y="233.35" width="4.57" height="4.56"/><rect class="cls-4" x="247.79" y="234.2" width="4.56" height="4.56"/><rect class="cls-4" x="255.4" y="235.02" width="4.56" height="4.56"/><rect class="cls-4" x="262.94" y="235.79" width="4.56" height="4.56"/><rect class="cls-4" x="270.37" y="236.49" width="4.56" height="4.56"/><rect class="cls-4" x="213.81" y="238.36" width="4.56" height="4.56"/><rect class="cls-4" x="220.96" y="238.91" width="4.55" height="4.56"/><rect class="cls-4" x="228.21" y="239.51" width="4.56" height="4.56"/><rect class="cls-4" x="235.52" y="240.15" width="4.56" height="4.56"/><rect class="cls-4" x="242.86" y="240.81" width="4.56" height="4.56"/><rect class="cls-4" x="250.2" y="241.46" width="4.56" height="4.56"/><rect class="cls-4" x="257.48" y="242.08" width="4.56" height="4.56"/><rect class="cls-4" x="264.7" y="242.66" width="4.56" height="4.56"/><rect class="cls-4" x="271.83" y="243.2" width="4.56" height="4.56"/><rect class="cls-4" x="217.04" y="246.09" width="4.56" height="4.56"/><rect class="cls-4" x="223.97" y="246.51" width="4.56" height="4.56"/><rect class="cls-4" x="230.96" y="246.96" width="4.56" height="4.56"/><rect class="cls-4" x="238.01" y="247.45" width="4.56" height="4.56"/><rect class="cls-4" x="245.06" y="247.94" width="4.56" height="4.56"/><rect class="cls-4" x="252.12" y="248.43" width="4.56" height="4.56"/><rect class="cls-4" x="259.13" y="248.89" width="4.56" height="4.57"/><rect class="cls-4" x="266.09" y="249.33" width="4.56" height="4.56"/><rect class="cls-4" x="272.97" y="249.73" width="4.56" height="4.56"/><rect class="cls-4" x="219.59" y="253.43" width="4.55" height="4.56"/><rect class="cls-4" x="226.33" y="253.74" width="4.55" height="4.56"/><rect class="cls-4" x="233.12" y="254.08" width="4.56" height="4.56"/><rect class="cls-4" x="239.94" y="254.43" width="4.56" height="4.56"/><rect class="cls-4" x="246.78" y="254.8" width="4.56" height="4.56"/><rect class="cls-4" x="253.61" y="255.16" width="4.56" height="4.56"/><rect class="cls-4" x="260.4" y="255.5" width="4.56" height="4.56"/><rect class="cls-4" x="267.15" y="255.81" width="4.56" height="4.56"/><rect class="cls-4" x="273.84" y="256.1" width="4.56" height="4.56"/><rect class="cls-4" x="221.56" y="260.43" width="4.55" height="4.56"/><rect class="cls-4" x="228.15" y="260.66" width="4.55" height="4.56"/><rect class="cls-4" x="234.78" y="260.9" width="4.56" height="4.56"/><rect class="cls-4" x="241.43" y="261.16" width="4.56" height="4.56"/><rect class="cls-4" x="248.09" y="261.42" width="4.56" height="4.56"/><rect class="cls-4" x="254.74" y="261.68" width="4.55" height="4.56"/><rect class="cls-4" x="261.35" y="261.92" width="4.55" height="4.56"/><rect class="cls-4" x="267.94" y="262.14" width="4.56" height="4.56"/><rect class="cls-4" x="274.48" y="262.33" width="4.56" height="4.57"/><rect class="cls-4" x="223.04" y="267.15" width="4.55" height="4.56"/><rect class="cls-4" x="229.51" y="267.31" width="4.55" height="4.56"/><rect class="cls-4" x="236.01" y="267.48" width="4.56" height="4.56"/><rect class="cls-4" x="242.53" y="267.66" width="4.56" height="4.56"/><rect class="cls-4" x="249.05" y="267.85" width="4.57" height="4.56"/><rect class="cls-4" x="255.56" y="268.02" width="4.56" height="4.56"/><rect class="cls-4" x="262.05" y="268.19" width="4.56" height="4.56"/><rect class="cls-4" x="268.51" y="268.34" width="4.56" height="4.56"/><rect class="cls-4" x="274.93" y="268.47" width="4.57" height="4.56"/><rect class="cls-4" x="224.11" y="273.64" width="4.56" height="4.56"/><rect class="cls-4" x="230.5" y="273.75" width="4.56" height="4.56"/><rect class="cls-4" x="236.9" y="273.86" width="4.56" height="4.56"/><rect class="cls-4" x="243.32" y="273.99" width="4.56" height="4.56"/><rect class="cls-4" x="249.73" y="274.11" width="4.56" height="4.56"/><rect class="cls-4" x="256.14" y="274.23" width="4.56" height="4.56"/><rect class="cls-4" x="262.52" y="274.34" width="4.56" height="4.56"/><rect class="cls-4" x="268.89" y="274.43" width="4.56" height="4.56"/><rect class="cls-4" x="275.23" y="274.51" width="4.57" height="4.56"/><rect class="cls-4" x="224.86" y="279.94" width="4.56" height="4.56"/><rect class="cls-4" x="231.18" y="280.01" width="4.56" height="4.56"/><rect class="cls-4" x="237.52" y="280.09" width="4.56" height="4.56"/><rect class="cls-4" x="243.86" y="280.16" width="4.56" height="4.56"/><rect class="cls-4" x="250.19" y="280.25" width="4.56" height="4.56"/><rect class="cls-4" x="256.52" y="280.32" width="4.56" height="4.56"/><rect class="cls-4" x="262.83" y="280.38" width="4.56" height="4.56"/><rect class="cls-4" x="269.14" y="280.44" width="4.56" height="4.56"/><rect class="cls-4" x="275.42" y="280.48" width="4.56" height="4.56"/><rect class="cls-4" x="225.36" y="286.1" width="4.56" height="4.56"/><rect class="cls-4" x="231.64" y="286.14" width="4.55" height="4.56"/><rect class="cls-4" x="237.92" y="286.19" width="4.56" height="4.56"/><rect class="cls-4" x="244.21" y="286.24" width="4.56" height="4.56"/><rect class="cls-4" x="250.48" y="286.28" width="4.56" height="4.56"/><rect class="cls-4" x="256.76" y="286.33" width="4.56" height="4.56"/><rect class="cls-4" x="263.02" y="286.36" width="4.56" height="4.56"/><rect class="cls-4" x="269.28" y="286.39" width="4.56" height="4.56"/><rect class="cls-4" x="275.52" y="286.41" width="4.56" height="4.56"/><rect class="cls-4" x="225.67" y="292.15" width="4.56" height="4.56"/><rect class="cls-4" x="231.92" y="292.17" width="4.55" height="4.56"/><rect class="cls-4" x="238.16" y="292.2" width="4.56" height="4.56"/><rect class="cls-4" x="244.41" y="292.23" width="4.56" height="4.56"/><rect class="cls-4" x="250.65" y="292.25" width="4.57" height="4.56"/><rect class="cls-4" x="256.9" y="292.28" width="4.56" height="4.56"/><rect class="cls-4" x="263.13" y="292.29" width="4.56" height="4.56"/><rect class="cls-4" x="269.35" y="292.31" width="4.56" height="4.56"/><rect class="cls-4" x="275.57" y="292.32" width="4.57" height="4.56"/><rect class="cls-4" x="225.85" y="298.12" width="4.55" height="4.56"/><rect class="cls-4" x="232.07" y="298.13" width="4.56" height="4.56"/><rect class="cls-4" x="238.3" y="298.15" width="4.56" height="4.56"/><rect class="cls-4" x="244.52" y="298.16" width="4.56" height="4.56"/><rect class="cls-4" x="250.74" y="298.17" width="4.57" height="4.55"/><rect class="cls-4" x="256.96" y="298.18" width="4.56" height="4.56"/><rect class="cls-4" x="263.17" y="298.19" width="4.55" height="4.56"/><rect class="cls-4" x="269.39" y="298.19" width="4.56" height="4.56"/><rect class="cls-4" x="275.59" y="298.2" width="4.57" height="4.56"/><rect class="cls-4" x="225.94" y="304.04" width="4.55" height="4.56"/><rect class="cls-4" x="232.15" y="304.05" width="4.55" height="4.56"/><rect class="cls-4" x="238.36" y="304.05" width="4.55" height="4.56"/><rect class="cls-4" x="244.57" y="304.06" width="4.56" height="4.56"/><rect class="cls-4" x="250.78" y="304.06" width="4.56" height="4.56"/><rect class="cls-4" x="256.99" y="304.06" width="4.55" height="4.56"/><rect class="cls-4" x="263.19" y="304.07" width="4.56" height="4.56"/><rect class="cls-4" x="269.39" y="304.07" width="4.56" height="4.56"/><rect class="cls-4" x="275.59" y="304.07" width="4.56" height="4.56"/><rect class="cls-4" x="225.97" y="309.93" width="4.56" height="4.56"/><rect class="cls-4" x="232.18" y="309.94" width="4.56" height="4.56"/><rect class="cls-4" x="238.38" y="309.94" width="4.56" height="4.56"/><rect class="cls-4" x="244.59" y="309.94" width="4.56" height="4.56"/><rect class="cls-4" x="250.79" y="309.94" width="4.56" height="4.56"/><rect class="cls-4" x="257" y="309.94" width="4.55" height="4.56"/><rect class="cls-4" x="263.19" y="309.94" width="4.56" height="4.56"/><rect class="cls-4" x="269.4" y="309.94" width="4.56" height="4.56"/><rect class="cls-4" x="275.59" y="309.94" width="4.56" height="4.56"/><polygon class="cls-4" points="162.34 319.67 160.21 320.37 162.34 320.37 162.34 319.67"/><polygon class="cls-4" points="168.54 320.37 168.54 317.63 163.98 319.13 163.98 320.37 168.54 320.37"/><path class="cls-4" d="M174.74,320.37c-.27-2-.42-4.11-.83-4.2a13.6,13.6,0,0,0-3.72.91v3.29Z"/><rect class="cls-4" x="225.98" y="315.81" width="4.56" height="4.56"/><rect class="cls-4" x="232.19" y="315.81" width="4.55" height="4.56"/><rect class="cls-4" x="238.39" y="315.81" width="4.56" height="4.56"/><rect class="cls-4" x="244.59" y="315.81" width="4.56" height="4.56"/><rect class="cls-4" x="250.79" y="315.81" width="4.57" height="4.56"/><rect class="cls-4" x="257" y="315.81" width="4.55" height="4.56"/><rect class="cls-4" x="263.19" y="315.81" width="4.56" height="4.56"/><rect class="cls-4" x="269.4" y="315.81" width="4.56" height="4.56"/><rect class="cls-4" x="275.59" y="315.81" width="4.56" height="4.56"/><polygon class="cls-4" points="143.74 325.8 142.38 326.25 143.74 326.25 143.74 325.8"/><polygon class="cls-4" points="149.93 326.25 149.93 323.76 145.38 325.26 145.38 326.25 149.93 326.25"/><polygon class="cls-4" points="156.14 326.25 156.14 321.71 151.57 323.22 151.57 326.25 156.14 326.25"/><rect class="cls-4" x="157.78" y="321.68" width="4.56" height="4.57"/><rect class="cls-4" x="163.98" y="321.68" width="4.56" height="4.57"/><rect class="cls-4" x="170.18" y="321.68" width="4.55" height="4.57"/><path class="cls-4" d="M176.75,326.25c-.13-.36-.25-.71-.36-1.07v1.07Z"/><path class="cls-4" d="M224.35,323.8c-.11.84-.24,1.65-.37,2.44h.37Z"/><rect class="cls-4" x="225.99" y="321.68" width="4.55" height="4.57"/><rect class="cls-4" x="232.19" y="321.68" width="4.56" height="4.57"/><rect class="cls-4" x="238.39" y="321.68" width="4.56" height="4.57"/><rect class="cls-4" x="244.59" y="321.68" width="4.56" height="4.57"/><rect class="cls-4" x="250.79" y="321.68" width="4.57" height="4.57"/><rect class="cls-4" x="257" y="321.68" width="4.55" height="4.57"/><rect class="cls-4" x="263.19" y="321.68" width="4.56" height="4.57"/><rect class="cls-4" x="269.4" y="321.68" width="4.56" height="4.57"/><rect class="cls-4" x="275.59" y="321.68" width="4.56" height="4.57"/><polygon class="cls-4" points="125.13 331.93 124.56 332.11 125.13 332.11 125.13 331.93"/><polygon class="cls-4" points="131.33 332.11 131.33 329.88 126.78 331.39 126.78 332.11 131.33 332.11"/><polygon class="cls-4" points="137.53 332.11 137.53 327.84 132.97 329.34 132.97 332.11 137.53 332.11"/><rect class="cls-4" x="139.18" y="327.55" width="4.56" height="4.56"/><rect class="cls-4" x="145.37" y="327.55" width="4.56" height="4.56"/><rect class="cls-4" x="151.58" y="327.55" width="4.56" height="4.56"/><rect class="cls-4" x="157.78" y="327.55" width="4.56" height="4.56"/><rect class="cls-4" x="163.98" y="327.55" width="4.56" height="4.56"/><rect class="cls-4" x="170.18" y="327.55" width="4.55" height="4.56"/><path class="cls-4" d="M176.38,332.11h3.06a36.12,36.12,0,0,1-2.19-4.56h-.86Z"/><path class="cls-4" d="M224.35,327.55h-.62a35.66,35.66,0,0,1-1.23,4.56h1.85Z"/><rect class="cls-4" x="225.99" y="327.55" width="4.55" height="4.56"/><rect class="cls-4" x="232.19" y="327.55" width="4.56" height="4.56"/><rect class="cls-4" x="238.39" y="327.55" width="4.56" height="4.56"/><rect class="cls-4" x="244.59" y="327.55" width="4.56" height="4.56"/><rect class="cls-4" x="250.79" y="327.55" width="4.57" height="4.56"/><rect class="cls-4" x="257" y="327.55" width="4.55" height="4.56"/><rect class="cls-4" x="263.19" y="327.55" width="4.56" height="4.56"/><rect class="cls-4" x="269.4" y="327.55" width="4.56" height="4.56"/><path class="cls-4" d="M275.59,327.55v4.56h4.19a42.48,42.48,0,0,0,.37-4.56Z"/><path class="cls-4" d="M125.13,333.42h-3.38a.93.93,0,0,0-.91,1.08c.2,1.17.41,2.33.64,3.48h3.66Z"/><rect class="cls-4" x="126.77" y="333.42" width="4.56" height="4.56"/><rect class="cls-4" x="132.97" y="333.42" width="4.56" height="4.56"/><rect class="cls-4" x="139.18" y="333.42" width="4.56" height="4.56"/><rect class="cls-4" x="145.37" y="333.42" width="4.56" height="4.56"/><rect class="cls-4" x="151.58" y="333.42" width="4.56" height="4.56"/><rect class="cls-4" x="157.78" y="333.42" width="4.56" height="4.56"/><rect class="cls-4" x="163.98" y="333.42" width="4.56" height="4.56"/><rect class="cls-4" x="170.18" y="333.42" width="4.55" height="4.56"/><path class="cls-4" d="M176.38,338h4.56V334.5c-.25-.36-.49-.72-.72-1.08h-3.84Z"/><path class="cls-4" d="M183.8,338c-.42-.43-.83-.88-1.22-1.34V338Z"/><path class="cls-4" d="M224.35,338v-4.56H222a20.8,20.8,0,0,1-2.22,4.15V338Z"/><rect class="cls-4" x="225.99" y="333.42" width="4.55" height="4.56"/><rect class="cls-4" x="232.19" y="333.42" width="4.56" height="4.56"/><rect class="cls-4" x="238.39" y="333.42" width="4.56" height="4.56"/><rect class="cls-4" x="244.59" y="333.42" width="4.56" height="4.56"/><rect class="cls-4" x="250.79" y="333.42" width="4.57" height="4.56"/><rect class="cls-4" x="257" y="333.42" width="4.55" height="4.56"/><rect class="cls-4" x="263.19" y="333.42" width="4.56" height="4.56"/><rect class="cls-4" x="269.4" y="333.42" width="4.56" height="4.56"/><path class="cls-4" d="M275.59,338H279a34.07,34.07,0,0,0,.69-4.56h-4.08Z"/><path class="cls-4" d="M125.13,339.29h-3.38q.48,2.32,1,4.56h2.35Z"/><rect class="cls-4" x="126.77" y="339.29" width="4.56" height="4.56"/><rect class="cls-4" x="132.97" y="339.29" width="4.56" height="4.56"/><rect class="cls-4" x="139.18" y="339.29" width="4.56" height="4.56"/><rect class="cls-4" x="145.37" y="339.29" width="4.56" height="4.56"/><rect class="cls-4" x="151.58" y="339.29" width="4.56" height="4.56"/><rect class="cls-4" x="157.78" y="339.29" width="4.56" height="4.56"/><rect class="cls-4" x="163.98" y="339.29" width="4.56" height="4.56"/><rect class="cls-4" x="170.18" y="339.29" width="4.55" height="4.56"/><rect class="cls-4" x="176.38" y="339.29" width="4.56" height="4.56"/><path class="cls-4" d="M182.58,343.86h4.56v-3a24.25,24.25,0,0,1-2-1.59h-2.58Z"/><path class="cls-4" d="M192.84,343.86a22.49,22.49,0,0,1-4.05-1.89v1.89Z"/><path class="cls-4" d="M211.95,343.58c-.27.1-.55.19-.83.28h.83Z"/><path class="cls-4" d="M218.15,343.86v-4.3a16.2,16.2,0,0,1-4.56,3.3v1Z"/><rect class="cls-4" x="219.79" y="339.29" width="4.56" height="4.56"/><rect class="cls-4" x="225.99" y="339.29" width="4.55" height="4.56"/><rect class="cls-4" x="232.19" y="339.29" width="4.56" height="4.56"/><rect class="cls-4" x="238.39" y="339.29" width="4.56" height="4.56"/><rect class="cls-4" x="244.59" y="339.29" width="4.56" height="4.56"/><rect class="cls-4" x="250.79" y="339.29" width="4.57" height="4.56"/><rect class="cls-4" x="257" y="339.29" width="4.55" height="4.56"/><rect class="cls-4" x="263.19" y="339.29" width="4.56" height="4.56"/><rect class="cls-4" x="269.4" y="339.29" width="4.56" height="4.56"/><path class="cls-4" d="M275.59,343.86h1.92q.64-2.24,1.17-4.56h-3.09Z"/><path class="cls-4" d="M125.13,345.16h-2c.41,1.56.86,3.07,1.33,4.56h.69Z"/><rect class="cls-4" x="126.77" y="345.16" width="4.56" height="4.56"/><rect class="cls-4" x="132.97" y="345.16" width="4.56" height="4.56"/><rect class="cls-4" x="139.18" y="345.16" width="4.56" height="4.56"/><rect class="cls-4" x="145.37" y="345.16" width="4.56" height="4.56"/><rect class="cls-4" x="151.58" y="345.16" width="4.56" height="4.56"/><rect class="cls-4" x="157.78" y="345.16" width="4.56" height="4.56"/><rect class="cls-4" x="163.98" y="345.16" width="4.56" height="4.56"/><rect class="cls-4" x="170.18" y="345.16" width="4.55" height="4.56"/><rect class="cls-4" x="176.38" y="345.16" width="4.56" height="4.56"/><rect class="cls-4" x="182.58" y="345.16" width="4.56" height="4.56"/><rect class="cls-4" x="188.78" y="345.16" width="4.56" height="4.56"/><path class="cls-4" d="M195,349.73h4.56v-4.55H195Z"/><path class="cls-4" d="M205.74,349.73v-4.56h-2.26c-.74,0-1.51.06-2.3.06v4.5Z"/><rect class="cls-4" x="207.39" y="345.16" width="4.56" height="4.56"/><rect class="cls-4" x="213.59" y="345.16" width="4.56" height="4.56"/><rect class="cls-4" x="219.79" y="345.16" width="4.56" height="4.56"/><rect class="cls-4" x="225.99" y="345.16" width="4.55" height="4.56"/><rect class="cls-4" x="232.19" y="345.16" width="4.56" height="4.56"/><rect class="cls-4" x="238.39" y="345.16" width="4.56" height="4.56"/><rect class="cls-4" x="244.59" y="345.16" width="4.56" height="4.56"/><rect class="cls-4" x="250.79" y="345.16" width="4.57" height="4.56"/><rect class="cls-4" x="257" y="345.16" width="4.55" height="4.56"/><rect class="cls-4" x="263.19" y="345.16" width="4.56" height="4.56"/><rect class="cls-4" x="269.4" y="345.16" width="4.56" height="4.56"/><path class="cls-4" d="M275.59,349.73h0c.54-1.5,1.05-3,1.52-4.56h-1.56Z"/><path class="cls-4" d="M124.87,351c.09.27.17.55.26.82V351Z"/><rect class="cls-4" x="126.77" y="351.03" width="4.56" height="4.56"/><rect class="cls-4" x="132.97" y="351.03" width="4.56" height="4.56"/><rect class="cls-4" x="139.18" y="351.03" width="4.56" height="4.56"/><rect class="cls-4" x="145.37" y="351.03" width="4.56" height="4.56"/><rect class="cls-4" x="151.58" y="351.03" width="4.56" height="4.56"/><rect class="cls-4" x="157.78" y="351.03" width="4.56" height="4.56"/><rect class="cls-4" x="163.98" y="351.03" width="4.56" height="4.56"/><rect class="cls-4" x="170.18" y="351.03" width="4.55" height="4.56"/><rect class="cls-4" x="176.38" y="351.03" width="4.56" height="4.56"/><rect class="cls-4" x="182.58" y="351.03" width="4.56" height="4.56"/><rect class="cls-4" x="188.78" y="351.03" width="4.56" height="4.56"/><rect class="cls-4" x="194.99" y="351.03" width="4.56" height="4.56"/><rect class="cls-4" x="201.19" y="351.03" width="4.56" height="4.56"/><rect class="cls-4" x="207.39" y="351.03" width="4.56" height="4.56"/><rect class="cls-4" x="213.59" y="351.03" width="4.56" height="4.56"/><rect class="cls-4" x="219.79" y="351.03" width="4.56" height="4.56"/><rect class="cls-4" x="225.99" y="351.03" width="4.55" height="4.56"/><rect class="cls-4" x="232.19" y="351.03" width="4.56" height="4.56"/><rect class="cls-4" x="238.39" y="351.03" width="4.56" height="4.56"/><rect class="cls-4" x="244.59" y="351.03" width="4.56" height="4.56"/><rect class="cls-4" x="250.79" y="351.03" width="4.57" height="4.56"/><rect class="cls-4" x="257" y="351.03" width="4.55" height="4.56"/><rect class="cls-4" x="263.19" y="351.03" width="4.56" height="4.56"/><path class="cls-4" d="M269.4,351v4.56h3.86c.24-.53.47-1.06.7-1.6v-3Z"/><path class="cls-4" d="M131.33,356.91H127q1,2.34,2,4.56h2.27Z"/><rect class="cls-4" x="132.97" y="356.91" width="4.56" height="4.56"/><rect class="cls-4" x="139.18" y="356.91" width="4.56" height="4.56"/><rect class="cls-4" x="145.37" y="356.91" width="4.56" height="4.56"/><rect class="cls-4" x="151.58" y="356.91" width="4.56" height="4.56"/><rect class="cls-4" x="157.78" y="356.91" width="4.56" height="4.56"/><rect class="cls-4" x="163.98" y="356.91" width="4.56" height="4.56"/><rect class="cls-4" x="170.18" y="356.91" width="4.55" height="4.56"/><rect class="cls-4" x="176.38" y="356.91" width="4.56" height="4.56"/><rect class="cls-4" x="182.58" y="356.91" width="4.56" height="4.56"/><rect class="cls-4" x="188.78" y="356.91" width="4.56" height="4.56"/><rect class="cls-4" x="194.99" y="356.91" width="4.56" height="4.56"/><rect class="cls-4" x="201.19" y="356.91" width="4.56" height="4.56"/><rect class="cls-4" x="207.39" y="356.91" width="4.56" height="4.56"/><rect class="cls-4" x="213.59" y="356.91" width="4.56" height="4.56"/><rect class="cls-4" x="219.79" y="356.91" width="4.56" height="4.56"/><rect class="cls-4" x="225.99" y="356.91" width="4.55" height="4.56"/><rect class="cls-4" x="232.19" y="356.91" width="4.56" height="4.56"/><rect class="cls-4" x="238.39" y="356.91" width="4.56" height="4.56"/><rect class="cls-4" x="244.59" y="356.91" width="4.56" height="4.56"/><rect class="cls-4" x="250.79" y="356.91" width="4.57" height="4.56"/><rect class="cls-4" x="257" y="356.91" width="4.55" height="4.56"/><rect class="cls-4" x="263.19" y="356.91" width="4.56" height="4.56"/><path class="cls-4" d="M269.4,361.47h.93c.82-1.49,1.61-3,2.35-4.56H269.4Z"/><path class="cls-4" d="M129.72,362.78q.78,1.54,1.61,3v-3Z"/><rect class="cls-4" x="132.97" y="362.78" width="4.56" height="4.56"/><rect class="cls-4" x="139.18" y="362.78" width="4.56" height="4.56"/><rect class="cls-4" x="145.37" y="362.78" width="4.56" height="4.56"/><rect class="cls-4" x="151.58" y="362.78" width="4.56" height="4.56"/><rect class="cls-4" x="157.78" y="362.78" width="4.56" height="4.56"/><rect class="cls-4" x="163.98" y="362.78" width="4.56" height="4.56"/><rect class="cls-4" x="170.18" y="362.78" width="4.55" height="4.56"/><rect class="cls-4" x="176.38" y="362.78" width="4.56" height="4.56"/><rect class="cls-4" x="182.58" y="362.78" width="4.56" height="4.56"/><rect class="cls-4" x="188.78" y="362.78" width="4.56" height="4.56"/><rect class="cls-4" x="194.99" y="362.78" width="4.56" height="4.56"/><rect class="cls-4" x="201.19" y="362.78" width="4.56" height="4.56"/><rect class="cls-4" x="207.39" y="362.78" width="4.56" height="4.56"/><rect class="cls-4" x="213.59" y="362.78" width="4.56" height="4.56"/><rect class="cls-4" x="219.79" y="362.78" width="4.56" height="4.56"/><rect class="cls-4" x="225.99" y="362.78" width="4.55" height="4.56"/><rect class="cls-4" x="232.19" y="362.78" width="4.56" height="4.56"/><rect class="cls-4" x="238.39" y="362.78" width="4.56" height="4.56"/><rect class="cls-4" x="244.59" y="362.78" width="4.56" height="4.56"/><rect class="cls-4" x="250.79" y="362.78" width="4.57" height="4.56"/><rect class="cls-4" x="257" y="362.78" width="4.55" height="4.56"/><path class="cls-4" d="M263.19,362.78v4.56h3.56c.34-.51.66-1,1-1.55v-3Z"/><path class="cls-4" d="M269.4,363.12l.19-.34h-.19Z"/><path class="cls-4" d="M137.54,368.65H133c1,1.57,2,3.1,3.09,4.56h1.41Z"/><rect class="cls-4" x="139.18" y="368.65" width="4.56" height="4.56"/><rect class="cls-4" x="145.37" y="368.65" width="4.56" height="4.56"/><rect class="cls-4" x="151.58" y="368.65" width="4.56" height="4.56"/><rect class="cls-4" x="157.78" y="368.65" width="4.56" height="4.56"/><rect class="cls-4" x="163.98" y="368.65" width="4.56" height="4.56"/><rect class="cls-4" x="170.18" y="368.65" width="4.55" height="4.56"/><rect class="cls-4" x="176.38" y="368.65" width="4.56" height="4.56"/><rect class="cls-4" x="182.58" y="368.65" width="4.56" height="4.56"/><rect class="cls-4" x="188.78" y="368.65" width="4.56" height="4.56"/><rect class="cls-4" x="194.99" y="368.65" width="4.56" height="4.56"/><rect class="cls-4" x="201.19" y="368.65" width="4.56" height="4.56"/><rect class="cls-4" x="207.39" y="368.65" width="4.56" height="4.56"/><rect class="cls-4" x="213.59" y="368.65" width="4.56" height="4.56"/><rect class="cls-4" x="219.79" y="368.65" width="4.56" height="4.56"/><rect class="cls-4" x="225.99" y="368.65" width="4.55" height="4.56"/><rect class="cls-4" x="232.19" y="368.65" width="4.56" height="4.56"/><rect class="cls-4" x="238.39" y="368.65" width="4.56" height="4.56"/><rect class="cls-4" x="244.59" y="368.65" width="4.56" height="4.56"/><rect class="cls-4" x="250.79" y="368.65" width="4.57" height="4.56"/><rect class="cls-4" x="257" y="368.65" width="4.55" height="4.56"/><path class="cls-4" d="M263.19,372.11q1.36-1.69,2.62-3.46h-2.62Z"/><path class="cls-4" d="M137.14,374.52l.39.5v-.5Z"/><path class="cls-4" d="M143.74,374.52h-4.56V377c.62.71,1.24,1.41,1.89,2.09h2.68Z"/><rect class="cls-4" x="145.37" y="374.52" width="4.56" height="4.56"/><rect class="cls-4" x="151.58" y="374.52" width="4.56" height="4.56"/><rect class="cls-4" x="157.78" y="374.52" width="4.56" height="4.56"/><rect class="cls-4" x="163.98" y="374.52" width="4.56" height="4.56"/><rect class="cls-4" x="170.18" y="374.52" width="4.55" height="4.56"/><rect class="cls-4" x="176.38" y="374.52" width="4.56" height="4.56"/><rect class="cls-4" x="182.58" y="374.52" width="4.56" height="4.56"/><rect class="cls-4" x="188.78" y="374.52" width="4.56" height="4.56"/><rect class="cls-4" x="194.99" y="374.52" width="4.56" height="4.56"/><rect class="cls-4" x="201.19" y="374.52" width="4.56" height="4.56"/><rect class="cls-4" x="207.39" y="374.52" width="4.56" height="4.56"/><rect class="cls-4" x="213.59" y="374.52" width="4.56" height="4.56"/><rect class="cls-4" x="219.79" y="374.52" width="4.56" height="4.56"/><rect class="cls-4" x="225.99" y="374.52" width="4.55" height="4.56"/><rect class="cls-4" x="232.19" y="374.52" width="4.56" height="4.56"/><rect class="cls-4" x="238.39" y="374.52" width="4.56" height="4.56"/><rect class="cls-4" x="244.59" y="374.52" width="4.56" height="4.56"/><rect class="cls-4" x="250.79" y="374.52" width="4.57" height="4.56"/><path class="cls-4" d="M257,378.88c1.45-1.39,2.84-2.85,4.17-4.36H257Z"/><path class="cls-4" d="M142.32,380.39c.46.46.94.9,1.41,1.35v-1.35Z"/><path class="cls-4" d="M149.93,380.39h-4.56v2.84c.67.58,1.34,1.16,2,1.71h2.52Z"/><rect class="cls-4" x="151.58" y="380.39" width="4.56" height="4.56"/><rect class="cls-4" x="157.78" y="380.39" width="4.56" height="4.56"/><rect class="cls-4" x="163.98" y="380.39" width="4.56" height="4.56"/><rect class="cls-4" x="170.18" y="380.39" width="4.55" height="4.56"/><rect class="cls-4" x="176.38" y="380.39" width="4.56" height="4.56"/><rect class="cls-4" x="182.58" y="380.39" width="4.56" height="4.56"/><rect class="cls-4" x="188.78" y="380.39" width="4.56" height="4.56"/><rect class="cls-4" x="194.99" y="380.39" width="4.56" height="4.56"/><rect class="cls-4" x="201.19" y="380.39" width="4.56" height="4.56"/><rect class="cls-4" x="207.39" y="380.39" width="4.56" height="4.56"/><rect class="cls-4" x="213.59" y="380.39" width="4.56" height="4.56"/><rect class="cls-4" x="219.79" y="380.39" width="4.56" height="4.56"/><rect class="cls-4" x="225.99" y="380.39" width="4.55" height="4.56"/><rect class="cls-4" x="232.19" y="380.39" width="4.56" height="4.56"/><rect class="cls-4" x="238.39" y="380.39" width="4.56" height="4.56"/><rect class="cls-4" x="244.59" y="380.39" width="4.56" height="4.56"/><path class="cls-4" d="M250.79,384.15c1.58-1.19,3.08-2.45,4.54-3.76h-4.54Z"/><path class="cls-4" d="M149.14,386.26c.26.2.52.41.79.6v-.6Z"/><path class="cls-4" d="M151.58,386.26V388q2.21,1.49,4.56,2.8v-4.52Z"/><rect class="cls-4" x="157.78" y="386.26" width="4.56" height="4.56"/><rect class="cls-4" x="163.98" y="386.26" width="4.56" height="4.56"/><rect class="cls-4" x="170.18" y="386.26" width="4.55" height="4.56"/><rect class="cls-4" x="176.38" y="386.26" width="4.56" height="4.56"/><rect class="cls-4" x="182.58" y="386.26" width="4.56" height="4.56"/><rect class="cls-4" x="188.78" y="386.26" width="4.56" height="4.56"/><rect class="cls-4" x="194.99" y="386.26" width="4.56" height="4.56"/><rect class="cls-4" x="201.19" y="386.26" width="4.56" height="4.56"/><rect class="cls-4" x="207.39" y="386.26" width="4.56" height="4.56"/><rect class="cls-4" x="213.59" y="386.26" width="4.56" height="4.56"/><rect class="cls-4" x="219.79" y="386.26" width="4.56" height="4.56"/><rect class="cls-4" x="225.99" y="386.26" width="4.55" height="4.56"/><rect class="cls-4" x="232.19" y="386.26" width="4.56" height="4.56"/><path class="cls-4" d="M238.39,386.26v4.56h1.69c1-.5,1.92-1,2.87-1.56v-3Z"/><path class="cls-4" d="M244.59,388.32q1.65-1,3.23-2.06h-3.23Z"/><path class="cls-4" d="M158.7,392.13c1.18.59,2.4,1.15,3.64,1.67v-1.67Z"/><path class="cls-4" d="M164,392.13v2.36c1.48.59,3,1.13,4.56,1.63v-4Z"/><path class="cls-4" d="M174.74,392.13h-4.55v4.5l.2.06h4.35Z"/><rect class="cls-4" x="176.38" y="392.13" width="4.56" height="4.56"/><rect class="cls-4" x="182.58" y="392.13" width="4.56" height="4.56"/><rect class="cls-4" x="188.78" y="392.13" width="4.56" height="4.56"/><rect class="cls-4" x="194.99" y="392.13" width="4.56" height="4.56"/><rect class="cls-4" x="201.19" y="392.13" width="4.56" height="4.56"/><rect class="cls-4" x="207.39" y="392.13" width="4.56" height="4.56"/><rect class="cls-4" x="213.59" y="392.13" width="4.56" height="4.56"/><rect class="cls-4" x="219.79" y="392.13" width="4.56" height="4.56"/><path class="cls-4" d="M226,392.13v4.23q2.32-.68,4.55-1.48v-2.76Z"/><path class="cls-4" d="M232.19,392.13v2.17c1.55-.59,3.08-1.2,4.56-1.87v-.3Z"/><path class="cls-4" d="M176.38,398v.19c1.49.32,3,.6,4.56.85v-1Z"/><path class="cls-4" d="M182.58,398v1.28c1.49.2,3,.38,4.56.52V398Z"/><path class="cls-4" d="M188.78,398v1.94q2.24.17,4.56.24V398Z"/><path class="cls-4" d="M195,398v2.21c.7,0,1.39,0,2.1,0s1.64,0,2.46,0V398Z"/><path class="cls-4" d="M201.19,398v2.17c1.54-.05,3.06-.14,4.56-.25V398Z"/><path class="cls-4" d="M207.39,398v1.8q2.31-.21,4.56-.5V398Z"/><path class="cls-4" d="M213.59,398v1q2.32-.35,4.56-.79V398Z"/></svg>