<svg id="Layer_1" data-name="Layer 1" xmlns="http://www.w3.org/2000/svg" xmlns:xlink="http://www.w3.org/1999/xlink" viewBox="0 0 140 80"><defs><style>.cls-1{opacity:0.37;fill:url(#linear-gradient);}.cls-2{fill:url(#linear-gradient-2);}.cls-3{fill:url(#radial-gradient);}.cls-4{fill:url(#radial-gradient-2);}.cls-5{fill:#313132;opacity:0.5;}.cls-6{fill:none;}.cls-7{fill:url(#linear-gradient-3);}.cls-8{fill:url(#linear-gradient-4);}.cls-9{fill:#8c0000;}.cls-10{fill:#646464;}.cls-11{fill:url(#linear-gradient-5);}</style><linearGradient id="linear-gradient" x1="79.67" y1="-4.96" x2="51.74" y2="71.78" gradientUnits="userSpaceOnUse"><stop offset="0"/><stop offset="1" stop-opacity="0"/></linearGradient><linearGradient id="linear-gradient-2" x1="10.51" y1="39.9" x2="129.9" y2="39.9" gradientUnits="userSpaceOnUse"><stop offset="0" stop-color="#fff"/><stop offset="0.87" stop-color="#e8e8e8"/><stop offset="0.89" stop-color="#e2e2e2"/><stop offset="0.91" stop-color="#d1d1d1"/><stop offset="0.94" stop-color="#b5b4b5"/><stop offset="0.98" stop-color="#8f8d8e"/><stop offset="1" stop-color="#6f6c6d"/></linearGradient><radialGradient id="radial-gradient" cx="50.42" cy="34.77" r="17.26" gradientTransform="translate(-1.06) scale(1.07 1)" gradientUnits="userSpaceOnUse"><stop offset="0" stop-color="#d60015"/><stop offset="0.01" stop-color="#d50015"/><stop offset="0.27" stop-color="#b60917"/><stop offset="0.53" stop-color="#a01019"/><stop offset="0.78" stop-color="#93141a"/><stop offset="1" stop-color="#8e151a"/></radialGradient><radialGradient id="radial-gradient-2" cx="52.94" cy="34.77" r="17.32" gradientTransform="matrix(1, 0, 0, 1, 0, 0)" xlink:href="#radial-gradient"/><linearGradient id="linear-gradient-3" x1="59.58" y1="16.5" x2="28.28" y2="27.89" gradientUnits="userSpaceOnUse"><stop offset="0" stop-color="#e78b62"/><stop offset="0.02" stop-color="#dc684e"/><stop offset="0.05" stop-color="#d24c3d"/><stop offset="0.08" stop-color="#cb3630"/><stop offset="0.11" stop-color="#c62627"/><stop offset="0.14" stop-color="#c31d22"/><stop offset="0.19" stop-color="#c21a20"/><stop offset="0.25" stop-color="#d04239"/><stop offset="0.33" stop-color="#e17157"/><stop offset="0.37" stop-color="#e78362"/><stop offset="0.39" stop-color="#e57a5c"/><stop offset="0.5" stop-color="#dd5a46"/><stop offset="0.61" stop-color="#d64235"/><stop offset="0.73" stop-color="#d23029"/><stop offset="0.85" stop-color="#cf2522"/><stop offset="1" stop-color="#ce2220"/></linearGradient><linearGradient id="linear-gradient-4" x1="18.11" y1="35.81" x2="65.94" y2="18.4" gradientUnits="userSpaceOnUse"><stop offset="0" stop-color="#878787"/><stop offset="0.09" stop-color="#959595"/><stop offset="0.27" stop-color="#bababa"/><stop offset="0.51" stop-color="#f6f6f6"/><stop offset="0.55" stop-color="#fff"/><stop offset="0.57" stop-color="#f5f5f5"/><stop offset="0.64" stop-color="#d9d9d9"/><stop offset="0.69" stop-color="#c8c8c8"/><stop offset="0.74" stop-color="#c2c2c2"/><stop offset="0.79" stop-color="#cfcfcf"/><stop offset="0.9" stop-color="#f2f2f2"/><stop offset="0.93" stop-color="#fff"/><stop offset="0.97" stop-color="#f3f3f3"/><stop offset="1" stop-color="#e0e0e0"/></linearGradient><linearGradient id="linear-gradient-5" x1="120.37" y1="63.2" x2="129.9" y2="63.2" gradientUnits="userSpaceOnUse"><stop offset="0"/><stop offset="0.11"/><stop offset="0.67" stop-color="#4d4d4d"/><stop offset="1" stop-color="#3b3b3b"/></linearGradient></defs><title>OJK Indonesia</title><polygon class="cls-1" points="121.37 10.22 10.1 10.22 21.23 34.31 10.1 56.62 99.45 56.62 121.31 56.62 121.37 10.22"/><path class="cls-2" d="M120.46,7.3h-110l11,24.09-11,22.31H120.37l.22,18.81a9.18,9.18,0,0,0,9.31-9.31V16.74A9.44,9.44,0,0,0,120.46,7.3Z"/><path class="cls-3" d="M51.05,25.2V40c-.08,1.23-.43,2.59-1.86,2.59-.65,0-.94-.15-1.08-.41A11.23,11.23,0,0,0,50,36a11.41,11.41,0,0,0-.7-3.94c-.08-.21-.16-.41-.25-.61a9.69,9.69,0,0,0-8.77-6.08c-5.36,0-9.71,4.75-9.71,10.62s4.35,10.62,9.71,10.62a9,9,0,0,0,4.6-1.26,6.76,6.76,0,0,0,4,1.29,7.05,7.05,0,0,0,6.77-5.51h0V25.2ZM42.65,42.36a5,5,0,0,1-2.38.62c-3.23,0-5.85-3.17-5.85-7.08s2.62-7.08,5.85-7.08A5.92,5.92,0,0,1,45.61,33a8.32,8.32,0,0,1,.51,2.88A7.26,7.26,0,0,1,42.65,42.36Z"/><polygon class="cls-4" points="56.95 33.33 56.95 39.77 59.75 37.17 66.13 46.65 72.43 46.65 63.46 33.13 71.18 24.9 64.17 24.9 56.95 33.33"/><path class="cls-5" d="M71.43,25.1a21.54,21.54,0,0,1-4.38,0,1.52,1.52,0,0,1-.28,0c-7-2-8.8-5.5-13.58-8.39-4.53-2.74-15-5.28-25.53,1.75A17.6,17.6,0,0,1,32.43,24c2.23,4,1.11,6.58,1.11,6.58s6.17-6.43,13.34-6.7C52.93,23.69,60,26,65.51,26.66a20.47,20.47,0,0,0,2.93.14c5.85-.21,8.09-3.57,8.09-3.57S75.09,24.72,71.43,25.1Z"/><path class="cls-6" d="M32.22,23.64c.29-.33.57-.63.86-.92C32.79,23,32.5,23.31,32.22,23.64Z"/><path class="cls-7" d="M49,19.39c8.57,2.28,10.46,5.58,17.43,5.53a9.16,9.16,0,0,0-1.33-.67c-3.23-.61-5.31-3.89-11.76-7.62A23,23,0,0,0,27.78,18.3a.12.12,0,0,0,0,.19,15.14,15.14,0,0,1,4.44,5.15c.29-.33.57-.63.86-.92C38.63,17,44,18.06,49,19.39Z"/><path class="cls-8" d="M72.13,24.37a14.11,14.11,0,0,1-4.39.24C60.8,24.1,56,20.81,49.5,18.72c-4.93-1.59-10.87-1.75-16.43,4-.29.29-.57.59-.86.92l.09.17a9.47,9.47,0,0,1,1.47,6S39.89,23.76,47,23.51c6-.21,13,2,18.54,2.6a20.89,20.89,0,0,0,2.91.13C74.28,26,76.61,23,76.61,23S75.88,23.73,72.13,24.37Z"/><rect class="cls-9" x="76.87" y="24.92" width="0.66" height="21.45"/><path class="cls-10" d="M86.2,28.43a2.46,2.46,0,0,1-2.54,2.69,2.41,2.41,0,0,1-2.46-2.59,2.49,2.49,0,0,1,2.54-2.68A2.39,2.39,0,0,1,86.2,28.43ZM82,28.51a1.86,1.86,0,0,0,1.74,2.07c1.12,0,1.75-1,1.75-2.12a1.87,1.87,0,0,0-1.74-2.07C82.55,26.39,82,27.39,82,28.51Z"/><path class="cls-10" d="M87.77,26.49H86.11v-.56h4v.56H88.48V31h-.71Z"/><path class="cls-10" d="M95,28.43a2.46,2.46,0,0,1-2.54,2.69A2.41,2.41,0,0,1,90,28.53a2.49,2.49,0,0,1,2.54-2.68A2.39,2.39,0,0,1,95,28.43Zm-4.24.08a1.86,1.86,0,0,0,1.74,2.07c1.12,0,1.75-1,1.75-2.12a1.87,1.87,0,0,0-1.74-2.07C91.38,26.39,90.79,27.39,90.79,28.51Z"/><path class="cls-10" d="M95.77,26a7.9,7.9,0,0,1,1.35-.11,2.34,2.34,0,0,1,1.58.42,1.23,1.23,0,0,1,.43,1,1.36,1.36,0,0,1-1,1.3v0a1.29,1.29,0,0,1,.8,1,7.69,7.69,0,0,0,.42,1.4H98.6a6.25,6.25,0,0,1-.36-1.22c-.16-.7-.45-1-1.09-1h-.66V31h-.71Zm.71,2.32h.72c.75,0,1.23-.39,1.23-1s-.51-.95-1.26-1a3.1,3.1,0,0,0-.7.06Z"/><path class="cls-10" d="M100.65,25.93V31h-.71v-5.1Z"/><path class="cls-10" d="M102.74,26.49h-1.66v-.56h4v.56h-1.67V31h-.71Z"/><path class="cls-10" d="M105.83,29.43l-.57,1.6h-.73l1.86-5.1h.85l1.86,5.1h-.75l-.58-1.6Zm1.79-.51-.53-1.47c-.12-.33-.2-.64-.28-.93h0c-.08.3-.17.61-.28.92L106,28.91Z"/><path class="cls-10" d="M109.63,30.23a2.64,2.64,0,0,0,1.26.33c.72,0,1.14-.36,1.14-.87s-.29-.75-1-1c-.89-.29-1.44-.73-1.44-1.45s.71-1.38,1.77-1.38a2.62,2.62,0,0,1,1.21.25l-.19.54a2.29,2.29,0,0,0-1-.24c-.75,0-1,.42-1,.76s.33.71,1.09,1c.92.33,1.39.75,1.39,1.5s-.62,1.47-1.91,1.47a3,3,0,0,1-1.39-.33Z"/><path class="cls-10" d="M82.65,33.1h.71v3.41c0,1.36-.71,1.77-1.65,1.77a2.45,2.45,0,0,1-.75-.12l.11-.54a1.8,1.8,0,0,0,.59.1c.63,0,1-.26,1-1.26Z"/><path class="cls-10" d="M85.23,36.59l-.57,1.6h-.73l1.86-5.1h.85l1.86,5.1h-.75l-.58-1.6ZM87,36.08l-.53-1.47c-.12-.33-.2-.64-.28-.93h0c-.08.3-.17.61-.28.92l-.53,1.48Z"/><path class="cls-10" d="M89,37.4a2.64,2.64,0,0,0,1.26.33c.72,0,1.14-.36,1.14-.87s-.29-.75-1-1c-.89-.29-1.44-.73-1.44-1.45S89.67,33,90.74,33a2.62,2.62,0,0,1,1.21.25l-.19.54a2.29,2.29,0,0,0-1-.24c-.75,0-1,.42-1,.76s.33.71,1.09,1c.92.33,1.39.75,1.39,1.5s-.62,1.47-1.91,1.47a3,3,0,0,1-1.39-.33Z"/><path class="cls-10" d="M93.83,36.59l-.57,1.6h-.73l1.86-5.1h.85l1.86,5.1h-.75l-.58-1.6Zm1.79-.51-.53-1.47c-.12-.33-.2-.64-.28-.93h0c-.08.3-.17.61-.28.92L94,36.08Z"/><path class="cls-10" d="M81.53,40.26h.71v2.46h0c.15-.2.29-.38.43-.54l1.67-1.91h.88l-2,2.16,2.13,2.94h-.83l-1.8-2.5-.52.56v1.95h-.71Z"/><path class="cls-10" d="M88.57,43H86.45v1.84h2.37v.55H85.74v-5.1h3v.55H86.45v1.61h2.12Z"/><path class="cls-10" d="M90.26,40.26v3c0,1.14.54,1.63,1.27,1.63s1.33-.5,1.33-1.63v-3h.71v3a1.93,1.93,0,0,1-2.07,2.21c-1.12,0-2-.6-2-2.18v-3Z"/><path class="cls-10" d="M95.22,43.76l-.57,1.6h-.73l1.86-5.1h.85l1.86,5.1h-.75l-.58-1.6ZM97,43.24l-.53-1.47c-.12-.33-.2-.64-.28-.93h0c-.08.3-.17.61-.28.92l-.53,1.48Z"/><path class="cls-10" d="M99.12,45.36v-5.1h.77l1.75,2.58a14.23,14.23,0,0,1,1,1.66h0c-.06-.68-.08-1.3-.08-2.1V40.26h.66v5.1h-.71l-1.73-2.59a15.79,15.79,0,0,1-1-1.7h0c0,.64.06,1.26.06,2.1v2.18Z"/><path class="cls-10" d="M108.43,45.14a5.43,5.43,0,0,1-1.68.28,2.93,2.93,0,0,1-2-.67,2.53,2.53,0,0,1-.76-1.9,2.66,2.66,0,0,1,3-2.63,3.57,3.57,0,0,1,1.36.23l-.17.54a3,3,0,0,0-1.21-.22,2,2,0,0,0-2.2,2.05,1.93,1.93,0,0,0,2.11,2.06,2.43,2.43,0,0,0,.94-.14V43.21h-1.11v-.53h1.8Z"/><path class="cls-10" d="M110.21,43.76l-.57,1.6h-.73l1.86-5.1h.85l1.86,5.1h-.75l-.58-1.6Zm1.79-.51-.53-1.47c-.12-.33-.2-.64-.28-.93h0c-.08.3-.17.61-.28.92l-.53,1.48Z"/><path class="cls-10" d="M114.11,45.36v-5.1h.77l1.75,2.58a14.23,14.23,0,0,1,1,1.66h0c-.06-.68-.08-1.3-.08-2.1V40.26h.66v5.1h-.71l-1.73-2.59a15.79,15.79,0,0,1-1-1.7h0c0,.64.06,1.26.06,2.1v2.18Z"/><path class="cls-11" d="M120.4,53.7h0l0,19a9.5,9.5,0,1,0,0-19Z"/></svg>