<svg id="Layer_1" data-name="Layer 1" xmlns="http://www.w3.org/2000/svg" xmlns:xlink="http://www.w3.org/1999/xlink" viewBox="0 0 100 50"><defs><style>.cls-1{fill:#fff;}.cls-2{fill:url(#radial-gradient);}.cls-3{fill:url(#radial-gradient-2);}.cls-4{fill:#313132;opacity:0.5;}.cls-5{fill:none;}.cls-6{fill:url(#linear-gradient);}.cls-7{fill:url(#linear-gradient-2);}.cls-8{fill:#8c0000;}.cls-9{fill:#646464;}.cls-10{fill:#5e5e5e;}</style><radialGradient id="radial-gradient" cx="35.31" cy="31.11" r="10.22" gradientTransform="translate(0.36) scale(1.07 1)" gradientUnits="userSpaceOnUse"><stop offset="0" stop-color="#d60015"/><stop offset="0.01" stop-color="#d50015"/><stop offset="0.27" stop-color="#b60917"/><stop offset="0.53" stop-color="#a01019"/><stop offset="0.78" stop-color="#93141a"/><stop offset="1" stop-color="#8e151a"/></radialGradient><radialGradient id="radial-gradient-2" cx="38.17" cy="31.11" r="10.25" gradientTransform="matrix(1, 0, 0, 1, 0, 0)" xlink:href="#radial-gradient"/><linearGradient id="linear-gradient" x1="42.1" y1="20.3" x2="23.58" y2="27.04" gradientUnits="userSpaceOnUse"><stop offset="0" stop-color="#e78b62"/><stop offset="0.02" stop-color="#dc684e"/><stop offset="0.05" stop-color="#d24c3d"/><stop offset="0.08" stop-color="#cb3630"/><stop offset="0.11" stop-color="#c62627"/><stop offset="0.14" stop-color="#c31d22"/><stop offset="0.19" stop-color="#c21a20"/><stop offset="0.25" stop-color="#d04239"/><stop offset="0.33" stop-color="#e17157"/><stop offset="0.37" stop-color="#e78362"/><stop offset="0.39" stop-color="#e57a5c"/><stop offset="0.5" stop-color="#dd5a46"/><stop offset="0.61" stop-color="#d64235"/><stop offset="0.73" stop-color="#d23029"/><stop offset="0.85" stop-color="#cf2522"/><stop offset="1" stop-color="#ce2220"/></linearGradient><linearGradient id="linear-gradient-2" x1="17.56" y1="31.73" x2="45.86" y2="21.43" gradientUnits="userSpaceOnUse"><stop offset="0" stop-color="#878787"/><stop offset="0.09" stop-color="#959595"/><stop offset="0.27" stop-color="#bababa"/><stop offset="0.51" stop-color="#f6f6f6"/><stop offset="0.55" stop-color="#fff"/><stop offset="0.57" stop-color="#f5f5f5"/><stop offset="0.64" stop-color="#d9d9d9"/><stop offset="0.69" stop-color="#c8c8c8"/><stop offset="0.74" stop-color="#c2c2c2"/><stop offset="0.79" stop-color="#cfcfcf"/><stop offset="0.9" stop-color="#f2f2f2"/><stop offset="0.93" stop-color="#fff"/><stop offset="0.97" stop-color="#f3f3f3"/><stop offset="1" stop-color="#e0e0e0"/></linearGradient></defs><title>OJK-Indonesia-3</title><rect class="cls-1" x="15.62" y="7.81" width="68.76" height="34.38" rx="3.44" ry="3.44"/><path class="cls-2" d="M37.05,25.45v8.78c0,.73-.26,1.53-1.1,1.53-.39,0-.55-.09-.64-.24a6.65,6.65,0,0,0,1.12-3.71A6.75,6.75,0,0,0,36,29.48c0-.12-.09-.24-.15-.36a5.73,5.73,0,0,0-5.19-3.6,6,6,0,0,0-5.75,6.29,6,6,0,0,0,5.75,6.29,5.33,5.33,0,0,0,2.72-.75,4,4,0,0,0,2.35.76,4.17,4.17,0,0,0,4-3.26h0v-9.4Zm-5,10.16a3,3,0,0,1-1.41.36c-1.91,0-3.46-1.88-3.46-4.19s1.55-4.19,3.46-4.19a3.5,3.5,0,0,1,3.16,2.49,4.92,4.92,0,0,1,.3,1.7A4.3,4.3,0,0,1,32.08,35.61Z"/><polygon class="cls-3" points="40.55 30.26 40.55 34.07 42.2 32.53 45.97 38.14 49.7 38.14 44.4 30.14 48.97 25.27 44.81 25.27 40.55 30.26"/><path class="cls-4" d="M49.11,25.39a12.75,12.75,0,0,1-2.59,0,.9.9,0,0,1-.17,0c-4.13-1.21-5.21-3.25-8-5a14.42,14.42,0,0,0-15.11,1A10.42,10.42,0,0,1,26,24.76c1.32,2.39.65,3.9.65,3.9s3.65-3.81,7.9-4c3.58-.13,7.74,1.26,11,1.62a12.11,12.11,0,0,0,1.73.08c3.46-.13,4.79-2.11,4.79-2.11A5,5,0,0,1,49.11,25.39Z"/><path class="cls-5" d="M25.91,24.53c.17-.2.34-.37.51-.55C26.25,24.15,26.08,24.33,25.91,24.53Z"/><path class="cls-6" d="M35.82,22c5.07,1.35,6.19,3.3,10.31,3.27a5.42,5.42,0,0,0-.79-.4c-1.91-.36-3.14-2.3-7-4.51a13.62,13.62,0,0,0-15.1,1,.07.07,0,0,0,0,.11,9,9,0,0,1,2.63,3c.17-.2.34-.38.51-.55C29.71,20.58,32.85,21.23,35.82,22Z"/><path class="cls-7" d="M49.53,25a8.35,8.35,0,0,1-2.6.14c-4.11-.3-7-2.25-10.79-3.48A8.78,8.78,0,0,0,26.41,24c-.17.17-.34.35-.51.55l.05.1a5.6,5.6,0,0,1,.87,3.57s3.62-3.6,7.84-3.75c3.56-.13,7.7,1.19,11,1.54a12.36,12.36,0,0,0,1.72.08c3.44-.12,4.82-1.92,4.82-1.92S51.74,24.58,49.53,25Z"/><rect class="cls-8" x="52.33" y="25.29" width="0.39" height="12.69"/><path class="cls-9" d="M57.85,27.36A1.46,1.46,0,0,1,56.35,29a1.42,1.42,0,0,1-1.45-1.53,1.48,1.48,0,0,1,1.5-1.59A1.41,1.41,0,0,1,57.85,27.36Zm-2.51,0a1.1,1.1,0,0,0,1,1.22c.66,0,1-.57,1-1.25a1.1,1.1,0,0,0-1-1.23C55.69,26.15,55.35,26.75,55.35,27.41Z"/><path class="cls-9" d="M58.78,26.21h-1v-.33h2.39v.33h-1V28.9h-.42Z"/><path class="cls-9" d="M63.08,27.36A1.46,1.46,0,0,1,61.58,29a1.42,1.42,0,0,1-1.45-1.53,1.48,1.48,0,0,1,1.5-1.59A1.41,1.41,0,0,1,63.08,27.36Zm-2.51,0a1.1,1.1,0,0,0,1,1.22c.66,0,1-.57,1-1.25a1.1,1.1,0,0,0-1-1.23C60.92,26.15,60.57,26.75,60.57,27.41Z"/><path class="cls-9" d="M63.52,25.92a4.67,4.67,0,0,1,.8-.06,1.39,1.39,0,0,1,.94.25.73.73,0,0,1,.25.57.8.8,0,0,1-.61.77h0a.76.76,0,0,1,.48.61,4.55,4.55,0,0,0,.25.83h-.43a3.7,3.7,0,0,1-.22-.72c-.1-.42-.27-.57-.65-.59h-.39V28.9h-.42Zm.42,1.38h.43c.45,0,.73-.23.73-.57s-.3-.56-.74-.56a1.84,1.84,0,0,0-.41,0Z"/><path class="cls-9" d="M66.41,25.88v3H66v-3Z"/><path class="cls-9" d="M67.64,26.21h-1v-.33h2.39v.33h-1V28.9h-.42Z"/><path class="cls-9" d="M69.47,28l-.34.95H68.7l1.1-3h.5l1.1,3H71L70.62,28Zm1.06-.3-.32-.87c-.07-.2-.12-.38-.17-.55h0c0,.18-.1.36-.16.55l-.32.87Z"/><path class="cls-9" d="M71.72,28.43a1.56,1.56,0,0,0,.75.2c.43,0,.68-.21.68-.52s-.17-.44-.61-.6-.85-.43-.85-.86.42-.82,1-.82a1.55,1.55,0,0,1,.71.15l-.12.32a1.36,1.36,0,0,0-.61-.14c-.44,0-.61.25-.61.45s.2.42.64.58.82.44.82.89-.37.87-1.13.87a1.76,1.76,0,0,1-.83-.19Z"/><path class="cls-9" d="M55.75,30.12h.42v2c0,.8-.42,1-1,1a1.45,1.45,0,0,1-.45-.07l.06-.32a1.06,1.06,0,0,0,.35.06c.37,0,.59-.16.59-.75Z"/><path class="cls-9" d="M57.28,32.19l-.34.95h-.43l1.1-3h.5l1.1,3h-.45l-.35-.95Zm1.06-.3L58,31c-.07-.2-.12-.38-.17-.55h0c0,.18-.1.36-.16.55l-.32.87Z"/><path class="cls-9" d="M59.53,32.67a1.56,1.56,0,0,0,.75.2c.43,0,.68-.21.68-.52s-.17-.44-.61-.6-.85-.43-.85-.86.42-.82,1-.82a1.55,1.55,0,0,1,.71.15l-.12.32a1.36,1.36,0,0,0-.61-.14c-.44,0-.61.25-.61.45s.2.42.64.58.82.44.82.89-.37.87-1.13.87a1.76,1.76,0,0,1-.83-.19Z"/><path class="cls-9" d="M62.37,32.19l-.34.95H61.6l1.1-3h.5l1.1,3h-.45l-.35-.95Zm1.06-.3L63.11,31c-.07-.2-.12-.38-.17-.55h0c0,.18-.1.36-.16.55l-.32.87Z"/><path class="cls-9" d="M55.09,34.36h.42v1.46h0l.25-.32,1-1.13h.52l-1.17,1.28,1.26,1.74h-.49L55.82,35.9l-.31.33v1.15h-.42Z"/><path class="cls-9" d="M59.26,36H58v1.09h1.4v.33H57.58v-3h1.75v.33H58v1h1.26Z"/><path class="cls-9" d="M60.26,34.36v1.79c0,.68.32,1,.75,1s.79-.3.79-1V34.36h.42v1.76A1.14,1.14,0,0,1,61,37.43c-.66,0-1.16-.35-1.16-1.29V34.36Z"/><path class="cls-9" d="M63.19,36.43l-.34.95h-.43l1.1-3H64l1.1,3h-.45l-.35-.95Zm1.06-.3-.32-.87c-.07-.2-.12-.38-.17-.55h0c0,.18-.1.36-.16.55l-.32.87Z"/><path class="cls-9" d="M65.5,37.38v-3H66l1,1.53a8.42,8.42,0,0,1,.58,1h0c0-.4,0-.77,0-1.24V34.36h.39v3H67.5l-1-1.53a9.35,9.35,0,0,1-.6-1h0c0,.38,0,.74,0,1.25v1.29Z"/><path class="cls-9" d="M71,37.25a3.21,3.21,0,0,1-1,.17,1.73,1.73,0,0,1-1.21-.4,1.5,1.5,0,0,1-.45-1.12,1.57,1.57,0,0,1,1.75-1.56,2.11,2.11,0,0,1,.81.14l-.1.32a1.77,1.77,0,0,0-.71-.13,1.17,1.17,0,0,0-1.3,1.21A1.14,1.14,0,0,0,70,37.09,1.44,1.44,0,0,0,70.6,37v-.9h-.66V35.8H71Z"/><path class="cls-9" d="M72.06,36.43l-.34.95h-.43l1.1-3h.5l1.1,3h-.45l-.35-.95Zm1.06-.3-.32-.87c-.07-.2-.12-.38-.17-.55h0c0,.18-.1.36-.16.55l-.32.87Z"/><path class="cls-9" d="M74.37,37.38v-3h.46l1,1.53a8.42,8.42,0,0,1,.58,1h0c0-.4,0-.77,0-1.24V34.36h.39v3h-.42l-1-1.53a9.35,9.35,0,0,1-.6-1h0c0,.38,0,.74,0,1.25v1.29Z"/><path class="cls-10" d="M21.61,14.89,21,14h-.88v.86h-.41V12h1.11a1.32,1.32,0,0,1,.87.26A.9.9,0,0,1,22,13a1,1,0,0,1-.16.56.92.92,0,0,1-.46.34l.67,1Zm-.22-1.38a.65.65,0,0,0,0-.95.92.92,0,0,0-.59-.16h-.69v1.28h.69A.91.91,0,0,0,21.39,13.51Z"/><path class="cls-10" d="M24.54,13.94H22.79a.68.68,0,0,0,.25.46.81.81,0,0,0,.53.17.8.8,0,0,0,.62-.26l.22.25a.94.94,0,0,1-.36.26A1.37,1.37,0,0,1,23,14.77a1,1,0,0,1-.41-.39,1.12,1.12,0,0,1-.14-.57,1.14,1.14,0,0,1,.14-.56,1,1,0,0,1,.39-.39,1.1,1.1,0,0,1,.55-.14,1.08,1.08,0,0,1,.55.14,1,1,0,0,1,.38.39,1.19,1.19,0,0,1,.14.58A1.13,1.13,0,0,1,24.54,13.94ZM23,13.22a.69.69,0,0,0-.22.45h1.38a.69.69,0,0,0-.22-.44.73.73,0,0,0-.94,0Z"/><path class="cls-10" d="M27.14,12.74V14.6a1.11,1.11,0,0,1-.28.83,1.16,1.16,0,0,1-.84.27,2,2,0,0,1-.58-.08,1.14,1.14,0,0,1-.45-.24l.19-.3a1.1,1.1,0,0,0,.37.2,1.42,1.42,0,0,0,.46.07.77.77,0,0,0,.56-.18.73.73,0,0,0,.18-.54v-.17a.86.86,0,0,1-.34.25,1.13,1.13,0,0,1-.44.08,1.17,1.17,0,0,1-.56-.13A1,1,0,0,1,25,14.3a1.1,1.1,0,0,1,0-1.08,1,1,0,0,1,.39-.37,1.2,1.2,0,0,1,.56-.13,1.14,1.14,0,0,1,.45.09.84.84,0,0,1,.34.26v-.33Zm-.74,1.63a.66.66,0,0,0,.26-.25.7.7,0,0,0,.1-.36.66.66,0,0,0-.21-.5.83.83,0,0,0-1.07,0,.66.66,0,0,0-.21.5.7.7,0,0,0,.1.36.66.66,0,0,0,.26.25.8.8,0,0,0,.38.09A.79.79,0,0,0,26.4,14.37Z"/><path class="cls-10" d="M27.89,12.25a.24.24,0,0,1-.08-.18.25.25,0,0,1,.08-.18.26.26,0,0,1,.19-.07.27.27,0,0,1,.19.07.23.23,0,0,1,.07.18.25.25,0,0,1-.07.18.26.26,0,0,1-.19.08A.26.26,0,0,1,27.89,12.25Zm0,.49h.39v2.15h-.39Z"/><path class="cls-10" d="M29.13,14.84a1.11,1.11,0,0,1-.38-.18l.16-.31a1.17,1.17,0,0,0,.34.16,1.43,1.43,0,0,0,.41.06q.51,0,.51-.29a.19.19,0,0,0-.07-.15.43.43,0,0,0-.17-.08L29.64,14a2.89,2.89,0,0,1-.42-.09.65.65,0,0,1-.28-.18.49.49,0,0,1-.12-.35.55.55,0,0,1,.24-.47,1.09,1.09,0,0,1,.65-.18,1.81,1.81,0,0,1,.43.05,1.15,1.15,0,0,1,.35.14l-.17.31a1.12,1.12,0,0,0-.62-.17.72.72,0,0,0-.38.08.24.24,0,0,0-.13.22.21.21,0,0,0,.07.17.46.46,0,0,0,.18.09l.3.06.42.1a.63.63,0,0,1,.27.17.48.48,0,0,1,.11.34.54.54,0,0,1-.25.46,1.17,1.17,0,0,1-.68.17A1.81,1.81,0,0,1,29.13,14.84Z"/><path class="cls-10" d="M32.26,14.76a.57.57,0,0,1-.21.11.89.89,0,0,1-.26,0,.69.69,0,0,1-.5-.17.67.67,0,0,1-.18-.5V13.06h-.37v-.32h.37v-.47h.39v.47h.62v.32H31.5v1.16a.38.38,0,0,0,.09.27.32.32,0,0,0,.25.09.47.47,0,0,0,.3-.1Z"/><path class="cls-10" d="M34.59,13.94H32.85a.68.68,0,0,0,.25.46.81.81,0,0,0,.53.17.8.8,0,0,0,.62-.26l.22.25a1,1,0,0,1-.36.26A1.37,1.37,0,0,1,33,14.77a1,1,0,0,1-.41-.39,1.12,1.12,0,0,1-.14-.57,1.14,1.14,0,0,1,.14-.56,1,1,0,0,1,.39-.39,1.1,1.1,0,0,1,.55-.14,1.08,1.08,0,0,1,.55.14,1,1,0,0,1,.38.39,1.19,1.19,0,0,1,.14.58A1.06,1.06,0,0,1,34.59,13.94Zm-1.52-.73a.69.69,0,0,0-.22.45h1.38a.69.69,0,0,0-.22-.44.73.73,0,0,0-.94,0Z"/><path class="cls-10" d="M35.81,12.82a1.09,1.09,0,0,1,.48-.1v.38h-.09a.66.66,0,0,0-.5.19.75.75,0,0,0-.18.54v1.07h-.39V12.74h.37v.36A.66.66,0,0,1,35.81,12.82Z"/><path class="cls-10" d="M38.69,13.94H36.94a.68.68,0,0,0,.25.46.81.81,0,0,0,.53.17.8.8,0,0,0,.62-.26l.22.25a1,1,0,0,1-.36.26,1.37,1.37,0,0,1-1.09-.05,1,1,0,0,1-.41-.39,1.12,1.12,0,0,1-.14-.57,1.14,1.14,0,0,1,.14-.56,1,1,0,0,1,.39-.39,1.1,1.1,0,0,1,.55-.14,1.08,1.08,0,0,1,.55.14,1,1,0,0,1,.38.39,1.19,1.19,0,0,1,.14.58A1.06,1.06,0,0,1,38.69,13.94Zm-1.52-.73a.69.69,0,0,0-.22.45h1.38a.69.69,0,0,0-.22-.44.73.73,0,0,0-.94,0Z"/><path class="cls-10" d="M41.26,11.88v3h-.37v-.34a.85.85,0,0,1-.33.27,1,1,0,0,1-.44.09,1.13,1.13,0,0,1-.56-.14,1,1,0,0,1-.39-.39,1.15,1.15,0,0,1-.14-.57,1.14,1.14,0,0,1,.14-.57,1,1,0,0,1,.39-.39,1.13,1.13,0,0,1,.56-.14,1,1,0,0,1,.43.09.83.83,0,0,1,.32.26V11.88Zm-.74,2.6a.66.66,0,0,0,.26-.27.88.88,0,0,0,0-.79.66.66,0,0,0-.26-.27.78.78,0,0,0-.74,0,.67.67,0,0,0-.26.27.86.86,0,0,0,0,.79.68.68,0,0,0,.26.27.76.76,0,0,0,.74,0Z"/><path class="cls-10" d="M44.56,12.94a.85.85,0,0,1,.24.65v1.3h-.37v-.28a.62.62,0,0,1-.28.23,1.06,1.06,0,0,1-.43.08.9.9,0,0,1-.58-.17.6.6,0,0,1,0-.92,1,1,0,0,1,.66-.17h.62v-.08a.5.5,0,0,0-.15-.39.62.62,0,0,0-.43-.13,1.14,1.14,0,0,0-.37.06,1,1,0,0,0-.31.17L43,13a1.17,1.17,0,0,1,.4-.2,1.66,1.66,0,0,1,.49-.07A1,1,0,0,1,44.56,12.94Zm-.39,1.58a.57.57,0,0,0,.24-.28v-.3h-.6q-.49,0-.5.33a.3.3,0,0,0,.13.26.57.57,0,0,0,.35.09A.72.72,0,0,0,44.17,14.51Z"/><path class="cls-10" d="M47.32,13a.93.93,0,0,1,.24.7v1.24h-.39V13.7a.66.66,0,0,0-.15-.47.56.56,0,0,0-.43-.16.67.67,0,0,0-.5.18.72.72,0,0,0-.18.53v1.11h-.39V12.74h.37v.32a.76.76,0,0,1,.32-.26,1.12,1.12,0,0,1,.46-.09A.89.89,0,0,1,47.32,13Z"/><path class="cls-10" d="M50.32,11.88v3H50v-.34a.85.85,0,0,1-.33.27,1,1,0,0,1-.44.09,1.13,1.13,0,0,1-.56-.14,1,1,0,0,1-.39-.39,1.15,1.15,0,0,1-.14-.57,1.14,1.14,0,0,1,.14-.57,1,1,0,0,1,.39-.39,1.13,1.13,0,0,1,.56-.14,1,1,0,0,1,.43.09.83.83,0,0,1,.32.26V11.88Zm-.74,2.6a.66.66,0,0,0,.26-.27.88.88,0,0,0,0-.79.66.66,0,0,0-.26-.27.78.78,0,0,0-.74,0,.67.67,0,0,0-.26.27.86.86,0,0,0,0,.79.68.68,0,0,0,.26.27.76.76,0,0,0,.74,0Z"/><path class="cls-10" d="M52.26,14.84a1.11,1.11,0,0,1-.38-.18l.16-.31a1.17,1.17,0,0,0,.34.16,1.43,1.43,0,0,0,.41.06q.51,0,.51-.29a.19.19,0,0,0-.07-.15.43.43,0,0,0-.17-.08L52.77,14a2.89,2.89,0,0,1-.42-.09.65.65,0,0,1-.28-.18.49.49,0,0,1-.12-.35.55.55,0,0,1,.24-.47,1.09,1.09,0,0,1,.65-.18,1.81,1.81,0,0,1,.43.05,1.15,1.15,0,0,1,.35.14l-.17.31a1.12,1.12,0,0,0-.62-.17.72.72,0,0,0-.38.08.24.24,0,0,0-.13.22.21.21,0,0,0,.07.17.46.46,0,0,0,.18.09l.3.06.42.1a.63.63,0,0,1,.27.17.48.48,0,0,1,.11.34.54.54,0,0,1-.25.46,1.17,1.17,0,0,1-.68.17A1.81,1.81,0,0,1,52.26,14.84Z"/><path class="cls-10" d="M56.19,12.74v2.15h-.37v-.32a.79.79,0,0,1-.31.26,1,1,0,0,1-.42.09.94.94,0,0,1-.68-.24.93.93,0,0,1-.25-.7V12.74h.39v1.19a.67.67,0,0,0,.15.47.56.56,0,0,0,.43.16.64.64,0,0,0,.49-.19.73.73,0,0,0,.18-.53V12.74Z"/><path class="cls-10" d="M58.63,12.86a1,1,0,0,1,.39.39,1.14,1.14,0,0,1,.14.57,1.15,1.15,0,0,1-.14.57,1,1,0,0,1-.39.39,1.13,1.13,0,0,1-.56.14,1,1,0,0,1-.42-.09.89.89,0,0,1-.33-.26v1.11h-.39V12.74h.37v.34a.83.83,0,0,1,.33-.27,1,1,0,0,1,.44-.09A1.13,1.13,0,0,1,58.63,12.86Zm-.22,1.62a.68.68,0,0,0,.26-.27.87.87,0,0,0,0-.79.68.68,0,0,0-.26-.27.74.74,0,0,0-.37-.09.72.72,0,0,0-.37.1.69.69,0,0,0-.26.27.79.79,0,0,0-.1.39.82.82,0,0,0,.09.4.66.66,0,0,0,.26.27.76.76,0,0,0,.74,0Z"/><path class="cls-10" d="M61.64,13.94H59.89a.68.68,0,0,0,.25.46.81.81,0,0,0,.53.17.8.8,0,0,0,.62-.26l.22.25a1,1,0,0,1-.36.26,1.37,1.37,0,0,1-1.09-.05,1,1,0,0,1-.41-.39,1.12,1.12,0,0,1-.14-.57,1.14,1.14,0,0,1,.14-.56,1,1,0,0,1,.39-.39,1.1,1.1,0,0,1,.55-.14,1.08,1.08,0,0,1,.55.14,1,1,0,0,1,.38.39,1.19,1.19,0,0,1,.14.58A1.06,1.06,0,0,1,61.64,13.94Zm-1.52-.73a.69.69,0,0,0-.22.45h1.38a.69.69,0,0,0-.22-.44.73.73,0,0,0-.94,0Z"/><path class="cls-10" d="M62.86,12.82a1.09,1.09,0,0,1,.48-.1v.38h-.09a.66.66,0,0,0-.5.19.75.75,0,0,0-.18.54v1.07h-.39V12.74h.37v.36A.66.66,0,0,1,62.86,12.82Z"/><path class="cls-10" d="M65.81,12.74l-.94,2.15h-.4l-.94-2.15h.41l.74,1.72.75-1.72Z"/><path class="cls-10" d="M66.18,12.25a.24.24,0,0,1-.08-.18.25.25,0,0,1,.08-.18.26.26,0,0,1,.19-.07.27.27,0,0,1,.19.07.23.23,0,0,1,.07.18.25.25,0,0,1-.07.18.26.26,0,0,1-.19.08A.26.26,0,0,1,66.18,12.25Zm0,.49h.39v2.15h-.39Z"/><path class="cls-10" d="M67.42,14.84a1.11,1.11,0,0,1-.38-.18l.16-.31a1.17,1.17,0,0,0,.34.16,1.43,1.43,0,0,0,.41.06q.51,0,.51-.29a.19.19,0,0,0-.07-.15.43.43,0,0,0-.17-.08L67.93,14a2.89,2.89,0,0,1-.42-.09.65.65,0,0,1-.28-.18.49.49,0,0,1-.12-.35.55.55,0,0,1,.24-.47,1.09,1.09,0,0,1,.65-.18,1.81,1.81,0,0,1,.43.05,1.15,1.15,0,0,1,.35.14l-.17.31a1.12,1.12,0,0,0-.62-.17.72.72,0,0,0-.38.08.24.24,0,0,0-.13.22.21.21,0,0,0,.07.17.46.46,0,0,0,.18.09l.3.06.42.1a.63.63,0,0,1,.27.17.48.48,0,0,1,.11.34.54.54,0,0,1-.25.46,1.17,1.17,0,0,1-.68.17A1.81,1.81,0,0,1,67.42,14.84Z"/><path class="cls-10" d="M71.27,13.94H69.53a.68.68,0,0,0,.25.46.81.81,0,0,0,.53.17.8.8,0,0,0,.62-.26l.22.25a1,1,0,0,1-.36.26,1.37,1.37,0,0,1-1.09-.05,1,1,0,0,1-.41-.39,1.12,1.12,0,0,1-.14-.57,1.14,1.14,0,0,1,.14-.56,1,1,0,0,1,.39-.39,1.1,1.1,0,0,1,.55-.14,1.08,1.08,0,0,1,.55.14,1,1,0,0,1,.38.39,1.19,1.19,0,0,1,.14.58A1.06,1.06,0,0,1,71.27,13.94Zm-1.52-.73a.69.69,0,0,0-.22.45h1.38a.69.69,0,0,0-.22-.44.73.73,0,0,0-.94,0Z"/><path class="cls-10" d="M73.85,11.88v3h-.37v-.34a.85.85,0,0,1-.33.27,1,1,0,0,1-.44.09,1.13,1.13,0,0,1-.56-.14,1,1,0,0,1-.39-.39,1.15,1.15,0,0,1-.14-.57,1.14,1.14,0,0,1,.14-.57,1,1,0,0,1,.39-.39,1.13,1.13,0,0,1,.56-.14,1,1,0,0,1,.43.09.83.83,0,0,1,.32.26V11.88Zm-.74,2.6a.66.66,0,0,0,.26-.27.88.88,0,0,0,0-.79.66.66,0,0,0-.26-.27.78.78,0,0,0-.74,0,.67.67,0,0,0-.26.27.86.86,0,0,0,0,.79.68.68,0,0,0,.26.27.76.76,0,0,0,.74,0Z"/><path class="cls-10" d="M77.38,12.86a1,1,0,0,1,.39.39,1.14,1.14,0,0,1,.14.57,1.15,1.15,0,0,1-.14.57,1,1,0,0,1-.39.39,1.13,1.13,0,0,1-.56.14,1,1,0,0,1-.44-.09.84.84,0,0,1-.33-.27v.34h-.37v-3h.39v1.18a.83.83,0,0,1,.32-.26,1,1,0,0,1,.43-.09A1.13,1.13,0,0,1,77.38,12.86Zm-.22,1.62a.68.68,0,0,0,.26-.27.87.87,0,0,0,0-.79.68.68,0,0,0-.26-.27.78.78,0,0,0-.74,0,.66.66,0,0,0-.26.27.88.88,0,0,0,0,.79.66.66,0,0,0,.26.27.76.76,0,0,0,.74,0Z"/><path class="cls-10" d="M80.29,12.74l-1,2.37a1.07,1.07,0,0,1-.32.46.73.73,0,0,1-.44.13.93.93,0,0,1-.31-.05.63.63,0,0,1-.25-.15l.17-.29a.54.54,0,0,0,.39.16.37.37,0,0,0,.24-.08.64.64,0,0,0,.17-.26l.07-.15L78,12.74h.41l.75,1.72.74-1.72Z"/></svg>