<svg id="Layer_1" data-name="Layer 1" xmlns="http://www.w3.org/2000/svg" xmlns:xlink="http://www.w3.org/1999/xlink" viewBox="0 0 100 50"><defs><style>.cls-1{fill:#fff;}.cls-2{fill:url(#radial-gradient);}.cls-3{fill:url(#radial-gradient-2);}.cls-4{fill:#313132;opacity:0.5;}.cls-5{fill:none;}.cls-6{fill:url(#linear-gradient);}.cls-7{fill:url(#linear-gradient-2);}.cls-8{fill:#8c0000;}.cls-9{fill:#646464;}.cls-10{fill:#5e5e5e;}</style><radialGradient id="radial-gradient" cx="35.31" cy="31.11" r="10.22" gradientTransform="translate(0.36) scale(1.07 1)" gradientUnits="userSpaceOnUse"><stop offset="0" stop-color="#d60015"/><stop offset="0.01" stop-color="#d50015"/><stop offset="0.27" stop-color="#b60917"/><stop offset="0.53" stop-color="#a01019"/><stop offset="0.78" stop-color="#93141a"/><stop offset="1" stop-color="#8e151a"/></radialGradient><radialGradient id="radial-gradient-2" cx="38.17" cy="31.11" r="10.25" gradientTransform="matrix(1, 0, 0, 1, 0, 0)" xlink:href="#radial-gradient"/><linearGradient id="linear-gradient" x1="42.1" y1="20.3" x2="23.58" y2="27.04" gradientUnits="userSpaceOnUse"><stop offset="0" stop-color="#e78b62"/><stop offset="0.02" stop-color="#dc684e"/><stop offset="0.05" stop-color="#d24c3d"/><stop offset="0.08" stop-color="#cb3630"/><stop offset="0.11" stop-color="#c62627"/><stop offset="0.14" stop-color="#c31d22"/><stop offset="0.19" stop-color="#c21a20"/><stop offset="0.25" stop-color="#d04239"/><stop offset="0.33" stop-color="#e17157"/><stop offset="0.37" stop-color="#e78362"/><stop offset="0.39" stop-color="#e57a5c"/><stop offset="0.5" stop-color="#dd5a46"/><stop offset="0.61" stop-color="#d64235"/><stop offset="0.73" stop-color="#d23029"/><stop offset="0.85" stop-color="#cf2522"/><stop offset="1" stop-color="#ce2220"/></linearGradient><linearGradient id="linear-gradient-2" x1="17.56" y1="31.73" x2="45.86" y2="21.43" gradientUnits="userSpaceOnUse"><stop offset="0" stop-color="#878787"/><stop offset="0.09" stop-color="#959595"/><stop offset="0.27" stop-color="#bababa"/><stop offset="0.51" stop-color="#f6f6f6"/><stop offset="0.55" stop-color="#fff"/><stop offset="0.57" stop-color="#f5f5f5"/><stop offset="0.64" stop-color="#d9d9d9"/><stop offset="0.69" stop-color="#c8c8c8"/><stop offset="0.74" stop-color="#c2c2c2"/><stop offset="0.79" stop-color="#cfcfcf"/><stop offset="0.9" stop-color="#f2f2f2"/><stop offset="0.93" stop-color="#fff"/><stop offset="0.97" stop-color="#f3f3f3"/><stop offset="1" stop-color="#e0e0e0"/></linearGradient></defs><title>OJK_Indonesia_2</title><rect class="cls-1" x="15.62" y="7.81" width="68.76" height="34.38" rx="3.44" ry="3.44"/><path class="cls-2" d="M37.05,25.45v8.78c0,.73-.26,1.53-1.1,1.53-.39,0-.55-.09-.64-.24a6.65,6.65,0,0,0,1.12-3.71A6.75,6.75,0,0,0,36,29.48c0-.12-.09-.24-.15-.36a5.73,5.73,0,0,0-5.19-3.6,6,6,0,0,0-5.75,6.29,6,6,0,0,0,5.75,6.29,5.33,5.33,0,0,0,2.72-.75,4,4,0,0,0,2.35.76,4.17,4.17,0,0,0,4-3.26h0v-9.4Zm-5,10.16a3,3,0,0,1-1.41.36c-1.91,0-3.46-1.88-3.46-4.19s1.55-4.19,3.46-4.19a3.5,3.5,0,0,1,3.16,2.49,4.92,4.92,0,0,1,.3,1.7A4.3,4.3,0,0,1,32.08,35.61Z"/><polygon class="cls-3" points="40.55 30.26 40.55 34.07 42.2 32.53 45.97 38.14 49.7 38.14 44.4 30.14 48.97 25.27 44.81 25.27 40.55 30.26"/><path class="cls-4" d="M49.11,25.39a12.75,12.75,0,0,1-2.59,0,.9.9,0,0,1-.17,0c-4.13-1.21-5.21-3.25-8-5a14.42,14.42,0,0,0-15.11,1A10.42,10.42,0,0,1,26,24.76c1.32,2.39.65,3.9.65,3.9s3.65-3.81,7.9-4c3.58-.13,7.74,1.26,11,1.62a12.11,12.11,0,0,0,1.73.08c3.46-.13,4.79-2.11,4.79-2.11A5,5,0,0,1,49.11,25.39Z"/><path class="cls-5" d="M25.91,24.53c.17-.2.34-.37.51-.55C26.25,24.15,26.08,24.33,25.91,24.53Z"/><path class="cls-6" d="M35.82,22c5.07,1.35,6.19,3.3,10.31,3.27a5.42,5.42,0,0,0-.79-.4c-1.91-.36-3.14-2.3-7-4.51a13.62,13.62,0,0,0-15.1,1,.07.07,0,0,0,0,.11,9,9,0,0,1,2.63,3c.17-.2.34-.38.51-.55C29.71,20.58,32.85,21.23,35.82,22Z"/><path class="cls-7" d="M49.53,25a8.35,8.35,0,0,1-2.6.14c-4.11-.3-7-2.25-10.79-3.48A8.78,8.78,0,0,0,26.41,24c-.17.17-.34.35-.51.55l.05.1a5.6,5.6,0,0,1,.87,3.57s3.62-3.6,7.84-3.75c3.56-.13,7.7,1.19,11,1.54a12.36,12.36,0,0,0,1.72.08c3.44-.12,4.82-1.92,4.82-1.92S51.74,24.58,49.53,25Z"/><rect class="cls-8" x="52.33" y="25.29" width="0.39" height="12.69"/><path class="cls-9" d="M57.85,27.36A1.46,1.46,0,0,1,56.35,29a1.42,1.42,0,0,1-1.45-1.53,1.48,1.48,0,0,1,1.5-1.59A1.41,1.41,0,0,1,57.85,27.36Zm-2.51,0a1.1,1.1,0,0,0,1,1.22c.66,0,1-.57,1-1.25a1.1,1.1,0,0,0-1-1.23C55.69,26.15,55.35,26.75,55.35,27.41Z"/><path class="cls-9" d="M58.78,26.21h-1v-.33h2.39v.33h-1V28.9h-.42Z"/><path class="cls-9" d="M63.08,27.36A1.46,1.46,0,0,1,61.58,29a1.42,1.42,0,0,1-1.45-1.53,1.48,1.48,0,0,1,1.5-1.59A1.41,1.41,0,0,1,63.08,27.36Zm-2.51,0a1.1,1.1,0,0,0,1,1.22c.66,0,1-.57,1-1.25a1.1,1.1,0,0,0-1-1.23C60.92,26.15,60.57,26.75,60.57,27.41Z"/><path class="cls-9" d="M63.52,25.92a4.67,4.67,0,0,1,.8-.06,1.39,1.39,0,0,1,.94.25.73.73,0,0,1,.25.57.8.8,0,0,1-.61.77h0a.76.76,0,0,1,.48.61,4.55,4.55,0,0,0,.25.83h-.43a3.7,3.7,0,0,1-.22-.72c-.1-.42-.27-.57-.65-.59h-.39V28.9h-.42Zm.42,1.38h.43c.45,0,.73-.23.73-.57s-.3-.56-.74-.56a1.84,1.84,0,0,0-.41,0Z"/><path class="cls-9" d="M66.41,25.88v3H66v-3Z"/><path class="cls-9" d="M67.64,26.21h-1v-.33h2.39v.33h-1V28.9h-.42Z"/><path class="cls-9" d="M69.47,28l-.34.95H68.7l1.1-3h.5l1.1,3H71L70.62,28Zm1.06-.3-.32-.87c-.07-.2-.12-.38-.17-.55h0c0,.18-.1.36-.16.55l-.32.87Z"/><path class="cls-9" d="M71.72,28.43a1.56,1.56,0,0,0,.75.2c.43,0,.68-.21.68-.52s-.17-.44-.61-.6-.85-.43-.85-.86.42-.82,1-.82a1.55,1.55,0,0,1,.71.15l-.12.32a1.36,1.36,0,0,0-.61-.14c-.44,0-.61.25-.61.45s.2.42.64.58.82.44.82.89-.37.87-1.13.87a1.76,1.76,0,0,1-.83-.19Z"/><path class="cls-9" d="M55.75,30.12h.42v2c0,.8-.42,1-1,1a1.45,1.45,0,0,1-.45-.07l.06-.32a1.06,1.06,0,0,0,.35.06c.37,0,.59-.16.59-.75Z"/><path class="cls-9" d="M57.28,32.19l-.34.95h-.43l1.1-3h.5l1.1,3h-.45l-.35-.95Zm1.06-.3L58,31c-.07-.2-.12-.38-.17-.55h0c0,.18-.1.36-.16.55l-.32.87Z"/><path class="cls-9" d="M59.53,32.67a1.56,1.56,0,0,0,.75.2c.43,0,.68-.21.68-.52s-.17-.44-.61-.6-.85-.43-.85-.86.42-.82,1-.82a1.55,1.55,0,0,1,.71.15l-.12.32a1.36,1.36,0,0,0-.61-.14c-.44,0-.61.25-.61.45s.2.42.64.58.82.44.82.89-.37.87-1.13.87a1.76,1.76,0,0,1-.83-.19Z"/><path class="cls-9" d="M62.37,32.19l-.34.95H61.6l1.1-3h.5l1.1,3h-.45l-.35-.95Zm1.06-.3L63.11,31c-.07-.2-.12-.38-.17-.55h0c0,.18-.1.36-.16.55l-.32.87Z"/><path class="cls-9" d="M55.09,34.36h.42v1.46h0l.25-.32,1-1.13h.52l-1.17,1.28,1.26,1.74h-.49L55.82,35.9l-.31.33v1.15h-.42Z"/><path class="cls-9" d="M59.26,36H58v1.09h1.4v.33H57.58v-3h1.75v.33H58v1h1.26Z"/><path class="cls-9" d="M60.26,34.36v1.79c0,.68.32,1,.75,1s.79-.3.79-1V34.36h.42v1.76A1.14,1.14,0,0,1,61,37.43c-.66,0-1.16-.35-1.16-1.29V34.36Z"/><path class="cls-9" d="M63.19,36.43l-.34.95h-.43l1.1-3H64l1.1,3h-.45l-.35-.95Zm1.06-.3-.32-.87c-.07-.2-.12-.38-.17-.55h0c0,.18-.1.36-.16.55l-.32.87Z"/><path class="cls-9" d="M65.5,37.38v-3H66l1,1.53a8.42,8.42,0,0,1,.58,1h0c0-.4,0-.77,0-1.24V34.36h.39v3H67.5l-1-1.53a9.35,9.35,0,0,1-.6-1h0c0,.38,0,.74,0,1.25v1.29Z"/><path class="cls-9" d="M71,37.25a3.21,3.21,0,0,1-1,.17,1.73,1.73,0,0,1-1.21-.4,1.5,1.5,0,0,1-.45-1.12,1.57,1.57,0,0,1,1.75-1.56,2.11,2.11,0,0,1,.81.14l-.1.32a1.77,1.77,0,0,0-.71-.13,1.17,1.17,0,0,0-1.3,1.21A1.14,1.14,0,0,0,70,37.09,1.44,1.44,0,0,0,70.6,37v-.9h-.66V35.8H71Z"/><path class="cls-9" d="M72.06,36.43l-.34.95h-.43l1.1-3h.5l1.1,3h-.45l-.35-.95Zm1.06-.3-.32-.87c-.07-.2-.12-.38-.17-.55h0c0,.18-.1.36-.16.55l-.32.87Z"/><path class="cls-9" d="M74.37,37.38v-3h.46l1,1.53a8.42,8.42,0,0,1,.58,1h0c0-.4,0-.77,0-1.24V34.36h.39v3h-.42l-1-1.53a9.35,9.35,0,0,1-.6-1h0c0,.38,0,.74,0,1.25v1.29Z"/><path class="cls-10" d="M22.13,12.48h-1v-.38H23.6v.38h-1v2.67h-.43Z"/><path class="cls-10" d="M25.85,14.14H24a.72.72,0,0,0,.27.49.87.87,0,0,0,.57.19.86.86,0,0,0,.67-.28l.23.27a1,1,0,0,1-.39.28A1.47,1.47,0,0,1,24.16,15a1.07,1.07,0,0,1-.44-.42,1.2,1.2,0,0,1-.15-.61,1.22,1.22,0,0,1,.15-.6,1.08,1.08,0,0,1,.41-.42,1.18,1.18,0,0,1,.59-.15,1.16,1.16,0,0,1,.59.15,1.06,1.06,0,0,1,.4.42,1.28,1.28,0,0,1,.15.62A1.14,1.14,0,0,1,25.85,14.14Zm-1.63-.78a.74.74,0,0,0-.24.48h1.48a.74.74,0,0,0-.24-.48.78.78,0,0,0-1,0Z"/><path class="cls-10" d="M27.16,12.93a1.17,1.17,0,0,1,.52-.1v.4h-.1a.7.7,0,0,0-.53.2.8.8,0,0,0-.19.58v1.15h-.42V12.85h.4v.39A.71.71,0,0,1,27.16,12.93Z"/><path class="cls-10" d="M30.35,11.92v3.23h-.4v-.37a.91.91,0,0,1-.35.29,1.09,1.09,0,0,1-.47.1,1.21,1.21,0,0,1-.6-.15,1.06,1.06,0,0,1-.42-.42A1.24,1.24,0,0,1,28,14a1.22,1.22,0,0,1,.15-.61,1.06,1.06,0,0,1,.42-.41,1.21,1.21,0,0,1,.6-.15,1.12,1.12,0,0,1,.46.09.89.89,0,0,1,.35.28V11.92Zm-.79,2.79a.71.71,0,0,0,.28-.29.95.95,0,0,0,0-.85.7.7,0,0,0-.28-.29.84.84,0,0,0-.79,0,.72.72,0,0,0-.28.29.93.93,0,0,0,0,.85.73.73,0,0,0,.28.29.82.82,0,0,0,.79,0Z"/><path class="cls-10" d="M32.72,13.06a.91.91,0,0,1,.25.7v1.39h-.4v-.3a.66.66,0,0,1-.3.25,1.14,1.14,0,0,1-.46.08A1,1,0,0,1,31.2,15a.64.64,0,0,1,0-1,1.09,1.09,0,0,1,.7-.18h.66v-.08a.53.53,0,0,0-.16-.41.66.66,0,0,0-.46-.14,1.22,1.22,0,0,0-.4.07,1,1,0,0,0-.33.18L31,13.12a1.25,1.25,0,0,1,.43-.22,1.78,1.78,0,0,1,.53-.08A1,1,0,0,1,32.72,13.06Zm-.42,1.69a.61.61,0,0,0,.25-.3v-.32h-.64q-.53,0-.53.36a.32.32,0,0,0,.14.27.62.62,0,0,0,.37.1A.78.78,0,0,0,32.3,14.75Z"/><path class="cls-10" d="M34.21,12.65v.2h.67v.34h-.66v2h-.42v-2h-.39v-.34h.39v-.2a.74.74,0,0,1,.2-.54.76.76,0,0,1,.56-.2.93.93,0,0,1,.26,0A.62.62,0,0,1,35,12l-.13.32a.52.52,0,0,0-.32-.11Q34.21,12.24,34.21,12.65Z"/><path class="cls-10" d="M36.58,15a.62.62,0,0,1-.23.12,1,1,0,0,1-.28,0,.74.74,0,0,1-.54-.19.72.72,0,0,1-.19-.54V13.19h-.39v-.34h.39v-.51h.42v.51h.66v.34h-.66v1.25a.41.41,0,0,0,.09.29.35.35,0,0,0,.27.1.5.5,0,0,0,.33-.11Z"/><path class="cls-10" d="M38.65,13.06a.91.91,0,0,1,.25.7v1.39h-.4v-.3a.66.66,0,0,1-.3.25,1.14,1.14,0,0,1-.46.08,1,1,0,0,1-.62-.19.64.64,0,0,1,0-1,1.09,1.09,0,0,1,.7-.18h.66v-.08a.53.53,0,0,0-.16-.41.66.66,0,0,0-.46-.14,1.22,1.22,0,0,0-.4.07,1,1,0,0,0-.33.18L37,13.12a1.25,1.25,0,0,1,.43-.22,1.78,1.78,0,0,1,.53-.08A1,1,0,0,1,38.65,13.06Zm-.42,1.69a.61.61,0,0,0,.25-.3v-.32h-.64q-.53,0-.53.36a.32.32,0,0,0,.14.27.62.62,0,0,0,.37.1A.78.78,0,0,0,38.24,14.75Z"/><path class="cls-10" d="M40.41,12.93a1.17,1.17,0,0,1,.52-.1v.4h-.1a.7.7,0,0,0-.53.2.8.8,0,0,0-.19.58v1.15h-.42V12.85h.4v.39A.71.71,0,0,1,40.41,12.93Z"/><path class="cls-10" d="M44.81,11.92v3.23h-.4v-.37a.91.91,0,0,1-.35.29,1.09,1.09,0,0,1-.47.1A1.21,1.21,0,0,1,43,15a1.06,1.06,0,0,1-.42-.42,1.24,1.24,0,0,1-.15-.62,1.22,1.22,0,0,1,.15-.61A1.06,1.06,0,0,1,43,13a1.21,1.21,0,0,1,.6-.15,1.12,1.12,0,0,1,.46.09.89.89,0,0,1,.35.28V11.92ZM44,14.71a.71.71,0,0,0,.28-.29.95.95,0,0,0,0-.85.7.7,0,0,0-.28-.29.84.84,0,0,0-.79,0,.72.72,0,0,0-.28.29.93.93,0,0,0,0,.85.73.73,0,0,0,.28.29.82.82,0,0,0,.79,0Z"/><path class="cls-10" d="M47.18,13.06a.91.91,0,0,1,.25.7v1.39H47v-.3a.66.66,0,0,1-.3.25,1.14,1.14,0,0,1-.46.08,1,1,0,0,1-.62-.19.64.64,0,0,1,0-1,1.09,1.09,0,0,1,.7-.18H47v-.08a.53.53,0,0,0-.16-.41.66.66,0,0,0-.46-.14,1.22,1.22,0,0,0-.4.07,1,1,0,0,0-.33.18l-.17-.31a1.25,1.25,0,0,1,.43-.22,1.78,1.78,0,0,1,.53-.08A1,1,0,0,1,47.18,13.06Zm-.42,1.69a.61.61,0,0,0,.25-.3v-.32h-.64q-.53,0-.53.36a.32.32,0,0,0,.14.27.62.62,0,0,0,.37.1A.78.78,0,0,0,46.76,14.75Z"/><path class="cls-10" d="M50.14,13.08a1,1,0,0,1,.26.75v1.33H50V13.87a.71.71,0,0,0-.16-.51.6.6,0,0,0-.46-.17.72.72,0,0,0-.54.2.77.77,0,0,0-.2.57v1.19h-.42V12.85h.4v.35a.81.81,0,0,1,.34-.27,1.2,1.2,0,0,1,.49-.1A1,1,0,0,1,50.14,13.08Z"/><path class="cls-10" d="M54.52,11.92v3.23h-.4v-.37a.91.91,0,0,1-.35.29,1.09,1.09,0,0,1-.47.1,1.21,1.21,0,0,1-.6-.15,1.06,1.06,0,0,1-.42-.42,1.24,1.24,0,0,1-.15-.62,1.22,1.22,0,0,1,.15-.61,1.06,1.06,0,0,1,.42-.41,1.21,1.21,0,0,1,.6-.15,1.12,1.12,0,0,1,.46.09.89.89,0,0,1,.35.28V11.92Zm-.79,2.79a.71.71,0,0,0,.28-.29.95.95,0,0,0,0-.85.7.7,0,0,0-.28-.29.84.84,0,0,0-.79,0,.72.72,0,0,0-.28.29.93.93,0,0,0,0,.85.73.73,0,0,0,.28.29.82.82,0,0,0,.79,0Z"/><path class="cls-10" d="M55.32,12.32a.26.26,0,0,1-.08-.19.27.27,0,0,1,.08-.19.28.28,0,0,1,.2-.08.29.29,0,0,1,.2.08.25.25,0,0,1,.08.19.27.27,0,0,1-.08.2.27.27,0,0,1-.2.08A.28.28,0,0,1,55.32,12.32Zm0,.52h.42v2.31h-.42Z"/><path class="cls-10" d="M58.1,13.06a.91.91,0,0,1,.25.7v1.39H58v-.3a.66.66,0,0,1-.3.25,1.14,1.14,0,0,1-.46.08,1,1,0,0,1-.62-.19.64.64,0,0,1,0-1,1.09,1.09,0,0,1,.7-.18h.66v-.08a.53.53,0,0,0-.16-.41.66.66,0,0,0-.46-.14,1.22,1.22,0,0,0-.4.07,1,1,0,0,0-.33.18l-.17-.31a1.25,1.25,0,0,1,.43-.22,1.78,1.78,0,0,1,.53-.08A1,1,0,0,1,58.1,13.06Zm-.42,1.69a.61.61,0,0,0,.25-.3v-.32h-.64q-.53,0-.53.36a.32.32,0,0,0,.14.27.62.62,0,0,0,.37.1A.78.78,0,0,0,57.68,14.75Z"/><path class="cls-10" d="M62.57,12.85l-.86,2.31h-.4l-.67-1.75L60,15.15h-.4l-.86-2.31h.4l.67,1.84.7-1.84h.35l.68,1.84.69-1.84Z"/><path class="cls-10" d="M64.49,13.06a.91.91,0,0,1,.25.7v1.39h-.4v-.3a.66.66,0,0,1-.3.25,1.14,1.14,0,0,1-.46.08A1,1,0,0,1,63,15a.64.64,0,0,1,0-1,1.09,1.09,0,0,1,.7-.18h.66v-.08a.53.53,0,0,0-.16-.41.66.66,0,0,0-.46-.14,1.22,1.22,0,0,0-.4.07,1,1,0,0,0-.33.18l-.17-.31a1.25,1.25,0,0,1,.43-.22,1.78,1.78,0,0,1,.53-.08A1,1,0,0,1,64.49,13.06Zm-.42,1.69a.61.61,0,0,0,.25-.3v-.32h-.64q-.53,0-.53.36a.32.32,0,0,0,.14.27.62.62,0,0,0,.37.1A.78.78,0,0,0,64.08,14.75Z"/><path class="cls-10" d="M65.64,15.1a1.2,1.2,0,0,1-.41-.19l.17-.33a1.26,1.26,0,0,0,.37.17,1.54,1.54,0,0,0,.44.06q.55,0,.55-.31a.2.2,0,0,0-.07-.17.46.46,0,0,0-.18-.09l-.32-.06a3.1,3.1,0,0,1-.45-.1.69.69,0,0,1-.3-.19.53.53,0,0,1-.13-.38.59.59,0,0,1,.26-.5,1.17,1.17,0,0,1,.7-.19,1.94,1.94,0,0,1,.46.06,1.24,1.24,0,0,1,.38.15l-.18.33a1.2,1.2,0,0,0-.67-.18.77.77,0,0,0-.4.09.26.26,0,0,0-.14.23.22.22,0,0,0,.08.18.5.5,0,0,0,.19.1l.32.07a3.53,3.53,0,0,1,.45.1.67.67,0,0,1,.29.19.52.52,0,0,1,.12.37.58.58,0,0,1-.27.5,1.26,1.26,0,0,1-.73.19A2,2,0,0,1,65.64,15.1Z"/><path class="cls-10" d="M67.71,12.32a.26.26,0,0,1-.08-.19.27.27,0,0,1,.08-.19.28.28,0,0,1,.2-.08.29.29,0,0,1,.2.08.25.25,0,0,1,.08.19.27.27,0,0,1-.08.2.27.27,0,0,1-.2.08A.28.28,0,0,1,67.71,12.32Zm0,.52h.42v2.31H67.7Z"/><path class="cls-10" d="M70.46,15a1.1,1.1,0,0,1-.43-.42,1.27,1.27,0,0,1,0-1.21,1.09,1.09,0,0,1,.43-.42,1.34,1.34,0,0,1,1.23,0,1.1,1.1,0,0,1,.43.42,1.27,1.27,0,0,1,0,1.21,1.11,1.11,0,0,1-.43.42,1.32,1.32,0,0,1-1.23,0Zm1-.32a.72.72,0,0,0,.28-.29.95.95,0,0,0,0-.85.71.71,0,0,0-.28-.29.84.84,0,0,0-.8,0,.72.72,0,0,0-.28.29.93.93,0,0,0,0,.85.73.73,0,0,0,.28.29.82.82,0,0,0,.8,0Z"/><path class="cls-10" d="M72.85,11.92h.42v3.23h-.42Z"/><path class="cls-10" d="M76.14,14.14H74.27a.72.72,0,0,0,.27.49.87.87,0,0,0,.57.19.86.86,0,0,0,.67-.28l.23.27a1,1,0,0,1-.39.28A1.47,1.47,0,0,1,74.44,15a1.07,1.07,0,0,1-.44-.42,1.2,1.2,0,0,1-.15-.61,1.22,1.22,0,0,1,.15-.6,1.08,1.08,0,0,1,.41-.42,1.18,1.18,0,0,1,.59-.15,1.16,1.16,0,0,1,.59.15,1.06,1.06,0,0,1,.4.42,1.28,1.28,0,0,1,.15.62A1.14,1.14,0,0,1,76.14,14.14Zm-1.63-.78a.74.74,0,0,0-.24.48h1.48a.74.74,0,0,0-.24-.48.78.78,0,0,0-1,0Z"/><path class="cls-10" d="M78.66,13.08a1,1,0,0,1,.26.75v1.33H78.5V13.87a.71.71,0,0,0-.16-.51.6.6,0,0,0-.46-.17.72.72,0,0,0-.54.2.77.77,0,0,0-.2.57v1.19h-.42V11.92h.42v1.25a.86.86,0,0,1,.34-.26,1.17,1.17,0,0,1,.47-.09A1,1,0,0,1,78.66,13.08Z"/></svg>