<?xml version="1.0" standalone="no"?>
<!DOCTYPE svg PUBLIC "-//W3C//DTD SVG 1.1//EN" "http://www.w3.org/Graphics/SVG/1.1/DTD/svg11.dtd" >
<svg xmlns="http://www.w3.org/2000/svg">
<metadata>Generated by IcoMoon</metadata>
<defs>
<font id="JULO-icon" horiz-adv-x="1024">
<font-face units-per-em="1024" ascent="960" descent="-64" />
<missing-glyph horiz-adv-x="1024" />
<glyph unicode="&#x20;" horiz-adv-x="512" d="" />
<glyph unicode="&#xe900;" glyph-name="Icon_people" d="M1006.587 314.532c-24.535 41.672-66.197 71.019-115.060 78.454l-0.895 0.113c-7.081 0.561-15.338 0.88-23.665 0.88s-16.58-0.32-24.747-0.945l1.086 0.068-7.571 19.405c34.486 41.38 55.424 95.107 55.424 153.727 0 1.698-0.016 3.388-0.051 5.078l0.004-0.251c0.023 0.908 0.034 1.982 0.034 3.054 0 78.416-63.568 141.988-141.988 141.988-36.443 0-69.682-13.73-94.822-36.302l0.131 0.117c-29.477 49.556-82.754 82.246-143.666 82.246-58.963 0-110.772-30.63-140.381-76.847l-0.4-0.665c-24.826 20.764-57.098 33.377-92.313 33.377-78.813 0-142.871-63.157-144.327-141.624l-0.002-0.135c-0.037-1.575-0.056-3.427-0.056-5.287 0-58.624 20.941-112.355 55.748-154.124l-0.315 0.39-8.045-19.88c-7.082 0.562-15.338 0.883-23.665 0.883s-16.58-0.321-24.746-0.947l1.085 0.068c-48.821-8.238-89.526-37.423-113.176-77.804l-0.412-0.763c-7.762-12.809-12.356-28.293-12.356-44.845 0-32.928 18.177-61.608 45.040-76.559l0.446-0.23c47.591-21.083 103.1-33.357 161.478-33.357 4.796 0 9.575 0.083 14.332 0.247l-0.691-0.017c4.714-3.933 9.982-7.541 15.578-10.627l0.516-0.259c66.261-35.971 177.009-40.701 266.461-40.701s200.2 4.735 266.461 40.701c4.678 2.761 8.697 5.574 12.484 8.66l-0.179-0.14h5.205c4.107-0.15 8.933-0.235 13.777-0.235 58.696 0 114.486 12.455 164.87 34.866l-2.587-1.026c27.313 15.18 45.486 43.861 45.486 76.788 0 16.555-4.593 32.036-12.578 45.238l0.218-0.393zM682.384 611.759c8.043 12.597 19.314 22.497 32.655 28.673l0.476 0.198c9.582 4.482 20.804 7.101 32.64 7.101 0.172 0 0.343-0.001 0.518-0.002h-0.028c0.285 0.003 0.621 0.005 0.961 0.005 41.85 0 75.864-33.528 76.659-75.187l0.001-0.075c0-42.596-18.931-130.153-77.617-130.153-0.121-0.001-0.266-0.001-0.408-0.001-19.587 0-36.822 10.083-46.789 25.344l-0.13 0.213c-14.438 21.182-24.368 46.548-27.834 73.934l-0.087 0.847c3.238 17.177 5.126 36.977 5.205 57.202v0.069s0 3.785 0 5.68c1.411 1.787 2.673 3.808 3.702 5.96l0.083 0.195zM635.053 445.635c3.56-6.865 7.016-12.593 10.787-18.086l-0.373 0.575c3.949-4.805 7.972-9.13 12.247-13.195l0.058-0.055-13.725-33.605h-22.716l-12.78 31.711c10.612 9.509 19.965 20.062 28.009 31.594l0.391 0.592zM512 698.371c0.284 0.003 0.619 0.004 0.959 0.004 53.873 0 97.635-43.273 98.433-96.955l0.001-0.076c0-42.121-18.46-162.809-99.392-162.809s-99.392 120.213-99.392 162.809c0.799 53.758 44.561 97.027 98.433 97.027 0.335 0 0.674-0.002 1.009-0.005h-0.050zM379.007 380.793l-14.671 36.916c4.339 4.117 8.363 8.443 12.107 13.003l0.198 0.248c3.034 4.469 6.174 9.733 9.025 15.173l0.44 0.922c7.959-13.084 16.878-24.412 26.981-34.556l-0.005 0.005-12.78-31.711zM275.355 651.040c0.147 0.001 0.319 0.001 0.49 0.001 11.833 0 23.059-2.615 33.125-7.304l-0.484 0.202c13.817-6.373 25.087-16.274 32.945-28.561l0.186-0.309c1.428-1.752 2.978-3.303 4.674-4.685l0.057-0.046c0-2.84 0-5.68 0-8.52 0.008-19.57 1.732-38.732 5.024-57.349l-0.289 1.977c-3.571-28.441-13.68-53.982-28.766-75.819l0.37 0.567c-10.263-14.138-26.733-23.227-45.329-23.227-0.702 0-1.404 0.012-2.1 0.039l0.099-0.003c-58.687 0-77.617 85.192-77.617 127.788 0.796 41.734 34.81 75.257 76.66 75.257 0.336 0 0.676-0.002 1.011-0.006h-0.050zM72.789 267.205c-1.049 2.37-1.659 5.14-1.659 8.045s0.61 5.675 1.709 8.175l-0.050-0.13c13.887 24.656 37.853 42.241 66.162 47.243l0.57 0.083c8.554 0.464 18.561 0.732 28.633 0.732s20.083-0.268 30.021-0.789l-1.388 0.057c0.373-0.013 0.812-0.025 1.253-0.025 14.044 0 26.103 8.494 31.318 20.626l0.084 0.22 12.78 31.711c9.233-2.404 19.834-3.785 30.758-3.785 0.001 0 0.002 0 0.004 0v0c0.107 0 0.23 0 0.354 0 10.802 0 21.282 1.381 31.272 3.977l-0.861-0.191 4.735-11.36c-43.599-15.034-79.069-44.222-101.754-81.971l-0.478-0.856c-8.756-14.377-13.936-31.765-13.936-50.363 0-2.264 0.077-4.507 0.229-6.732l-0.015 0.299c-40.476 0.54-78.788 9.193-113.584 24.401l1.891-0.735c-3.9 2.676-6.765 6.616-8.012 11.218l-0.033 0.138zM760.951 229.34c-2.33-8.248-7.791-14.942-14.983-18.85l-0.162-0.081c-53.481-28.871-159.024-32.185-234.276-32.185s-180.324 3.315-233.805 33.131c-7.354 3.988-12.816 10.683-15.094 18.715l-0.051 0.215c-0.689 2.445-1.085 5.254-1.085 8.158 0 5.897 1.634 11.414 4.475 16.12l-0.079-0.138c17.914 31.032 48.492 53.045 84.49 59.066l0.702 0.096c10.465 0.606 22.703 0.949 35.021 0.949s24.561-0.343 36.71-1.025l-1.688 0.076c0.282-0.007 0.612-0.012 0.943-0.012 14.124 0 26.269 8.476 31.626 20.618l0.086 0.219 17.511 43.541c12.192-3.629 26.203-5.721 40.701-5.721s28.509 2.088 41.747 5.982l-1.045-0.261 17.511-43.541c5.156-12.344 17.131-20.862 31.095-20.862 0.552 0 1.096 0.012 1.638 0.039l-0.077-0.003c10.466 0.615 22.703 0.967 35.021 0.967s24.56-0.352 36.706-1.044l-1.681 0.077c36.801-6.157 67.422-28.368 84.881-59.043l0.311-0.593c2.816-4.6 4.485-10.168 4.485-16.129 0-3.018-0.43-5.939-1.227-8.701l0.053 0.219zM950.265 263.891c-1.526-5.384-5.112-9.742-9.831-12.254l-0.109-0.051c-33.054-14.484-71.534-23.137-111.97-23.664l-0.198-0.002c0.335 3.041 0.528 6.567 0.528 10.137 0 18.446-5.123 35.698-14.023 50.406l0.245-0.437c-22.905 38.185-57.839 67.149-99.487 81.942l-1.325 0.41 3.315 8.52c9.145-2.404 19.647-3.786 30.467-3.786 0.105 0 0.207 0 0.312 0h-0.014c0.001 0 0.002 0 0.003 0 10.924 0 21.525 1.381 31.639 3.978l-0.881-0.193 12.78-31.711c5.444-12.361 17.588-20.837 31.713-20.837 0.331 0 0.662 0.004 0.991 0.013l-0.048-0.001c8.555 0.49 18.561 0.769 28.633 0.769s20.077-0.28 30.013-0.828l-1.38 0.063c28.879-5.085 52.845-22.67 66.487-46.856l0.245-0.475c1.998-3.094 3.184-6.874 3.184-10.932 0-1.324-0.126-2.613-0.367-3.866l0.018 0.127z" />
<glyph unicode="&#xe901;" glyph-name="Icon_flash" d="M411.277-41.020h-9.066c-15.304 4.281-26.337 18.095-26.337 34.498 0 1.158 0.055 2.295 0.164 3.42l-0.009-0.14 46.336 481.468h-111.802c-0.024 0-0.062 0-0.1 0-19.746 0-35.756 16.011-35.756 35.756 0 5.292 1.153 10.311 3.215 14.831l-0.095-0.225 151.085 352.541c5.933 12.022 18.099 20.148 32.169 20.148 0.195 0 0.399-0.001 0.594-0.004h201.422c19.358-0.509 34.855-16.316 34.855-35.747 0-5.295-1.155-10.318-3.219-14.84l0.095 0.225-74.541-151.085h93.171c0.024 0 0.062 0 0.1 0 19.746 0 35.756-16.011 35.756-35.756 0-5.292-1.153-10.311-3.215-14.831l0.095 0.225-302.179-671.338c-6.11-11.476-17.987-19.152-31.671-19.152-0.372 0-0.752 0.005-1.121 0.015l0.055-0.001zM364.433 548.723h97.197c0.053 0 0.114 0 0.175 0 19.746 0 35.756-16.011 35.756-35.756 0-1.241-0.063-2.469-0.185-3.674l0.011 0.156-29.718-302.179 190.368 423.047h-95.692c-19.358 0.509-34.855 16.316-34.855 35.747 0 5.295 1.155 10.318 3.219 14.84l-0.095-0.225 75.039 151.085h-120.369z" />
<glyph unicode="&#xe902;" glyph-name="Icon_cross" d="M91.538-11.634c-21.544 0.125-38.947 17.614-38.947 39.172 0 10.766 4.344 20.515 11.362 27.589l840.909 841.466c6.749 5.659 15.521 9.095 25.096 9.095 21.632 0 39.172-17.541 39.172-39.172 0-9.574-3.436-18.347-9.134-25.156l0.051 0.060-840.911-842.011c-6.956-6.826-16.508-11.045-27.041-11.045-0.189 0-0.392 0.001-0.581 0.003h0.036zM933.006-11.634c-0.001 0-0.003 0-0.004 0-10.796 0-20.571 4.43-27.577 11.581l-0.005 0.005-842.011 840.911c-5.659 6.749-9.095 15.521-9.095 25.096 0 21.632 17.541 39.172 39.172 39.172 9.574 0 18.347-3.436 25.156-9.134l-0.060 0.051 842.011-840.911c7.016-7.072 11.36-16.834 11.36-27.587 0-21.557-17.416-39.047-38.937-39.172h-0.009z" />
<glyph unicode="&#xe903;" glyph-name="Icon_tick" d="M358.933 105.184c-10.249 0.058-19.515 4.258-26.203 11.006l-305.605 305.605c-5.372 6.407-8.636 14.742-8.636 23.834 0 20.555 16.667 37.213 37.213 37.213 9.099 0 17.427-3.264 23.897-8.683l-0.055 0.046 279.389-279.389 585.515 584.992c6.875 8.205 17.122 13.38 28.585 13.38 20.555 0 37.213-16.667 37.213-37.213 0-11.455-5.175-21.71-13.325-28.539l-0.055-0.046-611.728-611.205c-6.699-6.75-15.956-10.95-26.196-11.008h-0.009z" />
<glyph unicode="&#xe904;" glyph-name="Icon_arrow_left" d="M489.215-35.921c-0.001 0-0.003 0-0.004 0-10.872 0-20.706 4.465-27.764 11.657l-0.005 0.005-405.575 406.141c-16.996 16.997-27.503 40.469-27.503 66.387s10.507 49.404 27.503 66.387l405.575 405.575c6.797 5.688 15.624 9.156 25.268 9.156 21.785 0 39.449-17.665 39.449-39.449 0-9.643-3.454-18.471-9.209-25.329l0.052 0.061-405.575-406.141c-2.677-2.711-4.343-6.443-4.343-10.557s1.652-7.846 4.344-10.558l406.14-406.14c7.068-7.125 11.446-16.946 11.446-27.774 0-21.709-17.538-39.322-39.21-39.449h-0.009zM924.801 408.551h-825.603c-21.785 0-39.449 17.665-39.449 39.449s17.665 39.449 39.449 39.449v0h825.603c21.785 0 39.449-17.665 39.449-39.449s-17.665-39.449-39.449-39.449v0z" />
<glyph unicode="&#xe905;" glyph-name="Icon_arrow_up" d="M28.079 470.785c0 0.001 0 0.003 0 0.004 0 10.872 4.465 20.706 11.657 27.764l0.005 0.005 406.141 405.575c16.997 16.996 40.469 27.503 66.387 27.503s49.404-10.507 66.387-27.503l405.575-405.575c5.688-6.797 9.156-15.624 9.156-25.268 0-21.785-17.665-39.449-39.449-39.449-9.643 0-18.471 3.454-25.329 9.209l0.061-0.052-406.141 405.575c-2.711 2.677-6.443 4.343-10.557 4.343s-7.846-1.652-10.558-4.344l-406.14-406.14c-7.125-7.068-16.946-11.446-27.774-11.446-21.709 0-39.322 17.538-39.449 39.21v0.009zM472.551 35.199v825.603c0 21.785 17.665 39.449 39.449 39.449s39.449-17.665 39.449-39.449v0-825.603c0-21.785-17.665-39.449-39.449-39.449s-39.449 17.665-39.449 39.449v0z" />
<glyph unicode="&#xe906;" glyph-name="Icon_arrow_right" d="M534.785 931.921c0.001 0 0.003 0 0.004 0 10.872 0 20.706-4.465 27.764-11.657l0.005-0.005 405.575-406.141c16.996-16.997 27.503-40.469 27.503-66.387s-10.507-49.404-27.503-66.387l-405.575-405.575c-6.797-5.688-15.624-9.156-25.268-9.156-21.785 0-39.449 17.665-39.449 39.449 0 9.643 3.454 18.471 9.209 25.329l-0.052-0.061 405.575 406.141c2.677 2.711 4.343 6.443 4.343 10.557s-1.652 7.846-4.344 10.558l-406.14 406.14c-7.068 7.125-11.446 16.946-11.446 27.774 0 21.709 17.538 39.322 39.21 39.449h0.009zM99.199 487.449h825.603c21.785 0 39.449-17.665 39.449-39.449s-17.665-39.449-39.449-39.449v0h-825.603c-21.785 0-39.449 17.665-39.449 39.449s17.665 39.449 39.449 39.449v0z" />
<glyph unicode="&#xe907;" glyph-name="Icon_arrow_down" d="M995.921 425.215c0-0.001 0-0.003 0-0.004 0-10.872-4.465-20.706-11.657-27.764l-0.005-0.005-406.141-405.575c-16.997-16.996-40.469-27.503-66.387-27.503s-49.404 10.507-66.387 27.503l-405.575 405.575c-5.688 6.797-9.156 15.624-9.156 25.268 0 21.785 17.665 39.449 39.449 39.449 9.643 0 18.471-3.454 25.329-9.209l-0.061 0.052 406.141-405.575c2.711-2.677 6.443-4.343 10.557-4.343s7.846 1.652 10.558 4.344l406.14 406.14c7.125 7.068 16.946 11.446 27.774 11.446 21.709 0 39.322-17.538 39.449-39.21v-0.009zM551.449 860.801v-825.603c0-21.785-17.665-39.449-39.449-39.449s-39.449 17.665-39.449 39.449v0 825.603c0 21.785 17.665 39.449 39.449 39.449s39.449-17.665 39.449-39.449v0z" />
<glyph unicode="&#xe908;" glyph-name="Icon_done" d="M518.51-38.293c-0.145 0-0.322 0-0.499 0-268.57 0-486.293 217.723-486.293 486.293s217.723 486.293 486.293 486.293c268.57 0 486.293-217.723 486.293-486.293v0c-0.287-268.277-217.551-485.727-485.739-486.293h-0.056zM518.51 863.177c-229.295 0-415.177-185.882-415.177-415.177s185.882-415.177 415.177-415.177c229.295 0 415.177 185.882 415.177 415.177v0c-0.288 229.179-185.998 414.889-415.153 415.177h-0.023zM401.318 212.111c-9.547 0.056-18.192 3.868-24.55 10.026l0.008-0.008-183.295 175.788c-7.838 6.567-12.782 16.359-12.782 27.306 0 19.638 15.921 35.558 35.558 35.558 10.947 0 20.739-4.944 27.268-12.726l0.047-0.056 159.26-150.248 342.555 327.033c6.124 5.128 14.086 8.252 22.777 8.252 19.638 0 35.558-15.921 35.558-35.558 0-8.69-3.115-16.653-8.291-22.833l0.047 0.056-367.098-350.57c-6.549-7.392-16.057-12.024-26.649-12.024-0.135 0-0.279 0.001-0.413 0.002h0.018z" />
<glyph unicode="&#xe909;" glyph-name="Icon_phone" d="M814.472-30.413h-2.968c-382.037 14.333-757.165 388.963-771.499 771.499 0 0.038 0 0.074 0 0.118 0 24.389 10.455 46.336 27.117 61.606l0.062 0.057 76.115 78.584c15.036 15.088 35.832 24.419 58.813 24.419s43.777-9.339 58.811-24.417l130.482-130.482c15.045-15.030 24.352-35.802 24.352-58.747 0-12.953-2.97-25.22-8.259-36.149l0.219 0.491-63.752-134.429c-0.714-1.682-1.13-3.632-1.13-5.683s0.415-4.001 1.169-5.783l-0.040 0.1c21.526-56.402 54.030-104.32 95.202-143.151l0.185-0.175c39.022-41.337 86.937-73.846 140.722-94.506l2.612-0.88c1.682-0.714 3.632-1.13 5.683-1.13s4.001 0.415 5.783 1.169l-0.1-0.040 133.939 63.752c10.43 5.078 22.697 8.040 35.65 8.040 22.945 0 43.717-9.307 58.746-24.352l130.481-130.481c15.088-15.036 24.419-35.832 24.419-58.813s-9.339-43.777-24.417-58.811l-78.586-78.586c-14.982-14.391-35.365-23.25-57.823-23.25-0.696 0-1.391 0.007-2.084 0.022l0.105-0.002zM202.12 838.443c-0.11 0.002-0.237 0.004-0.365 0.004-4.276 0-8.154-1.698-11.004-4.455l0.004 0.003-78.584-79.075c-2.976-2.888-4.85-6.902-4.938-11.35v-0.015c12.853-349.92 356.339-691.925 706.749-706.749 4.43 0.294 8.378 2.119 11.373 4.954l-0.008-0.007 78.584 78.584c2.822 2.857 4.569 6.785 4.569 11.12s-1.746 8.263-4.57 11.121l-130.479 130.479c-2.849 2.77-6.738 4.486-11.036 4.486-2.456 0-4.784-0.563-6.854-1.562l0.098 0.044-133.939-63.752c-10.426-5.196-22.712-8.236-35.707-8.236-9.327 0-18.297 1.569-26.641 4.451l0.575-0.173c-66.657 25.091-123.339 63.179-169.348 111.515l-0.175 0.184c-48.508 46.192-86.594 102.871-110.668 166.432l-1.031 3.091c-2.689 7.77-4.237 16.723-4.237 26.037 0 13.001 3.027 25.296 8.412 36.223l-0.217-0.479 64.251 133.939c0.955 1.981 1.518 4.308 1.518 6.764 0 4.29-1.708 8.187-4.489 11.039l0.003-0.003-128.501 130.48c-2.892 3.105-7.012 5.040-11.579 5.040-0.625 0-1.235-0.039-1.836-0.107l0.071 0.006zM607.387 245.363v0z" />
<glyph unicode="&#xe90a;" glyph-name="Icon_internet" d="M512-38.293c-268.57 0-486.293 217.723-486.293 486.293s217.723 486.293 486.293 486.293c268.57 0 486.293-217.723 486.293-486.293v0c-0.288-268.454-217.839-486.006-486.27-486.293h-0.023zM512 863.177c-229.295 0-415.177-185.882-415.177-415.177s185.882-415.177 415.177-415.177c229.295 0 415.177 185.882 415.177 415.177v0c-0.288 229.179-185.998 414.889-415.153 415.177h-0.023zM476.442 898.735h71.117v-901.47h-71.117v901.47zM61.265 483.558h901.47v-71.117h-901.47v71.117zM111.348 683.889h801.305v-71.117h-801.305v71.117zM111.348 283.228h801.305v-71.117h-801.305v71.117zM512-38.293c-134.219 0-235.889 208.844-235.889 486.293s100.165 486.293 235.889 486.293 235.889-208.844 235.889-486.293-101.661-486.293-235.889-486.293zM512 863.177c-78.125 0-164.772-170.774-164.772-415.177s86.638-415.177 164.772-415.177 164.772 170.774 164.772 415.177-86.638 415.177-164.772 415.177z" />
<glyph unicode="&#xe90b;" glyph-name="Icon_search" d="M390.913 219.873c-192.865 0-349.207 156.349-349.207 349.207s156.349 349.207 349.207 349.207c192.865 0 349.207-156.349 349.207-349.207v0c-0.278-192.753-156.454-348.936-349.183-349.207h-0.023zM390.913 849.517c-154.881 0-280.43-125.556-280.43-280.43s125.556-280.43 280.43-280.43c154.881 0 280.43 125.556 280.43 280.43v0c-0.277 154.77-125.667 280.16-280.407 280.43h-0.023zM947.905-22.293c-9.472 0.057-18.032 3.935-24.215 10.169l-290.603 290.603c-4.96 5.922-7.98 13.622-7.98 22.027 0 18.992 15.397 34.388 34.388 34.388 8.404 0 16.105-3.013 22.081-8.019l-0.054 0.045 290.601-290.601c6.165-6.215 9.976-14.769 9.976-24.218 0-18.923-15.284-34.275-34.177-34.388h-0.009z" />
<glyph unicode="&#xe90c;" glyph-name="Icon_home" d="M863.686-39.841h-150.725c-47.45 0-85.911 38.461-85.911 85.911v0 251.205c0 8.049-6.521 14.569-14.569 14.569v0h-200.961c-8.049 0-14.569-6.521-14.569-14.569v0-251.205c0-47.45-38.461-85.911-85.911-85.911h-150.725c-47.45 0-85.911 38.461-85.911 85.911v0 431.568c0.038 23.72 9.622 45.2 25.126 60.792l351.682 351.682c15.556 15.574 37.050 25.204 60.789 25.204s45.242-9.63 60.788-25.203l351.687-351.687c15.5-15.589 25.084-37.068 25.122-60.783v-431.574c0-47.45-38.461-85.911-85.911-85.911v0zM411.52 383.186h200.961c47.45 0 85.911-38.461 85.911-85.911v0-251.205c0-8.049 6.521-14.569 14.569-14.569v0h150.725c8.049 0 14.569 6.521 14.569 14.569v0 431.568c-0.061 4.135-1.781 7.864-4.522 10.551l-351.688 351.688c-2.635 2.634-6.276 4.26-10.304 4.26s-7.66-1.627-10.304-4.261l-351.686-351.686c-2.743-2.689-4.463-6.409-4.524-10.543v-431.578c0-8.049 6.521-14.569 14.569-14.569h151.224c8.049 0 14.569 6.521 14.569 14.569v0 251.205c0 47.45 38.461 85.911 85.911 85.911v0z" />
<glyph unicode="&#xe90d;" glyph-name="Icon_question" d="M512 232.927c-17.45 0-31.603 14.144-31.603 31.603v0 139.647c0 17.45 14.144 31.603 31.603 31.603v0c79.095 0 143.213 64.118 143.213 143.213s-64.118 143.213-143.213 143.213c-79.095 0-143.213-64.118-143.213-143.213v0c-3.971-13.241-16.037-22.717-30.327-22.717s-26.355 9.476-30.268 22.49l-0.058 0.227c1.621 111.343 92.262 200.983 203.84 200.983 112.587 0 203.867-91.27 203.867-203.867 0-100.522-72.755-184.049-168.47-200.804l-1.223-0.178v-110.597c0-0.036 0-0.066 0-0.106 0-17.45-14.144-31.603-31.603-31.603-0.901 0-1.785 0.041-2.66 0.113l0.116-0.006zM512-43.307c-271.338 0-491.307 219.968-491.307 491.307s219.968 491.307 491.307 491.307c271.338 0 491.307-219.968 491.307-491.307v0c-0.293-271.22-220.086-491.014-491.283-491.307h-0.024zM512 874.073c-235.316 0-426.073-190.757-426.073-426.073s190.757-426.073 426.073-426.073c235.316 0 426.073 190.757 426.073 426.073v0c-0.293 235.199-190.875 425.781-426.040 426.073h-0.023zM562.967 142.21c0-28.144-22.823-50.967-50.967-50.967s-50.967 22.823-50.967 50.967c0 28.144 22.823 50.967 50.967 50.967s50.967-22.823 50.967-50.967z" />
<glyph unicode="&#xe90e;" glyph-name="Icon_information" d="M512-35.307c-266.92 0-483.307 216.386-483.307 483.307s216.386 483.307 483.307 483.307c266.92 0 483.307-216.386 483.307-483.307v0c-0.288-266.804-216.502-483.019-483.283-483.307h-0.024zM512 867.135c-231.484 0-419.135-187.651-419.135-419.135s187.651-419.135 419.135-419.135c231.484 0 419.135 187.651 419.135 419.135v0c-0.288 231.369-187.767 418.848-419.103 419.135h-0.023zM512 111.595c-19.656 0-35.594 15.939-35.594 35.594v0 401.084c0 19.656 15.939 35.594 35.594 35.594s35.594-15.939 35.594-35.594v0-401.084c0-19.656-15.939-35.594-35.594-35.594v0zM562.137 698.674c0-27.686-22.451-50.137-50.137-50.137s-50.137 22.451-50.137 50.137c0 27.686 22.451 50.137 50.137 50.137s50.137-22.451 50.137-50.137z" />
<glyph unicode="&#xe90f;" glyph-name="Icon_letter" d="M745.928-6.293h-233.928c-18.346 0-33.218 14.873-33.218 33.218s14.873 33.218 33.218 33.218h233.928c7.494 0 13.568 6.075 13.568 13.568v0 561.435c0 7.494-6.075 13.568-13.568 13.568v0h-93.573c-44.185 0-80.005 35.82-80.005 80.005v93.573c0 7.494-6.075 13.568-13.568 13.568v0h-327.502c-18.346 0-33.218 14.873-33.218 33.218s14.873 33.218 33.218 33.218v0h327.502c44.185 0 80.005-35.82 80.005-80.005v0-93.573c0-7.494 6.075-13.568 13.568-13.568v0h93.573c44.185 0 80.005-35.82 80.005-80.005v-561.435c0-44.185-35.82-80.005-80.005-80.005v0zM278.072 321.208c-121.702 0-220.365 98.658-220.365 220.365s98.658 220.365 220.365 220.365c121.702 0 220.365-98.658 220.365-220.365v0c0-121.702-98.658-220.365-220.365-220.365v0zM278.072 695.497c-85.011 0-153.928-68.917-153.928-153.928s68.917-153.928 153.928-153.928c85.011 0 153.928 68.917 153.928 153.928v0c-0.267 84.904-69.020 153.662-153.9 153.928h-0.023zM371.64-6.293c-9.15 0.055-17.418 3.801-23.391 9.823l-70.182 70.182-70.18-70.18c-6.003-5.955-14.267-9.636-23.394-9.636-18.279 0-33.109 14.764-33.218 33.015v233.942c0 18.346 14.873 33.218 33.218 33.218h187.147c18.346 0 33.218-14.873 33.218-33.218v0-233.928c-0.131-13.668-8.499-25.344-20.369-30.329l-0.22-0.079c-3.709-1.702-8.044-2.727-12.604-2.805h-0.031zM278.072 153.717c9.15-0.055 17.418-3.801 23.391-9.823l36.964-36.964v120.71h-120.71v-120.71l36.962 36.962c5.976 6.024 14.243 9.77 23.384 9.825h0.009z" />
<glyph unicode="&#xe910;" glyph-name="Icon_map" d="M750.047 271.365c-19.839 0.787-37.116 11.090-47.477 26.45l-0.133 0.215c-88.077 132.353-174.25 270.901-174.25 380.879 0 0.058 0 0.126 0 0.194 0 124.439 98.236 225.939 221.389 231.17l0.472 0.014c124.683-3.972 224.247-105.994 224.247-231.273 0-0.209 0-0.411-0.001-0.62v0.035c0-109.029-86.173-247.571-174.25-380.879-10.441-15.626-27.746-25.959-47.506-26.657l-0.104-0.003zM750.047 842.687c-87.232-3.414-156.651-74.954-156.651-162.711 0-0.709 0.004-1.423 0.012-2.13l-0.001 0.108c0-87.603 79.509-217.102 156.639-333.269 77.13 116.167 156.639 245.191 156.639 333.269 0.007 0.599 0.011 1.313 0.011 2.022 0 87.757-69.419 159.297-156.337 162.702l-0.307 0.009zM750.047 576.069c-60.739 0-109.978 49.239-109.978 109.978s49.239 109.978 109.978 109.978c60.739 0 109.978-49.239 109.978-109.978v0c0-60.739-49.239-109.978-109.978-109.978v0zM750.047 728.425c-23.402 0-42.371-18.969-42.371-42.371s18.969-42.371 42.371-42.371c23.402 0 42.371 18.969 42.371 42.371v0c0 23.402-18.969 42.371-42.371 42.371v0zM797.658-14.293h-571.322c-71.257 0-129.025 57.768-129.025 129.025v0 571.322c0 71.257 57.768 129.025 129.025 129.025v0h238.047c18.669 0 33.803-15.135 33.803-33.803s-15.135-33.803-33.803-33.803v0h-238.047c-33.92 0-61.418-27.498-61.418-61.418v0-571.322c0-33.92 27.498-61.418 61.418-61.418v0h571.322c33.92 0 61.418 27.498 61.418 61.418v0 190.443c0 18.669 15.135 33.803 33.803 33.803s33.803-15.135 33.803-33.803v-190.443c0-71.257-57.768-129.025-129.025-129.025v0zM654.832-14.293c-9.311 0.056-17.725 3.868-23.803 9.996l-523.713 523.713c-4.876 5.821-7.844 13.39-7.844 21.652 0 18.669 15.135 33.803 33.803 33.803 8.261 0 15.831-2.962 21.705-7.883l-0.053 0.044 523.711-523.711c6.060-6.109 9.806-14.518 9.806-23.806 0-18.601-15.024-33.692-33.596-33.803h-0.009zM797.658-14.293c-9.311 0.056-17.725 3.868-23.803 9.996l-523.713 523.713c-4.876 5.821-7.844 13.39-7.844 21.652 0 18.669 15.135 33.803 33.803 33.803 8.261 0 15.831-2.962 21.705-7.883l-0.053 0.044 523.711-523.711c6.060-6.109 9.806-14.518 9.806-23.806 0-18.601-15.024-33.692-33.596-33.803h-0.009zM178.731 33.317c-18.588 0.111-33.612 15.201-33.612 33.803 0 9.288 3.746 17.697 9.808 23.808l190.441 190.441c6.243 7.451 15.552 12.152 25.959 12.152 18.669 0 33.803-15.135 33.803-33.803 0-10.407-4.701-19.716-12.099-25.921l-0.053-0.044-190.443-190.443c-6.081-6.13-14.494-9.942-23.796-9.998h-0.009z" />
<glyph unicode="&#xe911;" glyph-name="Icon_collaborate" d="M512 133.377h-8.541c-16.848 1.673-32.131 4.527-46.931 8.55l1.984-0.46c-15.331 2.513-26.886 15.663-26.886 31.513 0 17.625 14.287 31.911 31.911 31.911 3.837 0 7.519-0.677 10.926-1.92l-0.223 0.071c9.955-2.732 21.875-4.951 34.077-6.209l0.981-0.082h4.495c91.525 12.51 173.1 47.567 241.275 99.352l-1.263-0.92-146.525 219.786c-2.225 3.242-5.765 5.444-9.832 5.839l-0.054 0.004c-0.44 0.054-0.95 0.086-1.467 0.086-3.243 0-6.2-1.227-8.432-3.241l0.010 0.009c-80.005-80.005-147.423-64.273-179.785-47.643-21.736 10.723-37.32 31.058-41.292 55.298l-0.058 0.434c-0.675 3.836-1.061 8.254-1.061 12.763 0 21.343 8.649 40.667 22.635 54.657l99.78 99.78c17.53 22.023 122.704 134.838 337.096 4.943 1.654-0.748 3.585-1.183 5.617-1.183s3.966 0.435 5.707 1.219l-0.088-0.036 56.183 19.775c7.244 2.493 15.588 3.933 24.27 3.933 42.407 0 76.793-34.347 76.858-76.74v-189.679c0-0.093 0.001-0.205 0.001-0.317 0-20.238-7.87-38.64-20.713-52.309l0.038 0.040c-56.183-60.678-251.249-253.947-453.507-269.227zM596.499 582.838h7.641c23.667-2.29 43.962-15.008 56.46-33.44l0.172-0.27 144.727-217.090c44.034 34.889 83.349 70.786 120.030 109.22l0.426 0.449c2.223 2.269 3.597 5.377 3.597 8.808 0 0.064 0 0.126-0.001 0.19v-0.009 191.921c0.001 0.068 0.002 0.147 0.002 0.226 0 4.329-2.111 8.165-5.359 10.535l-0.037 0.026c-1.702 0.872-3.712 1.383-5.843 1.383s-4.141-0.511-5.917-1.417l0.074 0.034-55.733-18.427c-7.208-2.451-15.509-3.866-24.142-3.866-15.021 0-29.040 4.285-40.905 11.697l0.325-0.19c-183.38 111.467-252.597 11.685-253.496 10.788l-4.046-4.943-101.128-99.331c-2.349-2.423-3.794-5.731-3.794-9.378 0-0.816 0.073-1.615 0.211-2.391l-0.012 0.082c0.67-3.991 3.209-7.272 6.67-8.957l0.072-0.032c31.911-15.731 68.317-4.046 107.421 35.507 13.608 13.34 32.265 21.574 52.846 21.574 0.068 0 0.133 0 0.201 0h-0.010zM152.431 325.747c-0.062 0-0.132-0.001-0.205-0.001-7.629 0-14.626 2.716-20.073 7.233l0.051-0.042c-34.159 27.867-61.127 51.689-76.858 65.621-15.222 14.086-24.721 34.168-24.721 56.47 0 0.056 0 0.114 0 0.17v-0.008 187.426c-0.018 0.639-0.030 1.39-0.030 2.144 0 42.447 34.411 76.858 76.858 76.858 8.692 0 17.049-1.444 24.842-4.103l-0.542 0.16 58.431-19.327c1.472-0.538 3.171-0.849 4.943-0.849s3.472 0.311 5.047 0.88l-0.104-0.033c119.107 57.081 212.595 72.363 277.768 44.947 28.683-10.532 51.328-31.713 63.54-58.632l0.283-0.698c0.821-2.691 1.293-5.786 1.293-8.99 0-17.625-14.287-31.911-31.911-31.911-12.554 0-23.417 7.251-28.626 17.792l-0.083 0.187c-6.888 11.615-17.73 20.266-30.634 24.172l-0.38 0.1c-26.968 9.889-92.139 17.53-224.731-44.947-9.901-4.865-21.549-7.713-33.865-7.713-8.453 0-16.594 1.341-24.22 3.823l0.553-0.156-58.431 19.327c-1.702 0.872-3.712 1.383-5.843 1.383s-4.141-0.511-5.917-1.417l0.074 0.034c-3.285-2.397-5.396-6.232-5.396-10.562 0-0.079 0.001-0.159 0.002-0.238v0.011-187.426c0-3.711 1.55-7.060 4.039-9.433l0.005-0.005c14.832-13.484 40.901-36.857 74.162-63.374 9.064-5.733 14.994-15.703 14.994-27.059 0-17.625-14.287-31.911-31.911-31.911-0.849 0-1.689 0.033-2.52 0.097l0.11-0.007zM412.669 128.432c-18.124 0.308-35.1 4.928-50.038 12.874l0.597-0.289c-64.273 31.911-149.67 85.847-195.065 115.511v0c-21.425 13.674-35.428 37.322-35.428 64.242 0 13.723 3.639 26.596 10.006 37.707l-0.196-0.37c40.452 69.667 99.78 93.937 159.11 64.273s149.67-85.847 195.065-115.063c21.265-13.803 35.133-37.432 35.133-64.302 0-13.873-3.698-26.883-10.161-38.097l0.197 0.369c-19.657-42.818-60.507-72.867-108.749-76.826l-0.471-0.032zM252.211 371.142c-14.383 0-33.71-8.541-54.385-44.947-0.933-1.713-1.481-3.753-1.481-5.921 0-4.503 2.365-8.454 5.921-10.679l0.052-0.031c44.947-28.765 127.647-80.904 189.223-111.916 11.237-5.843 40.901-20.226 75.059 39.104 0.933 1.713 1.481 3.753 1.481 5.921 0 4.503-2.365 8.454-5.921 10.679l-0.052 0.031c-44.947 28.765-128.096 81.353-189.223 111.916-5.948 3.44-13.036 5.574-20.597 5.841l-0.078 0.002z" />
<glyph unicode="&#xe912;" glyph-name="Icon_documents" d="M851.036 74.576h-484.34c-45.741 0-82.823 37.082-82.823 82.823v0 678.072c0 45.741 37.082 82.823 82.823 82.823v0h319.176c0.081 0 0.182 0 0.284 0 22.79 0 43.409-9.254 58.32-24.216l165.165-165.165c14.938-15.032 24.181-35.735 24.217-58.6v-512.921c0-45.741-37.082-82.823-82.823-82.823v0zM366.696 849.517c-7.758 0-14.046-6.289-14.046-14.046v0-678.072c0-7.758 6.289-14.046 14.046-14.046v0h484.34c7.758 0 14.046 6.289 14.046 14.046v0 512.915c-0.059 3.99-1.714 7.579-4.356 10.169l-165.165 165.165c-2.585 2.404-6.060 3.878-9.881 3.878-0.104 0-0.2-0.001-0.303-0.003h0.013zM705.739-22.293h-484.34c-45.741 0-82.823 37.082-82.823 82.823v0 678.072c0 45.741 37.082 82.823 82.823 82.823v0h96.869c18.992 0 34.388-15.397 34.388-34.388s-15.397-34.388-34.388-34.388v0h-96.869c-7.758 0-14.046-6.289-14.046-14.046v0-678.072c0-7.758 6.289-14.046 14.046-14.046v0h484.34c7.758 0 14.046 6.289 14.046 14.046v0 48.435c0 18.992 15.397 34.388 34.388 34.388s34.388-15.397 34.388-34.388v-48.435c0-45.741-37.082-82.823-82.823-82.823v0zM851.036 655.785h-96.869c-45.741 0-82.823 37.082-82.823 82.823v96.869c0 18.992 15.397 34.388 34.388 34.388s34.388-15.397 34.388-34.388v-96.869c0-7.758 6.289-14.046 14.046-14.046v0h96.869c18.992 0 34.388-15.397 34.388-34.388s-15.397-34.388-34.388-34.388v0zM463.565 787.036h48.435c26.749 0 48.435-21.686 48.435-48.435v-48.435c0-26.749-21.686-48.435-48.435-48.435h-48.435c-26.749 0-48.435 21.686-48.435 48.435v48.435c0 26.749 21.686 48.435 48.435 48.435zM754.166 510.481h-290.601c-18.992 0-34.388 15.397-34.388 34.388s15.397 34.388 34.388 34.388v0h290.601c18.992 0 34.388-15.397 34.388-34.388s-15.397-34.388-34.388-34.388v0zM754.166 365.177h-290.601c-18.992 0-34.388 15.397-34.388 34.388s15.397 34.388 34.388 34.388v0h290.601c18.992 0 34.388-15.397 34.388-34.388s-15.397-34.388-34.388-34.388v0zM754.166 219.873h-290.601c-18.992 0-34.388 15.397-34.388 34.388s15.397 34.388 34.388 34.388v0h290.601c18.992 0 34.388-15.397 34.388-34.388s-15.397-34.388-34.388-34.388v0z" />
<glyph unicode="&#xe913;" glyph-name="Icon_edit" d="M193.201-14.795c-0.071 0-0.165 0-0.259 0-50.184 0-90.857 40.684-90.857 90.857 0 5.45 0.483 10.776 1.396 15.959l-0.076-0.55 14.347 90.857c2.357 19.17 10.408 36.131 22.391 49.506l-0.071-0.091 561.625 616.888c16.695 18.439 40.72 29.98 67.447 29.98 23.835 0 45.52-9.172 61.723-24.186l-0.058 0.054 78.635-71.735c18.132-16.66 29.444-40.49 29.444-66.96 0-23.558-8.97-45.016-23.67-61.159l-562.624-616.282c-11.74-13.012-27.129-22.539-44.546-26.965l-0.62-0.13-92.982-23.382c-6.367-1.638-13.685-2.611-21.222-2.661h-0.036zM757.476 798.154l-561.099-615.826c-1.896-2.171-3.222-4.878-3.703-7.877l-0.010-0.096-14.873-98.293c-0.149-0.791-0.227-1.712-0.227-2.637 0-8.506 6.904-15.409 15.409-15.409 1.402 0 2.758 0.184 4.059 0.543l-0.109-0.020 92.982 23.382c4.038 1.044 7.383 3.518 9.53 6.849l0.042 0.062 559.5 616.888c2.634 2.755 4.256 6.513 4.256 10.631 0 0.18-0.003 0.371-0.008 0.55l0.001-0.021c-0.155 4.191-1.955 7.934-4.781 10.619l-0.005 0.005-80.759 71.735c-2.789 2.788-6.64 4.512-10.892 4.512s-8.103-1.725-10.892-4.513v0zM815.401 563.827c-0.117-0.001-0.263-0.002-0.398-0.002-9.658 0-18.471 3.629-25.138 9.599l-159.365 142.896c-5.45 6.491-8.755 14.946-8.755 24.165 0 20.834 16.885 37.729 37.729 37.729 9.218 0 17.663-3.305 24.223-8.805l-0.058 0.049 159.405-142.933c7.418-6.911 12.044-16.734 12.044-27.632 0-20.771-16.791-37.624-37.532-37.729h-0.008z" />
<glyph unicode="&#xe914;" glyph-name="Icon_in" d="M524.109 171.445c-18.91 0.113-34.194 15.464-34.194 34.388 0 9.449 3.811 18.003 9.978 24.22l217.947 217.947-217.956 217.956c-4.96 5.922-7.98 13.622-7.98 22.027 0 18.992 15.397 34.388 34.388 34.388 8.404 0 16.105-3.013 22.081-8.019l-0.054 0.045 221.342-221.342c11.619-11.578 18.805-27.59 18.805-45.283s-7.186-33.706-18.803-45.282l-0.002-0.002-221.342-220.859c-6.186-6.236-14.745-10.114-24.208-10.171h-0.009zM736.734 413.612h-612.205c-18.992 0-34.388 15.397-34.388 34.388s15.397 34.388 34.388 34.388v0h612.205c18.992 0 34.388-15.397 34.388-34.388s-15.397-34.388-34.388-34.388v0zM802.601-22.293h-339.036c-72.49 0-131.258 58.768-131.258 131.258v0 193.739c0 18.992 15.397 34.388 34.388 34.388s34.388-15.397 34.388-34.388v0-193.739c0-34.507 27.974-62.481 62.481-62.481v0h339.036c34.507 0 62.481 27.974 62.481 62.481v0 678.071c0 34.507-27.974 62.481-62.481 62.481v0h-339.036c-34.507 0-62.481-27.974-62.481-62.481v0-193.739c0-18.992-15.397-34.388-34.388-34.388s-34.388 15.397-34.388 34.388v193.739c0 72.49 58.768 131.258 131.258 131.258h339.036c72.49 0 131.258-58.768 131.258-131.258v0-678.071c0-72.49-58.768-131.258-131.258-131.258v0z" />
<glyph unicode="&#xe915;" glyph-name="Icon_out" d="M757.625 180.853c-18.266 0.109-33.030 14.938-33.030 33.218 0 9.127 3.681 17.391 9.638 23.396l210.533 210.533-210.54 210.54c-4.792 5.72-7.708 13.158-7.708 21.277 0 18.346 14.873 33.218 33.218 33.218 8.118 0 15.557-2.911 21.329-7.747l-0.052 0.043 213.812-213.812c11.223-11.184 18.165-26.652 18.165-43.743s-6.942-32.56-18.163-43.742l-0.002-0.002-213.812-213.345c-5.976-6.024-14.243-9.77-23.384-9.825h-0.009zM963.017 414.782h-591.377c-18.346 0-33.218 14.873-33.218 33.218s14.873 33.218 33.218 33.218v0h591.377c18.346 0 33.218-14.873 33.218-33.218s-14.873-33.218-33.218-33.218v0zM512-6.293h-327.502c-70.024 0-126.792 56.768-126.792 126.792v0 655.003c0 70.024 56.768 126.792 126.792 126.792v0h327.502c70.024 0 126.792-56.768 126.792-126.792v0-187.147c0-18.346-14.873-33.218-33.218-33.218s-33.218 14.873-33.218 33.218v0 187.147c0 33.333-27.022 60.355-60.355 60.355v0h-327.502c-33.333 0-60.355-27.022-60.355-60.355v0-655.003c0-33.333 27.022-60.355 60.355-60.355v0h327.502c33.333 0 60.355 27.022 60.355 60.355v0 187.147c0 18.346 14.873 33.218 33.218 33.218s33.218-14.873 33.218-33.218v0-187.147c0-70.024-56.768-126.792-126.792-126.792v0z" />
<glyph unicode="&#xe916;" glyph-name="Icon_money" d="M810.667 251.733h-682.667c-62.583 0.241-113.252 50.91-113.493 113.47v341.356c0 0 0 0.001 0 0.001 0 62.766 50.761 113.677 113.47 113.919h682.69c62.583-0.241 113.252-50.91 113.493-113.47v-341.356c0 0 0-0.001 0-0.001 0-62.766-50.761-113.677-113.47-113.919h-0.023zM128 763.733c-31.576 0-57.173-25.597-57.173-57.173v-341.333c0.242-31.392 25.746-56.747 57.172-56.747 0.001 0 0.001 0 0.002 0h682.667c31.576 0 57.173 25.597 57.173 57.173v0 341.333c-0.242 31.392-25.746 56.747-57.172 56.747-0.001 0-0.001 0-0.002 0v0zM896 163.84h-682.667c-62.583 0.241-113.252 50.91-113.493 113.47v0.023c0 15.67 12.703 28.373 28.373 28.373s28.373-12.703 28.373-28.373v0c0 0 0-0.001 0-0.002 0-31.426 25.355-56.93 56.724-57.172h682.69c31.576 0 57.173 25.597 57.173 57.173v0 341.333c0 31.576-25.597 57.173-57.173 57.173v0c-15.67 0-28.373 12.703-28.373 28.373s12.703 28.373 28.373 28.373v0c62.733-0.242 113.493-51.153 113.493-113.919 0 0 0-0.001 0-0.001v0-341.333c-0.241-62.583-50.91-113.252-113.47-113.493h-0.023zM213.333 337.067h-85.333c-15.67 0-28.373 12.703-28.373 28.373s12.703 28.373 28.373 28.373v0h85.333c15.67 0 28.373-12.703 28.373-28.373s-12.703-28.373-28.373-28.373v0zM810.667 678.4h-85.333c-15.67 0-28.373 12.703-28.373 28.373s12.703 28.373 28.373 28.373v0h85.333c15.67 0 28.373-12.703 28.373-28.373s-12.703-28.373-28.373-28.373v0zM341.333 453.12c-11.782 0-21.333 9.551-21.333 21.333v0 186.88c0 11.782 9.551 21.333 21.333 21.333v0h55.893c42.769 0 77.44-34.671 77.44-77.44s-34.671-77.44-77.44-77.44v0h-18.347c-0.534-0.048-1.155-0.075-1.783-0.075-5.572 0-10.646 2.136-14.446 5.635l0.015-0.014v-60.587c-0.911-11.025-10.084-19.627-21.265-19.627-0.024 0-0.048 0-0.072 0h0.004zM362.667 640v-76.373c3.929 4.457 9.652 7.254 16.028 7.254 0.065 0 0.13 0 0.196-0.001h18.763c19.087 0 34.56 15.473 34.56 34.56s-15.473 34.56-34.56 34.56v0zM453.547 453.12c-0.013 0-0.028 0-0.043 0-8.365 0-15.605 4.814-19.101 11.823l-0.056 0.124-31.573 62.72h-61.44c-11.782 0-21.333 9.551-21.333 21.333s9.551 21.333 21.333 21.333v0h74.667c0.013 0 0.028 0 0.043 0 8.365 0 15.605-4.814 19.101-11.823l0.056-0.124 37.547-74.667c1.431-2.788 2.269-6.084 2.269-9.575 0-8.251-4.684-15.407-11.537-18.956l-0.119-0.056c-2.69-1.351-5.861-2.142-9.218-2.142-0.209 0-0.418 0.003-0.626 0.009l0.030-0.001zM528.213 378.453c-11.782 0-21.333 9.551-21.333 21.333v0 186.88c0 11.782 9.551 21.333 21.333 21.333s21.333-9.551 21.333-21.333v0-186.88c0-11.782-9.551-21.333-21.333-21.333v0zM584.107 453.12h-55.893c-11.782 0-21.333 9.551-21.333 21.333s9.551 21.333 21.333 21.333v0h55.893c19.087 0 34.56 15.473 34.56 34.56s-15.473 34.56-34.56 34.56h-55.893c-11.782 0-21.333 9.551-21.333 21.333s9.551 21.333 21.333 21.333v0h55.893c42.769 0 77.44-34.671 77.44-77.44s-34.671-77.44-77.44-77.44v0z" />
<glyph unicode="&#xe917;" glyph-name="Icon_credit_card" d="M853.333 126.72h-682.667c-63.859 0-115.627 51.768-115.627 115.627v0 411.307c0 63.859 51.768 115.627 115.627 115.627v0h682.667c63.859 0 115.627-51.768 115.627-115.627v-411.307c0-63.859-51.768-115.627-115.627-115.627v0zM170.667 708.693c-30.398 0-55.040-24.642-55.040-55.040v0-411.307c0-30.398 24.642-55.040 55.040-55.040v0h682.667c30.398 0 55.040 24.642 55.040 55.040v0 411.307c0 30.398-24.642 55.040-55.040 55.040v0zM938.667 503.040h-853.333c-16.731 0-30.293 13.563-30.293 30.293s13.563 30.293 30.293 30.293h853.333c16.731 0 30.293-13.563 30.293-30.293s-13.563-30.293-30.293-30.293v0zM810.667 247.040h-213.333c-16.731 0-30.293 13.563-30.293 30.293s13.563 30.293 30.293 30.293v0h213.333c16.731 0 30.293-13.563 30.293-30.293s-13.563-30.293-30.293-30.293v0zM938.667 545.707h-853.333c-16.731 0-30.293 13.563-30.293 30.293s13.563 30.293 30.293 30.293h853.333c16.731 0 30.293-13.563 30.293-30.293s-13.563-30.293-30.293-30.293v0z" />
<glyph unicode="&#xe918;" glyph-name="Icon_smartphone" d="M688.643-24.96h-353.285c-66.095 0-119.675 53.58-119.675 119.675v0 706.569c0 66.095 53.58 119.675 119.675 119.675h353.285c66.095 0 119.675-53.58 119.675-119.675v0-706.569c0-66.095-53.58-119.675-119.675-119.675v0zM335.357 858.251c-31.462 0-56.968-25.504-56.968-56.968v0-706.569c0-31.462 25.504-56.968 56.968-56.968v0h353.285c31.462 0 56.968 25.504 56.968 56.968v0 706.569c0 31.462-25.504 56.968-56.968 56.968v0zM776.964 151.683h-529.928c-17.317 0-31.353 14.037-31.353 31.353s14.037 31.353 31.353 31.353h529.928c17.317 0 31.353-14.037 31.353-31.353s-14.037-31.353-31.353-31.353v0zM776.964 725.769h-529.928c-17.317 0-31.353 14.037-31.353 31.353s14.037 31.353 31.353 31.353v0h529.928c17.317 0 31.353-14.037 31.353-31.353s-14.037-31.353-31.353-31.353v0zM556.161 63.361h-88.321c-17.317 0-31.353 14.037-31.353 31.353s14.037 31.353 31.353 31.353h88.321c17.317 0 31.353-14.037 31.353-31.353s-14.037-31.353-31.353-31.353v0z" />
<glyph unicode="&#xe919;" glyph-name="Icon_wifi" d="M962.82 412.938c-9.795 0.060-18.648 4.071-25.041 10.518l-0.002 0.002c-170.312 170.808-536.977 311.567-848.042 0-6.57-7.837-16.363-12.787-27.315-12.787-19.641 0-35.563 15.923-35.563 35.563 0 10.952 4.95 20.745 12.73 27.267l0.057 0.043c350.637 347.632 757.877 190.343 948.722 0 6.376-6.423 10.317-15.277 10.317-25.044 0-19.641-15.923-35.563-35.563-35.563-0.104 0-0.208 0-0.312 0.001h0.014zM692.325 142.443c-9.549 0.057-18.196 3.867-24.554 10.026l0.008-0.008c-59.608 57.105-179.327 133.745-311.065 0-6.57-7.837-16.363-12.787-27.315-12.787-19.641 0-35.563 15.923-35.563 35.563 0 10.952 4.95 20.745 12.73 27.267l0.057 0.043c186.34 185.838 361.157 46.083 410.245 0 6.678-6.474 10.823-15.525 10.823-25.545 0-19.571-15.812-35.452-35.356-35.563h-0.009zM825.568 278.19c-9.795 0.060-18.648 4.071-25.041 10.518l-0.002 0.002c-12.020 12.020-293.532 285.52-578.55 0-6.57-7.837-16.363-12.787-27.315-12.787-19.641 0-35.563 15.923-35.563 35.563 0 10.952 4.95 20.745 12.73 27.267l0.057 0.043c335.612 335.612 675.728 3.005 679.235 0 6.375-6.423 10.316-15.277 10.316-25.044 0-19.569-15.809-35.449-35.35-35.563h-0.009z" />
<glyph unicode="&#xe91a;" glyph-name="Icon_create" d="M692.357 10.184h-495.982c-42.584 0-77.103 34.519-77.103 77.103v0 721.427c0 42.584 34.519 77.103 77.103 77.103h315.626c42.584 0 77.103-34.519 77.103-77.103v0-90.178c0-7.221 5.855-13.075 13.075-13.075v0c17.682 0 32.012-14.334 32.012-32.012s-14.334-32.012-32.012-32.012v0c-42.584 0-77.103 34.519-77.103 77.103v90.178c0 7.221-5.855 13.075-13.075 13.075v0h-315.626c-7.221 0-13.075-5.855-13.075-13.075v0-721.427c0-7.221 5.855-13.075 13.075-13.075v0h495.982c7.221 0 13.075 5.855 13.075 13.075v0 450.892c0 17.682 14.334 32.012 32.012 32.012s32.012-14.334 32.012-32.012v-450.892c0-42.584-34.519-77.103-77.103-77.103v0zM331.643 145.453c-0.063 0-0.138 0-0.216 0-42.584 0-77.103 34.519-77.103 77.103 0 4.621 0.405 9.145 1.184 13.539l-0.068-0.464 12.174 77.103c2.003 16.27 8.836 30.661 19 42.005l-0.063-0.072 476.592 523.485c14.168 15.649 34.558 25.441 57.234 25.441 20.224 0 38.631-7.785 52.382-20.527l-0.050 0.046 66.732-60.87c15.385-14.141 24.991-34.36 24.991-56.825 0-19.99-7.607-38.202-20.086-51.904l0.055 0.061-477.493-523.034c-9.964-11.043-23.019-19.121-37.799-22.882l-0.526-0.114-78.906-19.838c-5.404-1.394-11.614-2.214-18.011-2.253h-0.025zM810.491 835.315l-476.141-522.584c-1.609-1.841-2.731-4.143-3.145-6.686l-0.010-0.077-12.625-83.415c-0.122-0.673-0.192-1.449-0.192-2.24 0-7.221 5.855-13.075 13.075-13.075 1.19 0 2.345 0.16 3.442 0.457l-0.093-0.020 78.906 19.838c2.489 0.639 4.625 1.9 6.311 3.607l0.001 0.001 476.592 525.738c2.237 2.342 3.615 5.523 3.615 9.027 0 0.156-0.003 0.312-0.008 0.464l0.001-0.021c-0.128 3.558-1.66 6.735-4.054 9.012l-0.005 0.005-68.534 60.87c-2.277 2.239-5.403 3.623-8.853 3.623-0.218 0-0.434-0.005-0.649-0.015l0.031 0.001c-3.558-0.128-6.735-1.66-9.012-4.054l-0.005-0.005zM859.638 636.472c-0.101-0.001-0.22-0.002-0.339-0.002-8.196 0-15.673 3.079-21.334 8.145l-135.237 121.263c-4.621 5.512-7.427 12.679-7.427 20.503 0 17.682 14.334 32.012 32.012 32.012 7.823 0 14.994-2.806 20.553-7.469l-0.050 0.041 135.269-121.289c6.294-5.862 10.217-14.196 10.217-23.447 0-17.627-14.245-31.926-31.85-32.012h-0.008z" />
<glyph unicode="&#xe91b;" glyph-name="Icon_rocket" d="M594.353 354.417c-0.068 0-0.153 0-0.233 0-48.139 0-91.728 19.49-123.3 51.004l0.003-0.003c-31.683 31.674-51.276 75.429-51.276 123.768s19.598 92.094 51.275 123.768l198.402 198.402c32.109 30.7 75.729 49.602 123.768 49.602s91.654-18.896 123.835-49.665l-0.066 0.063c31.683-31.674 51.276-75.429 51.276-123.768s-19.598-92.094-51.275-123.768v0l-198.868-197.463c-31.506-31.914-75.184-51.738-123.496-51.94h-0.039zM519.487 454.553c19.148-19.189 45.623-31.066 74.867-31.066s55.724 11.871 74.865 31.064l0.002 0.002 198.402 199.335c19.189 19.148 31.066 45.623 31.066 74.867s-11.871 55.724-31.064 74.865l-0.002 0.002c-19.393 18.645-45.787 30.125-74.867 30.125s-55.474-11.48-74.904-30.161l0.037 0.036-198.402-198.402c-19.189-19.148-31.066-45.623-31.066-74.867s11.871-55.724 31.064-74.865l0.002-0.002zM329.51 494.792c-9.15 0.055-17.418 3.801-23.396 9.823l-0.002 0.002-65.975 68.318c-5.955 6.003-9.636 14.271-9.636 23.398s3.681 17.395 9.638 23.4l-0.002-0.002c31.401 31.32 74.737 50.69 122.597 50.69s91.196-19.37 122.6-50.693l-0.003 0.003c7.322-6.135 11.947-15.288 11.947-25.515 0-18.351-14.873-33.223-33.223-33.223-10.227 0-19.38 4.625-25.472 11.895l-0.043 0.052c-19.45 19.323-46.253 31.263-75.84 31.263-17.74 0-34.476-4.293-49.228-11.895l0.605 0.283 38.838-38.838c7.546-6.138 12.327-15.426 12.327-25.833 0-18.351-14.873-33.223-33.223-33.223-0.883 0-1.754 0.036-2.616 0.103l0.114-0.007zM660.333 167.245c-9.15 0.055-17.418 3.801-23.396 9.823l-0.002 0.002-65.975 65.042c-4.797 5.72-7.708 13.158-7.708 21.277 0 18.351 14.873 33.223 33.223 33.223 8.118 0 15.557-2.911 21.329-7.752l-0.052 0.043 38.838-38.838c7.382 14.166 11.716 30.937 11.716 48.716 0 29.583-11.985 56.363-31.367 75.753v0c-7.322 6.135-11.947 15.288-11.947 25.515 0 18.351 14.873 33.223 33.223 33.223 10.227 0 19.38-4.625 25.472-11.895l0.043-0.052c31.32-31.401 50.69-74.737 50.69-122.597s-19.37-91.196-50.693-122.6l0.003 0.003c-5.913-5.513-13.878-8.9-22.63-8.9-0.271 0-0.536 0.003-0.805 0.009l0.041-0.001zM759.532 662.308c-18.266 0.109-33.035 14.938-33.035 33.223 0 9.127 3.681 17.396 9.638 23.401l33.221 33.221c5.72 4.797 13.158 7.708 21.277 7.708 18.351 0 33.223-14.873 33.223-33.223 0-8.118-2.911-15.557-7.752-21.329l0.043 0.052-33.223-33.223c-5.976-6.024-14.243-9.77-23.384-9.825h-0.009zM90.865 208.422c-18.266 0.109-33.035 14.938-33.035 33.223 0 9.127 3.681 17.396 9.638 23.401l65.973 65.973c5.72 4.797 13.158 7.708 21.277 7.708 18.351 0 33.223-14.873 33.223-33.223 0-8.118-2.911-15.557-7.752-21.329l0.043 0.052-65.975-66.447c-5.971-5.79-14.126-9.359-23.117-9.359-0.1 0-0.195 0-0.295 0.001h0.014zM118.473 21.25c-18.266 0.109-33.035 14.938-33.035 33.223 0 9.127 3.681 17.396 9.638 23.401l65.973 65.973c5.72 4.797 13.158 7.708 21.277 7.708 18.351 0 33.223-14.873 33.223-33.223 0-8.118-2.911-15.557-7.752-21.329l0.043 0.052-65.975-66.447c-5.971-5.79-14.126-9.359-23.117-9.359-0.1 0-0.195 0-0.295 0.001h0.014zM418.417-6.353c-18.266 0.109-33.035 14.938-33.035 33.223 0 9.127 3.681 17.396 9.638 23.401l65.973 65.973c5.72 4.797 13.158 7.708 21.277 7.708 18.351 0 33.223-14.873 33.223-33.223 0-8.118-2.911-15.557-7.752-21.329l0.043 0.052-65.975-65.975c-5.976-6.024-14.243-9.77-23.384-9.825h-0.009zM366.005 175.198c-69.18 1.113-124.832 57.452-124.832 126.793 0 34.879 14.080 66.469 36.87 89.393l33.217 33.217c6.135 7.322 15.288 11.947 25.515 11.947 18.351 0 33.223-14.873 33.223-33.223 0-10.227-4.625-19.38-11.895-25.472l-0.052-0.043-33.223-33.223c-16.212-10.992-26.724-29.328-26.724-50.122 0-33.338 27.027-60.36 60.36-60.36 20.794 0 39.13 10.511 49.984 26.516l0.133 0.213 33.223 33.223c6.135 7.322 15.288 11.947 25.515 11.947 18.351 0 33.223-14.873 33.223-33.223 0-10.227-4.625-19.38-11.895-25.472l-0.052-0.043-33.223-33.223c-22.629-23.546-54.225-38.33-89.278-38.837l-0.096-0.001z" />
<glyph unicode="&#xe91c;" glyph-name="Icon_smile" d="M512-30.293c-264.152 0-478.293 214.141-478.293 478.293s214.141 478.293 478.293 478.293c264.152 0 478.293-214.141 478.293-478.293v0c-0.283-264.038-214.255-478.011-478.27-478.293h-0.023zM512 856.347c-225.523 0-408.347-182.824-408.347-408.347s182.824-408.347 408.347-408.347c225.523 0 408.347 182.824 408.347 408.347v0c-0.283 225.409-182.938 408.064-408.323 408.347h-0.023zM364.224 511.544c-19.315 0-34.973 15.659-34.973 34.973v0 49.259c0 19.315 15.659 34.973 34.973 34.973s34.973-15.659 34.973-34.973v-49.259c0-19.315-15.659-34.973-34.973-34.973v0zM659.776 511.544c-19.315 0-34.973 15.659-34.973 34.973v0 49.259c0 19.315 15.659 34.973 34.973 34.973s34.973-15.659 34.973-34.973v0-49.259c0-19.315-15.659-34.973-34.973-34.973v0zM512 166.741c-5.268-0.404-11.413-0.634-17.612-0.634-88.724 0-166.493 46.918-209.846 117.293l-0.609 1.066c-2.366 4.591-3.75 10.010-3.75 15.765 0 19.348 15.679 35.027 35.027 35.027 13.593 0 25.386-7.75 31.19-19.067l0.096-0.195c32.816-48.521 87.639-79.99 149.813-79.99 5.522 0 10.994 0.247 16.39 0.733l-0.699-0.052c4.843-0.464 10.47-0.725 16.158-0.725 62.189 0 117.023 31.492 149.429 79.395l0.407 0.639c5.808 11.73 17.699 19.658 31.442 19.658 6.574 0 12.724-1.811 17.978-4.966l-0.161 0.084c11.254-5.966 18.79-17.601 18.79-31.008 0-5.566-1.303-10.828-3.611-15.499l0.095 0.201c-43.944-71.546-121.769-118.539-210.565-118.539-7.030 0-13.984 0.295-20.861 0.874l0.899-0.061z" />
<glyph unicode="&#xe91d;" glyph-name="Icon_protect" d="M462.677 314.333c-9.649 0.058-18.363 4.010-24.659 10.358l-98.655 98.655c-5.052 6.031-8.124 13.87-8.124 22.426 0 19.339 15.683 35.021 35.021 35.021 8.555 0 16.403-3.072 22.481-8.171l-0.055 0.046 73.984-73.984 172.637 172.637c6.031 5.052 13.87 8.124 22.426 8.124 19.339 0 35.021-15.683 35.021-35.021 0-8.555-3.072-16.403-8.171-22.481l0.046 0.055-197.299-197.299c-6.299-6.35-15.012-10.302-24.652-10.36h-0.009zM512-25.512c-16.489 0.049-32.25 3.123-46.772 8.692l0.9-0.303c-89.275 33.051-334.424 193.349-334.424 415.808v320.115c0.532 60.996 41.685 112.239 97.708 128.017l0.945 0.229 246.621 70.533c11.011 3.268 23.657 5.151 36.747 5.151s25.736-1.883 37.692-5.389l-0.945 0.238 246.621-70.533c56.96-16.006 98.113-67.25 98.645-128.185v-320.176c0-222.451-246.621-382.757-333.925-415.808-13.767-5.337-29.703-8.429-46.36-8.429-1.219 0-2.427 0.014-3.631 0.051l0.178-0.003zM494.739 850.488l-246.621-70.533c-26.852-7.922-46.157-32.256-46.363-61.142v-320.144c0-173.128 203.709-318.635 288.552-350.205 6.445-2.524 13.906-3.979 21.701-3.979s15.256 1.463 22.118 4.126l-0.417-0.139c84.835 31.571 288.552 177.077 288.552 350.205v320.115c-0.214 28.907-19.511 53.24-45.914 61.047l-0.456 0.116-246.621 70.533c-5.25 1.557-11.272 2.453-17.507 2.453s-12.265-0.896-17.96-2.567l0.453 0.114z" />
<glyph unicode="&#xe91e;" glyph-name="Icon_design" d="M586.121 373.389c-0.021 0-0.054 0-0.079 0-23.006 0-43.836 9.314-58.926 24.386l0.001-0.001-63.88 63.391c-15.077 15.092-24.407 35.93-24.407 58.947 0 25.354 11.314 48.067 29.169 63.359l0.113 0.097 373.538 315.995c14.428 12.068 33.178 19.389 53.636 19.389 23.012 0 43.857-9.271 59.014-24.277l5.359-5.359c14.842-15.119 24.006-35.863 24.006-58.739 0-20.586-7.412-39.433-19.717-54.030l0.105 0.124-315.995-373.538c-14.647-17.127-35.924-28.213-59.804-29.256l-0.173-0.005zM896.751 849.819c-0.013 0-0.036 0-0.052 0-3.528 0-6.757-1.292-9.233-3.427l0.016 0.013-375.482-315.505c-2.861-2.595-4.651-6.331-4.651-10.482s1.79-7.888 4.641-10.473l0.010-0.009 63.88-61.929c2.608-2.427 6.111-3.921 9.967-3.921 0.269 0 0.537 0.006 0.796 0.019l-0.039-0.001c4.093 0.131 7.729 1.992 10.228 4.861l0.013 0.015 315.995 373.538c2.281 2.504 3.677 5.84 3.677 9.51s-1.396 7.006-3.686 9.52l0.009-0.010-5.365 5.365c-2.471 2.168-5.728 3.484-9.297 3.484-0.504 0-1.002-0.023-1.494-0.075l0.061 0.005zM347.661 218.319c-0.227-0.001-0.498-0.002-0.769-0.002-36.276 0-69.115 14.725-92.86 38.523l-0.002 0.002c-6.207 6.257-10.039 14.873-10.039 24.385s3.839 18.128 10.041 24.387l103.38 103.38c15.296 14.661 36.099 23.685 59.005 23.685s43.708-9.024 59.038-23.717l-0.034 0.032c15.115-15.097 24.465-35.955 24.465-59.005s-9.35-43.908-24.464-59.004l-34.62-34.62c-23.697-23.51-56.336-38.035-92.371-38.035-0.271 0-0.542 0.001-0.806 0.002h0.043zM334.986 288.544c3.874-0.842 8.329-1.327 12.89-1.327 17.417 0 33.196 7.021 44.656 18.399l34.616 34.616c2.56 2.561 4.139 6.094 4.139 10s-1.58 7.439-4.14 10v0c-2.233 3.171-5.876 5.212-10 5.212s-7.766-2.048-9.97-5.172l-0.023-0.041zM804.589 23.264h-585.171c-72.987 0-132.154 59.167-132.154 132.154v0 585.171c0 72.987 59.167 132.154 132.154 132.154v0h438.88c19.125 0 34.619-15.502 34.619-34.619s-15.502-34.619-34.619-34.619v0h-438.88c-34.745 0-62.908-28.163-62.908-62.908v0-585.171c0-34.745 28.163-62.908 62.908-62.908v0h585.171c34.745 0 62.908 28.163 62.908 62.908v0 438.88c0 19.125 15.502 34.619 34.619 34.619s34.619-15.502 34.619-34.619v-438.88c0-72.987-59.167-132.154-132.154-132.154v0z" />
<glyph unicode="&#xe91f;" glyph-name="Icon_account" d="M512-22.293c-259.734 0-470.293 210.559-470.293 470.293s210.559 470.293 470.293 470.293c259.734 0 470.293-210.559 470.293-470.293v0c-0.278-259.622-210.671-470.016-470.27-470.293h-0.023zM512 849.517c-221.751 0-401.517-179.766-401.517-401.517s179.766-401.517 401.517-401.517c221.751 0 401.517 179.766 401.517 401.517v0c-0.278 221.639-179.878 401.239-401.493 401.517h-0.023zM508.125 171.445c-11.606-0.881-25.146-1.386-38.797-1.386-69.801 0-136.545 13.124-197.881 37.044l3.709-1.276c-28.298 15.565-47.16 45.183-47.16 79.201 0 17.070 4.751 33.037 12.998 46.639l-0.227-0.402c24.638 43.211 66.877 73.975 116.694 82.675l1 0.141c7.245 0.549 15.695 0.868 24.217 0.868s16.973-0.312 25.335-0.933l-1.118 0.065 10.654 26.638c5.23 12.773 17.567 21.614 31.968 21.614 19.027 0 34.447-15.42 34.447-34.447 0-4.627-0.915-9.038-2.567-13.063l0.080 0.23-19.859-48.435c-5.278-12.633-17.529-21.347-31.818-21.347-0.566 0-1.121 0.012-1.681 0.042l0.076-0.003c-8.894 0.487-19.306 0.767-29.789 0.767s-20.887-0.28-31.228-0.828l1.446 0.061c-30.134-4.777-55.249-22.875-69.493-47.956l-0.249-0.478c-1.985-3.176-3.161-7.036-3.161-11.167 0-8.146 4.569-15.22 11.28-18.807l0.115-0.056c50.11-18.121 107.945-28.605 168.231-28.605 11.187 0 22.292 0.36 33.307 1.070l-1.504-0.075c9.511-0.635 20.617-0.995 31.803-0.995 60.279 0 118.114 10.477 171.78 29.71l-3.549-1.112c6.735 3.799 11.205 10.897 11.205 19.048 0 4.048-1.104 7.833-3.021 11.086l0.056-0.103c-14.5 25.56-39.615 43.658-69.193 48.364l-0.549 0.071c-8.896 0.504-19.306 0.783-29.789 0.783s-20.887-0.286-31.225-0.845l1.436 0.062c-0.477-0.021-1.040-0.040-1.598-0.040-14.289 0-26.547 8.714-31.737 21.119l-0.081 0.228-19.859 48.435c-1.571 3.802-2.479 8.213-2.479 12.833 0 19.027 15.42 34.447 34.447 34.447 14.401 0 26.738-8.834 31.881-21.384l0.080-0.23 10.654-26.638c7.244 0.537 15.696 0.842 24.217 0.842s16.974-0.305 25.339-0.906l-1.122 0.064c50.591-8.511 92.766-38.74 117.269-80.582l0.425-0.786c8.817-13.683 14.056-30.39 14.056-48.322 0-33.566-18.355-62.843-45.576-78.345l-0.447-0.233c-57.653-22.667-124.412-35.8-194.246-35.8-13.798 0-27.47 0.515-41.013 1.521l1.809-0.109zM508.125 397.145c-109.943 0-149.662 122.052-149.662 204.392 0 82.655 67.007 149.662 149.662 149.662s149.662-67.007 149.662-149.662v0c-0.483-82.34-39.719-204.392-149.662-204.392zM508.125 680.485c-0.29 0.003-0.634 0.005-0.977 0.005-43.798 0-79.366-35.231-79.907-78.901v-0.052c0-44.077 19.859-135.616 80.885-135.616s80.885 91.539 80.885 135.616c-0.814 43.509-36.275 78.47-79.901 78.47-0.346 0-0.692-0.002-1.037-0.006h0.053z" />
<glyph unicode="&#xe920;" glyph-name="Icon_gear" d="M512 268.308c-99.239 0-179.692 80.446-179.692 179.692s80.446 179.692 179.692 179.692c99.239 0 179.692-80.446 179.692-179.692v0c0-99.239-80.446-179.692-179.692-179.692v0zM512 558.916c-61.256 0-110.916-49.66-110.916-110.916s49.66-110.916 110.916-110.916c61.256 0 110.916 49.66 110.916 110.916v0c0 61.256-49.66 110.916-110.916 110.916v0zM560.435-22.293h-96.869c-45.741 0-82.823 37.082-82.823 82.823v0 25.672l-31.968 13.074-17.922-17.922c-14.992-15.010-35.717-24.297-58.606-24.297s-43.614 9.287-58.605 24.296l-68.295 68.295c-15.010 14.992-24.297 35.717-24.297 58.606s9.287 43.614 24.296 58.605l17.923 17.923-13.074 31.968h-25.672c-45.741 0-82.823 37.082-82.823 82.823v96.869c0 45.741 37.082 82.823 82.823 82.823v0h25.672l13.074 31.968-17.922 17.922c-15.010 14.992-24.297 35.717-24.297 58.606s9.287 43.614 24.296 58.605l68.295 68.295c14.992 15.010 35.717 24.297 58.606 24.297s43.614-9.287 58.605-24.296l17.923-17.923 31.968 13.074v25.672c0 45.741 37.082 82.823 82.823 82.823h96.869c45.741 0 82.823-37.082 82.823-82.823v0-25.672l31.968-13.074 17.922 17.922c14.992 15.010 35.717 24.297 58.606 24.297s43.614-9.287 58.605-24.296l68.295-68.295c15.010-14.992 24.297-35.717 24.297-58.606s-9.287-43.614-24.296-58.605l-17.923-17.923 13.074-31.968h25.672c45.741 0 82.823-37.082 82.823-82.823v0-96.869c0-45.741-37.082-82.823-82.823-82.823v0h-25.672l-13.074-31.968 17.922-17.922c15.010-14.992 24.297-35.717 24.297-58.606s-9.287-43.614-24.296-58.605l-0.001-0.001-68.777-68.294c-14.992-15.010-35.717-24.297-58.606-24.297s-43.614 9.287-58.605 24.296l-17.923 17.923-31.968-13.074v-25.672c0 0 0-0.001 0-0.001 0-45.57-36.805-82.545-82.31-82.822h-0.023zM340.541 173.866c0.172 0.003 0.37 0.004 0.576 0.004 4.508 0 8.804-0.89 12.721-2.51l-0.224 0.078 74.59-30.996c12.515-5.242 21.172-17.336 21.314-31.463v-48.45c0-7.758 6.289-14.046 14.046-14.046v0h96.869c7.758 0 14.046 6.289 14.046 14.046v0 48.435c0.135 14.15 8.799 26.236 21.087 31.397l0.228 0.081 74.59 30.996c3.919 1.711 8.479 2.708 13.279 2.708 9.386 0 17.876-3.813 24.019-9.975l34.389-34.389c2.54-2.539 6.052-4.111 9.93-4.111s7.39 1.573 9.93 4.112l68.294 68.294c2.539 2.54 4.111 6.052 4.111 9.93s-1.573 7.39-4.112 9.93v0l-34.388 36.326c-6.112 6.207-9.884 14.722-9.884 24.125 0 4.752 0.961 9.277 2.705 13.393l-0.082-0.227 30.996 74.59c5.242 12.515 17.336 21.172 31.463 21.314h48.45c7.758 0 14.046 6.289 14.046 14.046v0 94.932c0 7.758-6.289 14.046-14.046 14.046v0h-48.435c-14.15 0.135-26.236 8.799-31.397 21.087l-0.081 0.228-30.996 74.59c-1.316 3.508-2.080 7.56-2.080 11.783 0 9.128 3.562 17.426 9.362 23.585l-0.014-0.015 34.388 34.388c2.539 2.54 4.111 6.052 4.111 9.93s-1.573 7.39-4.112 9.93v0l-68.294 70.232c-2.54 2.539-6.052 4.111-9.93 4.111s-7.39-1.573-9.93-4.112v0l-36.326-34.388c-6.137-6.162-14.633-9.976-24.020-9.976-4.8 0-9.359 0.997-13.5 2.796l0.221-0.082-74.59 30.996c-11.565 5.703-19.38 17.408-19.38 30.937 0 0.189 0.001 0.378 0.004 0.574v-0.025 48.435c0 7.758-6.289 14.046-14.046 14.046v0h-96.869c-7.758 0-14.046-6.289-14.046-14.046v0-48.435c-0.135-14.15-8.799-26.236-21.087-31.397l-0.228-0.081-74.59-30.996c-3.508-1.316-7.56-2.080-11.783-2.080-9.128 0-17.426 3.562-23.585 9.362l0.015-0.014-34.388 34.388c-2.54 2.539-6.052 4.111-9.93 4.111s-7.39-1.573-9.93-4.112v0l-70.232-68.294c-2.539-2.54-4.111-6.052-4.111-9.93s1.573-7.39 4.112-9.93v0l34.388-36.326c6.112-6.207 9.884-14.722 9.884-24.125 0-4.752-0.961-9.277-2.705-13.393l0.082 0.227-30.996-74.59c-5.242-12.515-17.336-21.172-31.463-21.314h-48.45c-7.758 0-14.046-6.289-14.046-14.046v0-96.869c0-7.758 6.289-14.046 14.046-14.046v0h48.435c14.15-0.135 26.236-8.799 31.397-21.087l0.081-0.228 30.996-74.59c1.656-3.889 2.623-8.415 2.623-13.166 0-9.403-3.772-17.925-9.888-24.136l-34.384-34.384c-2.539-2.54-4.111-6.052-4.111-9.93s1.573-7.39 4.112-9.93l68.294-68.294c2.54-2.539 6.052-4.111 9.93-4.111s7.39 1.573 9.93 4.112l36.326 36.326c5.795 5.635 13.576 9.244 22.2 9.685l0.079 0.003z" />
<glyph unicode="&#xe921;" glyph-name="Icon_analytics" d="M882.725 44.373h-741.451c-18.171 0-32.901 14.731-32.901 32.901v0 741.451c0 18.171 14.731 32.901 32.901 32.901s32.901-14.731 32.901-32.901v0-708.549h708.549c18.171 0 32.901-14.731 32.901-32.901s-14.731-32.901-32.901-32.901v0zM280.299 368.756c-0.093-0.001-0.202-0.001-0.311-0.001-18.171 0-32.901 14.731-32.901 32.901 0 10.784 5.187 20.352 13.203 26.353l0.087 0.061 185.363 139.020c5.418 4.083 12.266 6.541 19.685 6.541 9.16 0 17.443-3.741 23.408-9.78l115.854-115.854 254.875 212.241c5.705 4.885 13.174 7.857 21.337 7.857 18.171 0 32.901-14.731 32.901-32.901 0-10.239-4.678-19.385-12.011-25.421l-0.056-0.046-278.044-231.701c-5.945-5.898-14.131-9.542-23.169-9.542s-17.224 3.644-23.171 9.544l-119.091 119.091-158.021-121.877c-5.406-4.051-12.227-6.491-19.619-6.491-0.108 0-0.215 0-0.322 0.001h0.015zM882.725 461.437c-18.171 0-32.901 14.731-32.901 32.901v0 115.388l-116.78 38.928c-14.69 3.502-25.445 16.517-25.445 32.045 0 18.171 14.731 32.901 32.901 32.901 4.851 0 9.456-1.051 13.606-2.935l-0.206 0.085 139.020-46.339c13.025-4.555 22.207-16.723 22.244-31.043v-139.028c0-0.001 0-0.002 0-0.003 0-18.009-14.469-32.638-32.412-32.898h-0.023z" />
<glyph unicode="&#xe922;" glyph-name="Icon_stars" d="M293.977 50.017c-48.443 0.154-87.659 39.457-87.659 87.927 0 5.272 0.465 10.427 1.355 15.442l-0.074-0.53 32.397 189.224c0.168 0.845 0.267 1.814 0.267 2.81 0 4.124-1.677 7.861-4.382 10.56v0l-135.235 133.694c-16.408 15.986-26.593 38.311-26.593 63.006 0 43.242 31.21 79.193 72.336 86.55l0.532 0.084 190.249 27.765c5.004 0.729 9.142 3.849 11.271 8.141l0.041 0.090 84.845 172.255c14.748 29.078 44.421 48.657 78.672 48.657s63.924-19.578 78.445-48.16l0.227-0.496 84.845-172.255c2.171-4.382 6.308-7.501 11.228-8.214l0.085-0.008 189.741-27.765c41.87-7.251 73.312-43.306 73.312-86.704 0-24.654-10.15-46.945-26.497-62.912l-0.014-0.014-137.293-134.202c-2.705-2.699-4.382-6.436-4.382-10.56 0-0.996 0.099-1.964 0.28-2.906l-0.013 0.097 32.397-189.224c0.787-4.409 1.231-9.499 1.231-14.684 0-48.557-39.37-87.927-87.927-87.927-14.925 0-28.985 3.717-41.3 10.288l0.474-0.227-169.681 89.468c-2.012 1.076-4.4 1.71-6.939 1.71s-4.927-0.634-7.023-1.752l0.084 0.041-169.681-89.468c-11.505-6.048-25.114-9.656-39.554-9.771h-0.040zM512 822.85c-0.107 0.002-0.229 0.004-0.361 0.004-5.711 0-10.643-3.326-12.97-8.145l-0.040-0.089-84.845-172.255c-12.896-25.463-37.118-43.562-65.859-47.76l-0.476-0.056-189.741-27.765c-7.363-0.989-12.991-7.232-12.991-14.79 0-4.314 1.832-8.193 4.752-10.911l0.007-0.007 137.293-134.202c16.328-15.975 26.445-38.235 26.445-62.861 0-5.225-0.459-10.343-1.327-15.315l0.073 0.528-32.397-189.741c-0.161-0.828-0.256-1.776-0.256-2.742 0-8.238 6.674-14.911 14.911-14.911 2.538 0 4.925 0.634 7.021 1.751l-0.084-0.041 169.681 89.468c11.851 6.349 25.926 10.083 40.877 10.083s29.026-3.734 41.35-10.311l-0.473 0.227 169.681-89.468c2.237-1.512 5.004-2.411 7.972-2.411s5.726 0.899 8.024 2.439l-0.052-0.036c3.917 2.61 6.462 7.020 6.462 12.013 0 1.022-0.107 2.023-0.312 2.995l0.014-0.096-32.397 189.224c-0.796 4.444-1.255 9.562-1.255 14.787 0 24.626 10.118 46.885 26.432 62.848l0.013 0.013 137.293 134.202c2.928 2.734 4.76 6.612 4.76 10.926 0 7.558-5.619 13.801-12.909 14.783l-0.072 0.007-189.741 29.306c-29.217 4.263-53.439 22.362-66.099 47.319l-0.227 0.497-84.845 172.255c-2.367 4.908-7.299 8.234-13.010 8.234-0.123 0-0.254-0.001-0.376-0.004h0.015z" />
<glyph unicode="&#xe923;" glyph-name="Icon_game" d="M554.273 695.211l-162.664 162.664c-22.527 22.5-53.636 36.417-87.995 36.417s-65.464-13.916-87.996-36.418l0.001 0.001-163.123-162.664c-22.5-22.527-36.417-53.636-36.417-87.995s13.916-65.464 36.418-87.996l163.122-163.122c22.527-22.5 53.636-36.417 87.995-36.417s65.464 13.916 87.996 36.418l162.663 162.663c22.636 22.552 36.646 53.751 36.646 88.224s-14.006 65.672-36.643 88.22l-0.004 0.004zM508.323 565.172l-162.664-163.123c-10.884-10.48-25.71-16.939-42.044-16.939s-31.16 6.455-42.062 16.956l0.018-0.017-163.123 163.123c-10.805 10.74-17.49 25.613-17.49 42.044s6.685 31.304 17.487 42.041l0.003 0.003 163.123 162.205c10.74 10.805 25.613 17.49 42.044 17.49s31.304-6.685 42.041-17.487l162.667-162.667c10.53-10.693 17.032-25.377 17.032-41.584 0-16.436-6.686-31.305-17.488-42.042l-0.003-0.003zM271.223 769.651c-8.375-8.326-13.555-19.853-13.555-32.588 0-25.376 20.575-45.951 45.951-45.951s45.951 20.575 45.951 45.951c0 12.739-5.184 24.262-13.553 32.585l-0.002 0.002c-8.304 8.26-19.755 13.363-32.396 13.363s-24.088-5.104-32.398-13.365l0.002 0.002zM271.223 509.573c-8.375-8.326-13.555-19.853-13.555-32.588 0-25.376 20.575-45.951 45.951-45.951s45.951 20.575 45.951 45.951c0 12.739-5.184 24.262-13.553 32.585l-0.002 0.002c-8.304 8.26-19.755 13.363-32.396 13.363s-24.088-5.104-32.398-13.365l0.002 0.002zM271.223 639.612c-8.375-8.326-13.555-19.853-13.555-32.588 0-25.376 20.575-45.951 45.951-45.951s45.951 20.575 45.951 45.951c0 12.739-5.184 24.262-13.553 32.585l-0.002 0.002c-8.304 8.26-19.755 13.363-32.396 13.363s-24.088-5.104-32.398-13.365l0.002 0.002zM833.651 477.407h-229.749c-68.775 0-124.523-55.752-124.523-124.523v0-229.749c0-68.775 55.752-124.523 124.523-124.523v0h229.749c68.775 0 124.523 55.752 124.523 124.523v0 229.749c0 68.775-55.752 124.523-124.523 124.523v0zM892.927 123.135c0-32.738-26.538-59.276-59.276-59.276v0h-229.749c-32.738 0-59.276 26.538-59.276 59.276v0 229.749c0 32.738 26.538 59.276 59.276 59.276v0h229.749c32.738 0 59.276-26.538 59.276-59.276v0zM672.825 329.907c0-25.376-20.575-45.951-45.951-45.951s-45.951 20.575-45.951 45.951c0 25.376 20.575 45.951 45.951 45.951s45.951-20.575 45.951-45.951zM810.673 192.059c-25.376 0-45.951-20.575-45.951-45.951s20.575-45.951 45.951-45.951c25.376 0 45.951 20.575 45.951 45.951v0c0 25.376-20.575 45.951-45.951 45.951v0zM856.624 329.907c0-25.376-20.575-45.951-45.951-45.951s-45.951 20.575-45.951 45.951c0 25.376 20.575 45.951 45.951 45.951s45.951-20.575 45.951-45.951zM626.875 192.059c-25.376 0-45.951-20.575-45.951-45.951s20.575-45.951 45.951-45.951c25.376 0 45.951 20.575 45.951 45.951v0c0 25.376-20.575 45.951-45.951 45.951v0z" />
<glyph unicode="&#xe924;" glyph-name="Icon_idea" d="M609.492 120.911h-194.985c-19.118 0-34.612 15.495-34.612 34.612v0 104.809c-59.278 42.085-97.492 110.476-97.492 187.786 0 126.807 102.797 229.597 229.597 229.597s229.597-102.797 229.597-229.597c0-77.317-38.215-145.701-96.788-187.311l-0.712-0.482v-104.809c0-19.118-15.495-34.612-34.612-34.612v0zM449.113 190.128h125.767v89.21c0.039 12.61 6.805 23.625 16.902 29.646l0.16 0.091c48.275 28.244 80.19 79.844 80.19 138.892 0 88.572-71.8 160.379-160.379 160.379s-160.379-71.8-160.379-160.379c0-59.048 31.915-110.648 79.429-138.484l0.753-0.408c10.256-6.112 17.023-17.127 17.061-29.732v-0.005zM512 754.621c-19.118 0-34.612 15.495-34.612 34.612v97.492c0 19.118 15.495 34.612 34.612 34.612s34.612-15.495 34.612-34.612v0-97.492c0-19.118-15.495-34.612-34.612-34.612v0zM268.266 657.122c-9.535 0.057-18.144 3.963-24.369 10.232l-0.002 0.002-69.218 68.735c-4.995 5.957-8.029 13.706-8.029 22.167 0 19.118 15.495 34.612 34.612 34.612 8.46 0 16.21-3.034 22.221-8.075l-0.054 0.045 69.218-68.735c6.207-6.25 10.039-14.867 10.039-24.372 0-19.042-15.382-34.499-34.401-34.612h-0.009zM170.773 413.388h-97.492c-19.118 0-34.612 15.495-34.612 34.612s15.495 34.612 34.612 34.612v0h97.492c19.118 0 34.612-15.495 34.612-34.612s-15.495-34.612-34.612-34.612v0zM950.726 413.388h-97.492c-19.118 0-34.612 15.495-34.612 34.612s15.495 34.612 34.612 34.612v0h97.492c19.118 0 34.612-15.495 34.612-34.612s-15.495-34.612-34.612-34.612v0zM750.859 652.253c-19.029 0.113-34.411 15.562-34.411 34.612 0 9.505 3.832 18.122 10.041 24.374l68.733 68.733c5.957 4.995 13.706 8.029 22.167 8.029 19.118 0 34.612-15.495 34.612-34.612 0-8.46-3.034-16.21-8.075-22.221l0.045 0.054-68.735-68.735c-6.228-6.278-14.836-10.177-24.362-10.234h-0.009zM609.492 23.411h-194.985c-19.118 0-34.612 15.495-34.612 34.612s15.495 34.612 34.612 34.612h194.985c19.118 0 34.612-15.495 34.612-34.612s-15.495-34.612-34.612-34.612v0z" />
<glyph unicode="&#xe925;" glyph-name="Icon_product" d="M368.346 30.929h-143.654c-71.665 0-129.769 58.098-129.769 129.769v0 143.654c0 71.665 58.098 129.769 129.769 129.769h143.654c71.665 0 129.769-58.098 129.769-129.769v0-143.654c0-71.665-58.098-129.769-129.769-129.769v0zM224.698 366.118c-34.118 0-61.772-27.654-61.772-61.772v0-143.654c0-34.118 27.654-61.772 61.772-61.772v0h143.654c34.118 0 61.772 27.654 61.772 61.772v0 143.654c0 34.118-27.654 61.772-61.772 61.772v0zM799.302 30.929h-143.654c-71.665 0-129.769 58.098-129.769 129.769v0 143.654c0 71.665 58.098 129.769 129.769 129.769v0h143.654c71.665 0 129.769-58.098 129.769-129.769v0-143.654c0-71.665-58.098-129.769-129.769-129.769v0zM655.654 366.118c-34.118 0-61.772-27.654-61.772-61.772v0-143.654c0-34.118 27.654-61.772 61.772-61.772h143.654c34.118 0 61.772 27.654 61.772 61.772v0 143.654c0 34.118-27.654 61.772-61.772 61.772v0zM368.346 461.885h-143.654c-71.665 0-129.769 58.098-129.769 129.769v0 143.654c0 71.665 58.098 129.769 129.769 129.769v0h143.654c71.665 0 129.769-58.098 129.769-129.769v-143.654c0-71.665-58.098-129.769-129.769-129.769v0zM224.698 797.074c-34.118 0-61.772-27.654-61.772-61.772v0-143.654c0-34.118 27.654-61.772 61.772-61.772v0h143.654c34.118 0 61.772 27.654 61.772 61.772v0 143.654c0 34.118-27.654 61.772-61.772 61.772v0zM631.711 460.449c-32.751 0.057-59.274 26.616-59.274 59.375 0 3.556 0.314 7.034 0.913 10.413l-0.053-0.361 15.321 90.023-65.599 63.689c-10.195 10.642-16.473 25.112-16.473 41.045 0 29.307 21.237 53.655 49.161 58.498l90.375 12.981 40.701 82.837c9.797 19.722 29.801 33.040 52.918 33.040 0.079 0 0.164 0 0.243 0h-0.011c23.174-0.023 43.234-13.324 52.993-32.7l0.157-0.34 40.22-81.882 90.498-13.885c29.071-4.174 51.165-28.909 51.165-58.807 0-16.757-6.943-31.895-18.111-42.69l-0.015-0.014-65.125-61.772 15.321-90.023c0.561-3.071 0.884-6.602 0.884-10.206 0-32.796-26.585-59.375-59.375-59.375-10.132 0-19.67 2.537-28.018 7.010l0.319-0.157-80.446 42.137-80.446-42.137c-7.954-4.229-17.398-6.711-27.419-6.711-0.291 0-0.588 0.002-0.878 0.006h0.045zM739.927 578.724c0.108 0.001 0.234 0.001 0.366 0.001 10.017 0 19.453-2.48 27.734-6.863l-0.324 0.157 69.433-36.393-13.405 77.574c-0.541 3.010-0.846 6.466-0.846 10.005 0 16.74 6.928 31.864 18.070 42.657l54.125 54.125-77.574 11.494c-19.864 2.864-36.327 15.207-44.858 32.218l-0.157 0.341-34.957 70.388-33.995-70.388c-8.688-17.352-25.15-29.695-44.694-32.526l-0.321-0.040-77.574-11.494 56.503-55.067c11.601-10.943 18.821-26.416 18.821-43.573 0-3.040-0.226-6.026-0.664-8.945l0.042 0.329-13.405-77.574 69.433 36.393c8.141 4.521 17.852 7.18 28.187 7.18 0.020 0 0.047 0 0.067 0h-0.003zM644.16 794.202v0zM835.695 794.202v0zM732.267 849.749v0z" />
<glyph unicode="&#xe926;" glyph-name="Icon_service" d="M855.643 511.328c-19.251 0-34.853 15.603-34.853 34.853v0c0 170.538-138.251 308.789-308.789 308.789s-308.789-138.251-308.789-308.789v0c0-19.251-15.603-34.853-34.853-34.853s-34.853 15.603-34.853 34.853v0c0 209.040 169.464 378.504 378.504 378.504s378.504-169.464 378.504-378.504v0c0-19.251-15.603-34.853-34.853-34.853v0zM217.448 167.685h-98.181c-46.367 0-83.944 37.585-83.944 83.944v0 245.461c0 46.367 37.585 83.944 83.944 83.944v0h98.181c46.367 0 83.944-37.585 83.944-83.944v0-245.461c0-46.367-37.585-83.944-83.944-83.944v0zM119.259 511.328c-7.866 0-14.237-6.372-14.237-14.237v0-245.461c0-7.866 6.372-14.237 14.237-14.237v0h98.181c7.866 0 14.237 6.372 14.237 14.237v0 245.461c0 7.866-6.372 14.237-14.237 14.237v0zM908.176 216.776h-105.059c-44.081 0.28-79.746 35.938-80.019 79.996v203.762c0.28 44.081 35.938 79.746 79.996 80.019h105.572c44.081-0.28 79.746-35.938 80.019-79.996v-203.762c-0.282-44.253-36.221-80.019-80.508-80.019 0 0-0.001 0-0.001 0v0zM802.627 511.328c-5.968 0-10.803-4.835-10.803-10.803v-203.731c0-5.968 4.835-10.803 10.803-10.803v0h105.549c5.968 0 10.803 4.835 10.803 10.803v0 203.731c0 5.968-4.835 10.803-10.803 10.803v0zM634.731 44.955c-19.251 0-34.853 15.603-34.853 34.853s15.603 34.853 34.853 34.853v0c0.297-0.001 0.648-0.002 0.992-0.002 87.949 0 161.566 61.348 180.41 143.58l0.24 1.241c2.343 17.174 16.922 30.265 34.55 30.265 19.251 0 34.853-15.603 34.853-34.853 0-3.797-0.608-7.454-1.728-10.876l0.069 0.246c-26.090-114.861-127.322-199.317-248.282-199.317-0.386 0-0.78 0.001-1.165 0.002h0.060zM512-53.235c-73.475 0-133.043 59.568-133.043 133.043s59.568 133.043 133.043 133.043c73.475 0 133.043-59.568 133.043-133.043v0c0-73.475-59.568-133.043-133.043-133.043v0zM512 143.136c-34.974 0-63.328-28.354-63.328-63.328s28.354-63.328 63.328-63.328c34.974 0 63.328 28.354 63.328 63.328v0c0 34.974-28.354 63.328-63.328 63.328v0z" />
</font>
</defs>
</svg>
